<?xml version="1.0" encoding="UTF-8" standalone="no"?>
<svg width="456" height="456" viewBox="0 0 456 456" fill="none" xmlns="http://www.w3.org/2000/svg">
<g clip-path="url(#clip0_54_395)">
<!-- Added a transform to scale down by 75% and center the icon -->
<g clip-path="url(#clip1_54_395)" transform="translate(114, 114) scale(0.5)">
<path d="M333.125 326H176.374V321.647C175.804 311.676 173.878 301.861 172.729 291.97C171.524 281.563 171.118 271.199 171.346 260.705L164.205 265.115C150.567 272.736 131.278 277.893 115.736 274.611C113.891 274.223 111.322 272.977 109.865 272.773C107.885 272.499 104.697 272.964 102.506 272.77C92.8601 271.913 75.6979 265.186 76.897 253.165C77.0008 252.113 78.0224 250.225 77.8515 249.552C77.7109 248.996 76.0529 247.784 75.5639 247.131C73.1892 243.97 72.0839 239.784 72.6265 235.84C72.8543 234.179 74.4888 231.135 74.5156 230.067C74.539 229.096 73.0251 226.554 72.6968 225.215C69.87 213.71 75.8553 207.696 86.3958 205.071C88.9614 204.431 91.574 204.26 94.163 203.785C94.4209 203.43 92.6826 198.993 92.4649 198.086C90.4787 189.926 91.8285 180.958 97.1875 174.335C102.124 168.231 112.374 163.895 117.766 171.787C123.661 180.419 116.061 188.392 118.603 197.403C120.305 203.433 125.674 206.279 129.318 210.8C130.008 211.654 132.557 215.836 132.832 215.99C134.346 216.834 143.955 214.553 146.229 214.148C143.921 209.628 141.175 205.318 139.138 200.647C134.382 189.748 132.182 179.16 131.827 167.273C131.803 166.443 132.142 163.828 131.298 163.63L113.747 163.754L96.6516 145.016L91.9524 144.996C91.4366 145.94 90.9811 147.38 90.2911 148.19C86.3858 152.788 78.6253 151.438 76.2941 145.944C73.283 138.858 80.1995 132.322 87.1762 135.064C89.7016 136.059 90.6194 137.877 91.8419 140.111C93.5166 140.486 100.684 139.628 101.522 140.479C101.846 140.81 101.91 141.838 102.181 141.832L102.684 139.819C102.717 141.48 102.506 143.194 102.858 144.835C107.383 149.701 111.834 154.629 116.768 159.056L131.827 159.244L132.158 155.892H117.924L105.765 143.268L105.517 127.778L98.8923 120.773C98.3531 121.081 97.1708 121.972 96.655 122.072C89.2093 123.479 82.333 115.292 86.9451 108.849C91.5572 102.407 101.702 105.119 102.312 113.246C102.476 115.432 101.629 116.424 101.384 118.356C103.782 119.474 110.267 125.203 110.669 127.684C110.796 128.461 110.377 129.161 110.374 129.931C110.367 131.927 110.069 140.238 110.706 141.346L120.003 151.137L132.46 151.171L133.163 147.193C130.246 146.838 126.974 147.41 124.478 145.662C123.038 144.654 115.78 137.207 114.922 135.794C113.626 133.651 114.413 131.937 114.34 129.948C114.058 122.273 114.567 114.632 114.413 106.914C108.418 103.274 109.999 93.1417 116.815 91.5043C127.024 89.0499 131.267 102.695 122.449 107.014C122.438 106.311 122.08 105.26 122.097 104.151C122.124 102.574 122.626 101.201 122.445 99.4804C121.939 94.6686 115.743 95.7067 115.422 99.8587C115.254 102.052 117.465 103.555 119.103 104.573L118.912 133.822L127.707 142.441C129.248 142.11 133.324 143.62 134.118 142.29C134.446 141.741 134.62 140.251 134.841 139.498C135.31 137.891 135.662 136.233 136.174 134.636C142.109 116.102 152.921 99.9492 168.636 88.3769C166.634 81.9311 166.891 73.6303 170.68 67.8408C172.79 64.6196 176.504 61.8605 180.54 62.5034C182.989 62.8918 182.627 67.228 186.08 68.3464C190.548 69.7896 196.125 67.0271 199.725 64.566C205.895 60.3469 210.514 55.773 217.678 52.7125C230.372 47.2947 245.086 49.9132 253.302 61.4151C261.347 60.866 270.183 62.6239 276.517 67.8408C280.382 71.0252 283.008 76.4899 284.401 81.2212C289.06 83.6522 292.728 86.7998 295.33 91.3905C297.353 94.9533 297.115 95.3182 299.979 98.4624C306.808 105.963 312.941 114.579 317.104 123.867C319.221 128.592 320.638 133.598 322.735 138.329L330.542 138.423L336.404 132.898L337.154 106.904C330.562 103.823 330.757 94.5816 337.459 91.7622C346.834 87.8244 352.946 101.292 344.844 106.68C343.695 107.443 341.635 107.466 341.518 109.214L341.32 134.8L332.78 143.004L323.743 142.843C323.951 143.934 323.944 145.12 324.078 146.191C324.289 147.849 324.939 149.493 324.744 151.217L337.238 151.147L348.21 140.686C349.403 135.791 348.518 130.721 349.011 125.749C351.278 122.404 354.376 119.692 357.418 117.053C355.04 109.931 361.186 102.39 368.638 105.829C377.745 110.031 372.074 123.991 362.592 121.751C362.103 121.637 360.767 120.134 359.923 120.562C358.278 122.601 353.854 125.672 353.542 128.274C353.134 131.669 354.366 139.957 353.02 142.485C348.374 146.429 344.499 151.181 339.833 155.098C339.596 155.299 339.498 155.601 339.482 155.905H325.414V159.257C330.656 159.093 336.002 159.729 341.156 158.584C340.999 160.067 343.565 158.872 344.007 158.584L360.924 141.678L366.933 141.49C367.637 133.645 378.622 131.766 382.082 138.929C386.219 147.497 375.256 154.904 369.291 149.205C368.849 148.783 367.71 146.335 367.566 146.245C367.255 146.047 363.463 146.128 362.934 146.365L345.343 163.938H325.749C325.689 165.043 325.833 166.185 325.749 167.287C325.595 169.272 325.391 171.342 325.079 173.314H355.391C358.429 168.13 365.309 166.952 369.13 171.968C375.206 179.937 364.441 189.959 356.932 182.823C356.748 182.646 355.609 181.437 355.559 181.35C354.966 180.326 355.187 178.035 353.361 178.032L324.939 177.982C324.49 178.059 324.497 180.818 324.409 181.35C322.762 191.345 318.987 200.821 313.825 209.477L313.835 210.147C318.635 213.201 323.73 215.782 328.399 219.054C339.699 226.966 350.541 238.07 357.166 250.231C363.048 261.023 361.778 265.437 357.391 276.44C351.121 292.161 342.071 307.349 333.118 321.651" fill="#1C201E"/>
<path d="M285.801 298.784C277.303 303.981 267.439 306.227 257.592 307.245C250.22 308.005 236.97 308.648 229.95 306.76C229.072 306.522 228.108 306.512 227.96 305.4C227.733 282.477 227.773 259.516 232.003 236.964C252.742 236.543 270.092 221.665 275.002 201.765L275.686 201.417C300.508 208.158 325.045 220.587 342.338 239.938C345.57 243.554 353.904 254.738 354.53 259.225C355.384 265.366 350.219 276.299 347.587 282.025C343.896 290.051 339.354 298.871 334.859 306.468C333.978 307.958 330.039 314.84 328.633 314.92C327.052 315.01 321.92 313.571 320.142 313.028C313.745 311.083 307.635 307.386 303.646 302.038L316.876 273.757C317.901 272.847 324.848 274.276 324.412 272.264C324.077 270.717 300.247 258.19 297.071 256.734C293.216 254.962 288.229 252.665 284.21 251.51C283.312 251.252 282.083 250.72 281.209 251.152C280.412 251.654 280.445 252.665 280.525 253.506C280.881 257.243 289.167 258.75 291.722 260.739C292.021 260.97 292.268 261.117 292.275 261.549L285.801 298.78V298.784Z" fill="#F5F5F5"/>
<path d="M274.845 109.355L275.18 112.034C272.028 111.093 267.52 109.221 267.128 113.862C266.766 118.155 267.299 123.107 267.289 127.453C267.895 129.425 272.457 130.952 274.346 131.113C277.829 131.404 278.747 130.932 281.206 128.776L281.875 131.455C279.206 131.478 271.469 133.189 269.811 135.299C267.701 137.991 270.789 142.384 273.934 141.43C274.316 141.312 276.366 139.404 277.401 138.868C279.531 137.766 281.922 136.722 284.217 137.653C294.7 141.895 283.731 166.242 276.195 168.472C273.16 169.369 268.176 166.466 266.887 167.708C266.093 168.472 264.546 173.987 263.846 175.547C257.743 189.182 244.299 202.85 229.307 205.978C197.086 212.695 176.253 180.201 174.029 152.048C172.722 135.496 178.44 109.593 186.693 95.0702C189.567 90.0107 190.622 92.0499 195.056 92.8536C202.961 94.2867 210.413 94.2599 218.076 91.6213C221.114 90.5733 220.967 89.8098 224.782 89.927C233.715 90.1949 243.733 91.5242 252.461 93.3927C255.382 94.0188 263.628 95.683 265.782 97.153C267.657 98.4354 266.502 102.048 266.823 104.148C267.329 107.419 271.918 109.177 274.842 109.358L274.845 109.355ZM193.371 100.736C189.697 101.218 183.896 104.901 184.75 109.177C185.497 112.921 189.788 108.196 191.141 107.543C191.834 107.208 192.949 106.864 193.706 106.76C196.594 106.368 202.164 108.722 201.845 104.168C201.634 101.161 195.729 100.424 193.371 100.732V100.736ZM251.319 114.967C253.751 106.643 242.751 99.9423 235.47 102.638C232.891 103.595 232.492 106.864 234.659 107.838C236.83 108.816 240.253 107.965 243.026 109.184C247.005 110.935 247.156 116.467 251.319 114.963V114.967ZM194.015 119.845C187.54 119.953 186.73 134.699 191.971 135.459C198.536 136.414 200.063 119.742 194.015 119.845ZM236.562 121.483C234.606 121.935 233.139 125.257 232.733 127.028C230.335 137.549 239.891 140.395 242.199 131.133C243.19 127.148 242.008 120.227 236.562 121.483ZM211.78 122.816C211.317 122.956 210.517 123.87 210.249 124.306C208.725 126.767 207.72 130.477 206.116 133.233C204.26 136.424 198.312 142.712 197.829 145.706C197.036 150.621 202.8 155.982 207.389 156.531C210.262 156.876 215.126 155.845 215.548 152.352C216.197 146.968 207.104 150.641 204.82 146.707C203.641 144.678 207.023 141.935 208.129 140.268C210.118 137.257 215.199 127.678 214.489 124.336C214.208 123.01 213.069 122.427 211.776 122.819L211.78 122.816ZM281.808 143.918C278.747 144.229 273.368 148.227 272.856 151.398C272.417 154.124 273.412 156.012 276.309 154.519C277.826 153.735 280.509 149.473 281.443 149.238C282.053 149.084 282.586 149.848 283.379 149.908C287.358 150.213 286.585 143.432 281.805 143.921L281.808 143.918ZM247.966 166.53C249.283 165.093 248.161 160.121 247.32 158.47C246.134 156.146 242.788 153.534 240.189 153.213C239.161 153.086 236.729 152.932 236.384 154.13C235.631 156.735 239.774 157.094 238.334 158.741C237.717 159.444 233.286 161.229 232.154 161.604C221.6 165.127 208.387 165.214 197.739 162.167C196.694 161.869 192.39 160.844 192.149 160.027C191.908 159.21 193.187 156.665 190.618 156.605C187.051 156.521 183.759 165.716 188.803 168.083C189.429 168.378 190.742 168.452 191.037 168.696C191.278 168.897 191.61 170.411 191.938 170.976C201.842 187.97 229.193 185.358 240.156 170.601C241.09 169.342 242.838 165.066 244.486 165.639C244.965 165.806 246.255 168.401 247.97 166.53H247.966ZM204.076 185.757C201.453 187.993 205.121 191.526 207.298 192.788C212.115 195.581 218.626 195.079 222.099 190.394C222.98 189.209 223.657 186.53 221.741 186.359C221.061 186.299 217.752 187.776 216.301 187.95C213.813 188.251 210.855 188 208.454 187.277C206.769 186.771 205.724 185.559 204.076 185.753V185.757Z" fill="#F5F5F5"/>
<path d="M203.168 303.23C203.098 303.368 203.373 303.847 202.957 303.914C196.426 303.441 189.295 302.243 183.29 299.5C182.004 298.911 179.207 297.672 178.695 296.393C178.4 293.486 177.663 290.55 177.388 287.653C175.804 270.961 176.762 256.027 177.395 239.456C177.442 238.237 177.572 235.839 177.372 234.765C176.983 232.689 173.657 233.502 173.188 235.253C172.726 238.692 172.013 242.382 171.691 245.811C171.453 248.349 172.167 251.092 171.011 253.503C159.322 261.325 145.877 268.393 131.492 268.738C142.575 258.127 144.142 243.213 138.686 229.236C137.655 226.594 136.03 224.15 135.173 221.531C138.08 221.113 141.058 220.942 143.951 220.426C160.353 217.507 174.853 207.575 191.777 206.129C190.28 217.584 197.716 228.66 208.186 232.936L205.516 252.173C205.433 253.057 205.6 253.961 205.51 254.845C204.19 267.841 203.463 280.478 203.168 293.523C203.168 293.634 203.168 293.748 203.168 293.858C203.155 294.414 203.182 294.977 203.168 295.532C203.162 295.757 203.175 295.978 203.168 296.202C203.162 296.426 203.168 296.647 203.168 296.872C203.168 296.982 203.168 297.096 203.168 297.207C203.165 298.653 203.168 300.113 203.168 301.56V303.234V303.23Z" fill="#F5F5F5"/>
<path d="M188.096 200.433C177.234 201.849 167.467 206.986 157.362 210.729C156.294 211.124 152.241 212.681 151.484 212.504C146.095 204.227 141.965 194.694 139.691 185.033C131.82 151.589 143.985 114.371 171.179 93.2855C171.168 94.9731 170.462 96.7612 170.345 98.479C170.154 101.205 170.529 103.984 171.252 106.606C171.641 108.012 173.362 111.29 173.369 112.198C173.379 113.691 171.249 119.842 170.78 122.015C164.912 149.144 167.092 173.685 184.754 195.902C185.266 196.545 188.773 199.713 188.093 200.429L188.096 200.433Z" fill="#F5F5F5"/>
<path d="M182.402 321.647C182.241 321.583 181.803 321.845 181.719 321.436L179.723 304.573C180.302 304.516 180.845 304.567 181.407 304.727C188.508 306.756 192.484 309.418 200.66 309.924C202.073 310.011 207.492 310.229 208.209 309.355C208.427 309.09 208.789 308.099 208.839 307.731C209.743 301.221 208.665 291.595 208.846 284.636C208.862 283.96 209.144 283.347 209.167 282.678C209.502 272.478 210.148 262.078 211.21 251.838C212.021 244.02 213.257 236.228 214.245 228.429C203.718 226.259 196.041 217.895 196.808 206.798L203.758 210.227C206.086 217.517 213.779 222.687 220.98 224.317C239.546 228.52 261.079 217.393 264.971 198.086C266.569 198.862 268.377 199.144 270.025 199.733C270.444 199.884 270.548 199.525 270.477 200.239C270.246 202.482 267.466 208.978 266.314 211.158C261.464 220.346 248.646 228.851 238.424 230.489C235.051 231.028 231.581 230.874 228.195 231.312C226.587 231.768 226.205 235.391 225.991 236.81C223.693 252.116 223.05 268.835 222.615 284.332C222.417 291.357 221.798 298.7 222.253 305.762C222.38 307.721 222.528 310.661 224.373 311.679C226.651 312.934 235.004 313.828 237.828 313.966C254.029 314.753 270.35 312.251 285.235 305.916C284.83 309.954 285.164 314.1 284.9 318.134C284.85 318.911 284.562 321.232 284.233 321.654H182.412L182.402 321.647Z" fill="#F5F5F5"/>
<path d="M271.55 175.376C275.69 175.591 278.232 175.229 281.651 172.915C290.598 166.865 297.631 150.635 294.091 140.177C293.569 138.637 291.8 136.296 291.931 135.007C292.045 133.862 294.878 128.635 295.528 126.854C296.68 123.693 297.812 119.849 298.254 116.52C298.703 113.145 298.445 109.683 299.128 106.348C319.791 130.808 325.528 165.539 313.949 195.497C312.817 198.43 311.357 202.013 309.736 204.679C309.337 205.335 308.627 206.782 307.847 206.795C293.83 200.155 278.962 195.785 264.037 191.657C263.411 191.325 263.079 191.131 263.257 190.391C263.608 188.941 267.195 184.045 268.204 182.247C269.443 180.041 270.461 177.663 271.55 175.38V175.376Z" fill="#F5F5F5"/>
<path d="M292.928 104.332L283.553 99.4768L283.212 98.8138C284.056 93.4529 278.422 92.0734 274.497 90.4494C263.702 85.9825 239.094 79.2789 227.94 81.3851C222.93 82.3327 218.82 85.1655 213.957 86.4915C206.98 88.3934 199.159 87.9447 192.109 86.4212C188.431 85.6276 185.396 84.3853 181.963 82.9421C180.352 83.3506 180.49 87.188 181.103 88.3834C181.716 89.5788 184.221 90.3556 182.389 91.762C180.865 92.9339 177.897 90.9014 176.742 89.7295C171.852 84.757 172.753 74.0587 177.924 69.5316C178.359 69.4545 180.627 72.4179 181.424 72.9939C182.308 73.6334 183.3 74.1089 184.341 74.4303C203.6 80.3739 217.202 47.3011 240.182 58.1167C244.741 60.263 245.444 62.6203 248.392 65.9822C251.5 69.5282 253.543 67.7971 257.264 67.5024C266.043 66.8093 273.164 70.6131 277.243 78.3246C278.265 80.2533 279.37 84.4288 280.532 85.7515C281.453 86.7996 284.756 87.9179 286.39 89.2707C291.14 93.2018 292.533 98.345 292.928 104.329V104.332Z" fill="#F5F5F5"/>
</g>
</g>
<defs>
<clipPath id="clip0_54_395">
<rect width="456" height="456" fill="white"/>
</clipPath>
<clipPath id="clip1_54_395">
<rect width="311" height="276" fill="white" transform="translate(72 50)"/>
</clipPath>
</defs>
</svg>