<svg width="456" height="456" viewBox="0 0 456 456" fill="none" xmlns="http://www.w3.org/2000/svg">
<g clip-path="url(#clip0_54_395)">
<rect width="456" height="456" fill="#F04B25"/>
<g clip-path="url(#clip1_54_395)">
<path d="M333.125 326H176.374V321.647C175.804 311.676 173.878 301.861 172.729 291.97C171.524 281.563 171.118 271.199 171.346 260.705L164.205 265.115C150.567 272.736 131.278 277.893 115.736 274.611C113.891 274.223 111.322 272.977 109.865 272.773C107.885 272.499 104.697 272.964 102.506 272.77C92.8601 271.913 75.6979 265.186 76.897 253.165C77.0008 252.113 78.0224 250.225 77.8515 249.552C77.7109 248.996 76.0529 247.784 75.5639 247.131C73.1892 243.97 72.0839 239.784 72.6265 235.84C72.8543 234.179 74.4888 231.135 74.5156 230.067C74.539 229.096 73.0251 226.554 72.6968 225.215C69.87 213.71 75.8553 207.696 86.3958 205.071C88.9614 204.431 91.574 204.26 94.163 203.785C94.4209 203.43 92.6826 198.993 92.4649 198.086C90.4787 189.926 91.8285 180.958 97.1875 174.335C102.124 168.231 112.374 163.895 117.766 171.787C123.661 180.419 116.061 188.392 118.603 197.403C120.305 203.433 125.674 206.279 129.318 210.8C130.008 211.654 132.557 215.836 132.832 215.99C134.346 216.834 143.955 214.553 146.229 214.148C143.921 209.628 141.175 205.318 139.138 200.647C134.382 189.748 132.182 179.16 131.827 167.273C131.803 166.443 132.142 163.828 131.298 163.63L113.747 163.754L96.6516 145.016L91.9524 144.996C91.4366 145.94 90.9811 147.38 90.2911 148.19C86.3858 152.788 78.6253 151.438 76.2941 145.944C73.283 138.858 80.1995 132.322 87.1762 135.064C89.7016 136.059 90.6194 137.877 91.8419 140.111C93.5166 140.486 100.684 139.628 101.522 140.479C101.846 140.81 101.91 141.838 102.181 141.832L102.684 139.819C102.717 141.48 102.506 143.194 102.858 144.835C107.383 149.701 111.834 154.629 116.768 159.056L131.827 159.244L132.158 155.892H117.924L105.765 143.268L105.517 127.778L98.8923 120.773C98.3531 121.081 97.1708 121.972 96.655 122.072C89.2093 123.479 82.333 115.292 86.9451 108.849C91.5572 102.407 101.702 105.119 102.312 113.246C102.476 115.432 101.629 116.424 101.384 118.356C103.782 119.474 110.267 125.203 110.669 127.684C110.796 128.461 110.377 129.161 110.374 129.931C110.367 131.927 110.069 140.238 110.706 141.346L120.003 151.137L132.46 151.171L133.163 147.193C130.246 146.838 126.974 147.41 124.478 145.662C123.038 144.654 115.78 137.207 114.922 135.794C113.626 133.651 114.413 131.937 114.34 129.948C114.058 122.273 114.567 114.632 114.413 106.914C108.418 103.274 109.999 93.1417 116.815 91.5043C127.024 89.0499 131.267 102.695 122.449 107.014C122.438 106.311 122.08 105.26 122.097 104.151C122.124 102.574 122.626 101.201 122.445 99.4804C121.939 94.6686 115.743 95.7067 115.422 99.8587C115.254 102.052 117.465 103.555 119.103 104.573L118.912 133.822L127.707 142.441C129.248 142.11 133.324 143.62 134.118 142.29C134.446 141.741 134.62 140.251 134.841 139.498C135.31 137.891 135.662 136.233 136.174 134.636C142.109 116.102 152.921 99.9492 168.636 88.3769C166.634 81.9311 166.891 73.6303 170.68 67.8408C172.79 64.6196 176.504 61.8605 180.54 62.5034C182.989 62.8918 182.627 67.228 186.08 68.3464C190.548 69.7896 196.125 67.0271 199.725 64.566C205.895 60.3469 210.514 55.773 217.678 52.7125C230.372 47.2947 245.086 49.9132 253.302 61.4151C261.347 60.866 270.183 62.6239 276.517 67.8408C280.382 71.0252 283.008 76.4899 284.401 81.2212C289.06 83.6522 292.728 86.7998 295.33 91.3905C297.353 94.9533 297.115 95.3182 299.979 98.4624C306.808 105.963 312.941 114.579 317.104 123.867C319.221 128.592 320.638 133.598 322.735 138.329L330.542 138.423L336.404 132.898L337.154 106.904C330.562 103.823 330.757 94.5816 337.459 91.7622C346.834 87.8244 352.946 101.292 344.844 106.68C343.695 107.443 341.635 107.466 341.518 109.214L341.32 134.8L332.78 143.004L323.743 142.843C323.951 143.934 323.944 145.12 324.078 146.191C324.289 147.849 324.939 149.493 324.744 151.217L337.238 151.147L348.21 140.686C349.403 135.791 348.518 130.721 349.011 125.749C351.278 122.404 354.376 119.692 357.418 117.053C355.04 109.931 361.186 102.39 368.638 105.829C377.745 110.031 372.074 123.991 362.592 121.751C362.103 121.637 360.767 120.134 359.923 120.562C358.278 122.601 353.854 125.672 353.542 128.274C353.134 131.669 354.366 139.957 353.02 142.485C348.374 146.429 344.499 151.181 339.833 155.098C339.596 155.299 339.498 155.601 339.482 155.905H325.414V159.257C330.656 159.093 336.002 159.729 341.156 158.584C340.999 160.067 343.565 158.872 344.007 158.584L360.924 141.678L366.933 141.49C367.637 133.645 378.622 131.766 382.082 138.929C386.219 147.497 375.256 154.904 369.291 149.205C368.849 148.783 367.71 146.335 367.566 146.245C367.255 146.047 363.463 146.128 362.934 146.365L345.343 163.938H325.749C325.689 165.043 325.833 166.185 325.749 167.287C325.595 169.272 325.391 171.342 325.079 173.314H355.391C358.429 168.13 365.309 166.952 369.13 171.968C375.206 179.937 364.441 189.959 356.932 182.823C356.748 182.646 355.609 181.437 355.559 181.35C354.966 180.326 355.187 178.035 353.361 178.032L324.939 177.982C324.49 178.059 324.497 180.818 324.409 181.35C322.762 191.345 318.987 200.821 313.825 209.477L313.835 210.147C318.635 213.201 323.73 215.782 328.399 219.054C339.699 226.966 350.541 238.07 357.166 250.231C363.048 261.023 361.778 265.437 357.391 276.44C351.121 292.161 342.071 307.349 333.118 321.651M292.929 104.332C292.533 98.3486 291.137 93.2087 286.391 89.2743C284.756 87.9215 281.454 86.8031 280.533 85.755C279.37 84.4324 278.265 80.2569 277.243 78.3282C273.164 70.6167 266.043 66.8162 257.264 67.506C253.543 67.8006 251.5 69.5318 248.392 65.9858C245.444 62.6239 244.741 60.2666 240.183 58.1202C217.202 47.3047 203.601 80.3808 184.342 74.4339C183.3 74.1125 182.312 73.637 181.424 72.9974C180.627 72.4215 178.36 69.4581 177.924 69.5351C172.753 74.0622 171.852 84.7606 176.742 89.733C177.898 90.9083 180.862 92.9375 182.389 91.7655C184.221 90.3558 181.709 89.5622 181.103 88.3869C180.497 87.2116 180.353 83.3542 181.964 82.9457C185.4 84.3855 188.431 85.6278 192.109 86.4247C199.156 87.9483 206.98 88.397 213.957 86.4951C218.82 85.1691 222.93 82.3329 227.941 81.3887C239.094 79.2825 263.705 85.9861 274.497 90.4529C278.422 92.0769 284.056 93.4565 283.212 98.8174L283.554 99.4804L292.929 104.336V104.332ZM274.845 109.355C271.921 109.174 267.333 107.416 266.827 104.145C266.502 102.049 267.661 98.4323 265.785 97.1498C263.635 95.6799 255.385 94.0123 252.465 93.3895C243.736 91.5211 233.715 90.1918 224.785 89.9239C220.971 89.81 221.121 90.5735 218.08 91.6182C210.417 94.2601 202.964 94.2836 195.06 92.8504C190.625 92.0468 189.57 90.0076 186.696 95.0671C178.443 109.593 172.723 135.496 174.032 152.044C176.256 180.198 197.089 212.692 229.311 205.975C244.302 202.851 257.747 189.179 263.849 175.544C264.549 173.984 266.093 168.469 266.891 167.705C268.18 166.463 273.164 169.369 276.198 168.469C283.735 166.239 294.707 141.892 284.22 137.649C281.926 136.722 279.531 137.763 277.404 138.865C276.369 139.401 274.319 141.313 273.938 141.427C270.789 142.377 267.704 137.984 269.815 135.295C271.472 133.183 279.21 131.475 281.879 131.451C283.855 131.435 285.064 131.85 286.9 132.456L287.529 130.008L283.048 127.092C282.234 127.085 281.695 128.347 281.209 128.769C278.747 130.929 277.833 131.398 274.35 131.107C272.461 130.949 267.899 129.419 267.292 127.447C267.303 123.097 266.77 118.145 267.132 113.855C267.524 109.214 272.028 111.083 275.184 112.027C278.339 112.971 280.861 114.07 282.398 117.036C282.947 118.094 283.025 119.407 283.872 120.251C285.145 121.517 288.688 122.498 290.252 123.747C291.569 119.708 292.292 115.506 292.279 111.247L282.378 105.672C281.444 105.692 280.78 107.399 280.047 108.016C278.523 109.298 276.768 109.469 274.849 109.348L274.845 109.355ZM188.096 200.433C188.776 199.716 185.266 196.549 184.757 195.906C167.096 173.689 164.915 149.145 170.783 122.019C171.252 119.846 173.386 113.691 173.373 112.201C173.366 111.294 171.641 108.016 171.256 106.609C170.532 103.987 170.16 101.208 170.348 98.4825C170.469 96.7681 171.172 94.9767 171.182 93.2891C143.988 114.374 131.823 151.592 139.694 185.037C141.969 194.697 146.099 204.23 151.488 212.508C152.245 212.688 156.297 211.128 157.366 210.733C167.471 206.989 177.238 201.853 188.1 200.436L188.096 200.433ZM274.423 95.6966C268.18 96.9255 271.379 106.877 276.828 103.803C280.787 101.57 279.066 94.7825 274.423 95.6966ZM340.078 96.0281C336.876 96.4902 335.958 101.218 338.902 102.407C344.878 104.814 345.584 95.2345 340.078 96.0281ZM176.374 97.3005V102.491C176.374 102.752 176.816 103.612 177.375 103.328C177.529 101.546 178.886 100.157 179.395 98.4758L176.374 97.2972V97.3005ZM271.55 175.377C270.461 177.66 269.443 180.034 268.203 182.244C267.192 184.042 263.608 188.938 263.256 190.388C263.076 191.131 263.411 191.325 264.037 191.653C278.962 195.779 293.83 200.148 307.847 206.792C308.627 206.778 309.337 205.332 309.736 204.676C311.357 202.01 312.817 198.427 313.949 195.494C325.528 165.532 319.787 130.802 299.128 106.345C298.445 109.68 298.7 113.142 298.254 116.517C297.812 119.849 296.68 123.693 295.528 126.851C294.878 128.632 292.044 133.859 291.931 135.004C291.803 136.293 293.572 138.634 294.091 140.174C297.628 150.631 290.594 166.861 281.651 172.912C278.232 175.226 275.693 175.587 271.55 175.373V175.377ZM93.2218 110.095C88.871 110.942 90.1739 117.649 94.7257 116.993C99.2775 116.337 97.6631 109.234 93.2218 110.095ZM363.838 110.095C360.636 111.043 361.4 118.101 366.3 116.571C370.098 115.386 368.886 108.602 363.838 110.095ZM273.405 117.462C270.652 118.285 269.999 124.999 273.074 125.692C282.217 127.751 279.796 115.546 273.405 117.462ZM86.4929 145.066C89.6849 141.711 84.0479 137.04 81.2445 140.656C78.441 144.273 83.4852 148.227 86.4929 145.066ZM377.233 140.265C374.389 137.619 369.315 141.182 372.128 144.862C375.209 148.894 380.599 143.392 377.233 140.265ZM127.804 245.299C123.336 246.273 127.355 242.567 128.209 241.184C133.063 233.308 130.608 222.781 125.406 215.725C121.119 209.916 115.358 207.117 113.06 199.606C110.568 191.452 114.929 185.395 114.075 177.831C113.422 172.025 107.581 173.321 104.201 175.996C95.6434 182.777 95.5698 196.103 101.826 204.471C113.747 206.725 123.996 212.765 121.286 226.561C121.032 227.85 119.632 231.189 119.756 232.056C119.833 232.595 121.859 235.445 122.281 236.928C123.738 242.078 122.583 248.229 118.483 251.879C121.943 257.913 117.123 261.877 111.958 264.114L103.022 266.729C113.76 268.494 122.629 263.722 126.528 253.566C127.004 252.324 128.869 246.032 127.804 245.299ZM360.362 179.569C362.723 182.147 368.263 178.621 365.463 174.971C362.519 171.134 357.26 176.18 360.362 179.569ZM211.21 212.487C210.494 213.214 215.414 216.281 216 216.569C231.913 224.465 256.973 214.898 259.435 196.08C253.118 202.151 246.205 207.81 237.841 210.82C229.478 213.83 219.755 214.905 211.21 212.487ZM284.224 321.647C284.552 321.225 284.84 318.905 284.89 318.128C285.155 314.093 284.82 309.951 285.225 305.909C270.344 312.245 254.019 314.746 237.818 313.959C234.994 313.822 226.641 312.928 224.363 311.672C222.518 310.654 222.367 307.714 222.243 305.755C221.788 298.694 222.407 291.35 222.605 284.325C223.04 268.829 223.684 252.11 225.981 236.804C226.196 235.384 226.577 231.758 228.185 231.306C231.571 230.867 235.041 231.025 238.414 230.482C248.64 228.845 261.458 220.34 266.304 211.151C267.457 208.972 270.237 202.476 270.468 200.232C270.541 199.519 270.438 199.877 270.016 199.727C268.368 199.137 266.559 198.856 264.961 198.079C261.069 217.386 239.54 228.513 220.971 224.311C213.769 222.68 206.076 217.51 203.748 210.221L196.798 206.792C196.031 217.889 203.711 226.253 214.235 228.423C213.247 236.221 212.011 244.01 211.2 251.832C210.139 262.075 209.492 272.472 209.157 282.671C209.134 283.341 208.856 283.954 208.836 284.63C208.655 291.591 209.733 301.215 208.829 307.724C208.779 308.096 208.414 309.084 208.199 309.348C207.483 310.222 202.063 310.005 200.65 309.918C192.474 309.412 188.498 306.75 181.398 304.721C180.835 304.56 180.292 304.51 179.713 304.567L181.709 321.43C181.793 321.838 182.232 321.577 182.392 321.641C182.724 321.774 182.881 322.267 183.397 321.641H184.402L184.67 321.868L185.072 321.641H192.775L193.177 321.868L193.445 321.641H194.785L195.187 321.868L195.455 321.641H196.46L196.728 321.868L197.13 321.641H202.824C203.045 322.17 204.277 322.17 204.498 321.641H208.183C208.518 322.046 208.852 322.046 209.187 321.641H212.202C212.537 322.046 212.872 322.046 213.207 321.641H215.216C215.625 322.099 216.134 322.109 216.556 321.641H217.561C217.896 322.049 218.227 322.046 218.566 321.641H219.236C219.661 322.109 220.163 322.099 220.575 321.641H221.245L221.65 321.872L221.915 321.641H228.279L228.547 321.868L228.949 321.641H231.628L231.896 321.868L232.298 321.641H248.04C248.375 322.042 248.71 322.046 249.045 321.641H257.753C258.088 322.046 258.423 322.046 258.758 321.641H261.773C261.994 322.17 263.226 322.17 263.447 321.641H264.787C265.213 322.106 265.715 322.099 266.127 321.641H273.496L273.897 321.865L274.165 321.641H276.175C276.51 322.042 276.848 322.046 277.18 321.641H278.185C278.503 322.18 279.856 322.19 280.194 321.641H283.544C283.966 322.089 283.942 321.989 284.214 321.641L284.224 321.647ZM285.801 298.784L292.275 261.552C292.269 261.117 292.021 260.973 291.723 260.742C289.164 258.756 280.881 257.246 280.526 253.509C280.445 252.669 280.412 251.658 281.209 251.155C282.083 250.724 283.313 251.256 284.21 251.514C288.229 252.669 293.217 254.966 297.072 256.737C300.247 258.197 324.078 270.724 324.413 272.267C324.848 274.28 317.898 272.85 316.877 273.761L303.647 302.042C307.632 307.389 313.742 311.086 320.142 313.032C321.917 313.571 327.052 315.011 328.633 314.924C330.04 314.843 333.979 307.962 334.86 306.472C339.354 298.874 343.896 290.055 347.587 282.028C350.22 276.302 355.385 265.37 354.53 259.229C353.907 254.742 345.571 243.558 342.339 239.941C325.049 220.591 300.508 208.161 275.686 201.421L275.003 201.769C270.093 221.669 252.743 236.546 232.003 236.968C227.773 259.517 227.733 282.477 227.961 305.404C228.108 306.516 229.069 306.529 229.95 306.763C236.971 308.652 250.221 308.009 257.593 307.249C267.44 306.234 277.304 303.987 285.801 298.787V298.784ZM203.169 293.52C203.467 280.475 204.19 267.837 205.51 254.842C205.6 253.958 205.433 253.057 205.517 252.17L208.186 232.933C197.716 228.657 190.28 217.58 191.777 206.125C174.853 207.575 160.357 217.507 143.952 220.423C141.054 220.939 138.08 221.11 135.173 221.528C136.03 224.147 137.655 226.591 138.686 229.233C144.139 243.213 142.575 258.124 131.492 268.735C145.877 268.39 159.322 261.321 171.011 253.499C172.163 251.085 171.45 248.346 171.691 245.808C172.013 242.379 172.726 238.686 173.188 235.25C173.657 233.499 176.983 232.689 177.372 234.761C177.573 235.836 177.442 238.234 177.395 239.453C176.762 256.024 175.804 270.962 177.388 287.65C177.663 290.543 178.4 293.483 178.695 296.39C179.207 297.666 182.004 298.908 183.29 299.497C189.295 302.24 196.426 303.438 202.958 303.91C203.376 303.843 203.098 303.365 203.169 303.227C203.236 303.1 203.403 303.077 203.169 302.893V301.553C203.169 300.107 203.165 298.647 203.169 297.2V296.865C203.169 296.641 203.162 296.42 203.169 296.196L203.396 295.794L203.169 295.526C203.182 294.97 203.155 294.408 203.169 293.852V293.517V293.52ZM116.406 229.223C121.112 210.981 95.1946 206.223 82.9125 212.31C77.2989 215.093 76.9539 221.388 79.888 226.387C89.7519 224.2 101.357 222.874 110.95 226.826C111.901 227.217 115.87 229.672 116.406 229.223ZM89.8926 230.335C87.4978 230.546 82.5172 231.413 80.6047 232.769C77.0142 235.311 78.5348 242.262 81.5995 244.813C82.3967 245.165 84.7948 243.993 85.9202 243.779C95.4123 241.984 106.495 243.695 114.973 248.266C116.048 248.363 117.525 244.964 117.679 244.053C119.97 230.552 98.7517 229.558 89.8926 230.338V230.335ZM135.508 233.583C134.62 233.502 134.965 233.566 134.848 234.085C134.429 235.92 134.124 237.658 133.512 239.453C133.14 240.538 132.068 241.981 131.897 242.875C131.669 244.057 132.225 245.718 132.178 247.161C131.947 254.454 127.506 262.815 121.551 267.007C120.536 267.72 119.447 268.072 118.526 268.661C118.198 268.872 117.93 268.628 118.094 269.411C124.977 270.694 131.365 264.208 134.131 258.489C137.893 250.72 137.886 241.756 135.508 233.583ZM92.3041 260.709C97.1574 261.884 102.158 261.857 107.041 260.879C111.108 260.066 118.597 257.039 112.297 252.94C106.743 249.331 90.3112 246.501 84.8216 250.382C78.0994 255.137 89.4002 263.97 94.642 263.719C94.5984 262.778 93.4161 262.517 92.7998 261.713C92.5419 261.378 92.1467 261.291 92.3008 260.709H92.3041ZM290.916 312.941L310.938 271.584L298.452 264.05C297.651 263.903 297.578 265.775 297.444 266.391C294.181 281.67 291.954 297.24 290.246 312.77L290.916 312.941ZM323.746 321.647C324.975 321.627 325.274 321.835 325.421 320.311C316.059 319.183 307.22 315.201 300.803 308.26C298.649 311.411 296.777 314.78 294.895 318.098C294.694 318.453 294.114 318.55 294.024 318.714C293.766 319.189 293.753 320.921 293.267 321.647L293.602 321.982C294.158 321.995 294.721 321.962 295.277 321.982C295.608 321.992 295.95 321.995 296.281 321.982C300.937 321.818 306.39 321.202 311.019 321.647C311.055 321.805 311.199 321.965 311.354 321.982C311.752 322.026 312.278 322.002 312.693 321.982C313.058 321.965 313.537 322.086 313.698 321.647C314.7 321.614 315.711 321.654 316.713 321.647H317.048C317.828 321.647 318.612 321.647 319.392 321.647H323.411C323.569 321.862 323.699 321.647 323.746 321.647Z" fill="#1C201E"/>
<path d="M285.801 298.784C277.303 303.981 267.439 306.227 257.592 307.245C250.22 308.005 236.97 308.648 229.95 306.76C229.072 306.522 228.108 306.512 227.96 305.4C227.733 282.477 227.773 259.516 232.003 236.964C252.742 236.543 270.092 221.665 275.002 201.765L275.686 201.417C300.508 208.158 325.045 220.587 342.338 239.938C345.57 243.554 353.904 254.738 354.53 259.225C355.384 265.366 350.219 276.299 347.587 282.025C343.896 290.051 339.354 298.871 334.859 306.468C333.978 307.958 330.039 314.84 328.633 314.92C327.052 315.01 321.92 313.571 320.142 313.028C313.745 311.083 307.635 307.386 303.646 302.038L316.876 273.757C317.901 272.847 324.848 274.276 324.412 272.264C324.077 270.717 300.247 258.19 297.071 256.734C293.216 254.962 288.229 252.665 284.21 251.51C283.312 251.252 282.083 250.72 281.209 251.152C280.412 251.654 280.445 252.665 280.525 253.506C280.881 257.243 289.167 258.75 291.722 260.739C292.021 260.97 292.268 261.117 292.275 261.549L285.801 298.78V298.784Z" fill="#F5F5F5"/>
<path d="M274.845 109.355L275.18 112.034C272.028 111.093 267.52 109.221 267.128 113.862C266.766 118.155 267.299 123.107 267.289 127.453C267.895 129.425 272.457 130.952 274.346 131.113C277.829 131.404 278.747 130.932 281.206 128.776L281.875 131.455C279.206 131.478 271.469 133.189 269.811 135.299C267.701 137.991 270.789 142.384 273.934 141.43C274.316 141.312 276.366 139.404 277.401 138.868C279.531 137.766 281.922 136.722 284.217 137.653C294.7 141.895 283.731 166.242 276.195 168.472C273.16 169.369 268.176 166.466 266.887 167.708C266.093 168.472 264.546 173.987 263.846 175.547C257.743 189.182 244.299 202.85 229.307 205.978C197.086 212.695 176.253 180.201 174.029 152.048C172.722 135.496 178.44 109.593 186.693 95.0702C189.567 90.0107 190.622 92.0499 195.056 92.8536C202.961 94.2867 210.413 94.2599 218.076 91.6213C221.114 90.5733 220.967 89.8098 224.782 89.927C233.715 90.1949 243.733 91.5242 252.461 93.3927C255.382 94.0188 263.628 95.683 265.782 97.153C267.657 98.4354 266.502 102.048 266.823 104.148C267.329 107.419 271.918 109.177 274.842 109.358L274.845 109.355ZM193.371 100.736C189.697 101.218 183.896 104.901 184.75 109.177C185.497 112.921 189.788 108.196 191.141 107.543C191.834 107.208 192.949 106.864 193.706 106.76C196.594 106.368 202.164 108.722 201.845 104.168C201.634 101.161 195.729 100.424 193.371 100.732V100.736ZM251.319 114.967C253.751 106.643 242.751 99.9423 235.47 102.638C232.891 103.595 232.492 106.864 234.659 107.838C236.83 108.816 240.253 107.965 243.026 109.184C247.005 110.935 247.156 116.467 251.319 114.963V114.967ZM194.015 119.845C187.54 119.953 186.73 134.699 191.971 135.459C198.536 136.414 200.063 119.742 194.015 119.845ZM236.562 121.483C234.606 121.935 233.139 125.257 232.733 127.028C230.335 137.549 239.891 140.395 242.199 131.133C243.19 127.148 242.008 120.227 236.562 121.483ZM211.78 122.816C211.317 122.956 210.517 123.87 210.249 124.306C208.725 126.767 207.72 130.477 206.116 133.233C204.26 136.424 198.312 142.712 197.829 145.706C197.036 150.621 202.8 155.982 207.389 156.531C210.262 156.876 215.126 155.845 215.548 152.352C216.197 146.968 207.104 150.641 204.82 146.707C203.641 144.678 207.023 141.935 208.129 140.268C210.118 137.257 215.199 127.678 214.489 124.336C214.208 123.01 213.069 122.427 211.776 122.819L211.78 122.816ZM281.808 143.918C278.747 144.229 273.368 148.227 272.856 151.398C272.417 154.124 273.412 156.012 276.309 154.519C277.826 153.735 280.509 149.473 281.443 149.238C282.053 149.084 282.586 149.848 283.379 149.908C287.358 150.213 286.585 143.432 281.805 143.921L281.808 143.918ZM247.966 166.53C249.283 165.093 248.161 160.121 247.32 158.47C246.134 156.146 242.788 153.534 240.189 153.213C239.161 153.086 236.729 152.932 236.384 154.13C235.631 156.735 239.774 157.094 238.334 158.741C237.717 159.444 233.286 161.229 232.154 161.604C221.6 165.127 208.387 165.214 197.739 162.167C196.694 161.869 192.39 160.844 192.149 160.027C191.908 159.21 193.187 156.665 190.618 156.605C187.051 156.521 183.759 165.716 188.803 168.083C189.429 168.378 190.742 168.452 191.037 168.696C191.278 168.897 191.61 170.411 191.938 170.976C201.842 187.97 229.193 185.358 240.156 170.601C241.09 169.342 242.838 165.066 244.486 165.639C244.965 165.806 246.255 168.401 247.97 166.53H247.966ZM204.076 185.757C201.453 187.993 205.121 191.526 207.298 192.788C212.115 195.581 218.626 195.079 222.099 190.394C222.98 189.209 223.657 186.53 221.741 186.359C221.061 186.299 217.752 187.776 216.301 187.95C213.813 188.251 210.855 188 208.454 187.277C206.769 186.771 205.724 185.559 204.076 185.753V185.757Z" fill="#F5F5F5"/>
<path d="M203.168 303.23C203.098 303.368 203.373 303.847 202.957 303.914C196.426 303.441 189.295 302.243 183.29 299.5C182.004 298.911 179.207 297.672 178.695 296.393C178.4 293.486 177.663 290.55 177.388 287.653C175.804 270.961 176.762 256.027 177.395 239.456C177.442 238.237 177.572 235.839 177.372 234.765C176.983 232.689 173.657 233.502 173.188 235.253C172.726 238.692 172.013 242.382 171.691 245.811C171.453 248.349 172.167 251.092 171.011 253.503C159.322 261.325 145.877 268.393 131.492 268.738C142.575 258.127 144.142 243.213 138.686 229.236C137.655 226.594 136.03 224.15 135.173 221.531C138.08 221.113 141.058 220.942 143.951 220.426C160.353 217.507 174.853 207.575 191.777 206.129C190.28 217.584 197.716 228.66 208.186 232.936L205.516 252.173C205.433 253.057 205.6 253.961 205.51 254.845C204.19 267.841 203.463 280.478 203.168 293.523C203.168 293.634 203.168 293.748 203.168 293.858C203.155 294.414 203.182 294.977 203.168 295.532C203.162 295.757 203.175 295.978 203.168 296.202C203.162 296.426 203.168 296.647 203.168 296.872C203.168 296.982 203.168 297.096 203.168 297.207C203.165 298.653 203.168 300.113 203.168 301.56V303.234V303.23Z" fill="#F5F5F5"/>
<path d="M188.096 200.433C177.234 201.849 167.467 206.986 157.362 210.729C156.294 211.124 152.241 212.681 151.484 212.504C146.095 204.227 141.965 194.694 139.691 185.033C131.82 151.589 143.985 114.371 171.179 93.2855C171.168 94.9731 170.462 96.7612 170.345 98.479C170.154 101.205 170.529 103.984 171.252 106.606C171.641 108.012 173.362 111.29 173.369 112.198C173.379 113.691 171.249 119.842 170.78 122.015C164.912 149.144 167.092 173.685 184.754 195.902C185.266 196.545 188.773 199.713 188.093 200.429L188.096 200.433Z" fill="#F5F5F5"/>
<path d="M182.402 321.647C182.241 321.583 181.803 321.845 181.719 321.436L179.723 304.573C180.302 304.516 180.845 304.567 181.407 304.727C188.508 306.756 192.484 309.418 200.66 309.924C202.073 310.011 207.492 310.229 208.209 309.355C208.427 309.09 208.789 308.099 208.839 307.731C209.743 301.221 208.665 291.595 208.846 284.636C208.862 283.96 209.144 283.347 209.167 282.678C209.502 272.478 210.148 262.078 211.21 251.838C212.021 244.02 213.257 236.228 214.245 228.429C203.718 226.259 196.041 217.895 196.808 206.798L203.758 210.227C206.086 217.517 213.779 222.687 220.98 224.317C239.546 228.52 261.079 217.393 264.971 198.086C266.569 198.862 268.377 199.144 270.025 199.733C270.444 199.884 270.548 199.525 270.477 200.239C270.246 202.482 267.466 208.978 266.314 211.158C261.464 220.346 248.646 228.851 238.424 230.489C235.051 231.028 231.581 230.874 228.195 231.312C226.587 231.768 226.205 235.391 225.991 236.81C223.693 252.116 223.05 268.835 222.615 284.332C222.417 291.357 221.798 298.7 222.253 305.762C222.38 307.721 222.528 310.661 224.373 311.679C226.651 312.934 235.004 313.828 237.828 313.966C254.029 314.753 270.35 312.251 285.235 305.916C284.83 309.954 285.164 314.1 284.9 318.134C284.85 318.911 284.562 321.232 284.233 321.654H182.412L182.402 321.647Z" fill="#F5F5F5"/>
<path d="M271.55 175.376C275.69 175.591 278.232 175.229 281.651 172.915C290.598 166.865 297.631 150.635 294.091 140.177C293.569 138.637 291.8 136.296 291.931 135.007C292.045 133.862 294.878 128.635 295.528 126.854C296.68 123.693 297.812 119.849 298.254 116.52C298.703 113.145 298.445 109.683 299.128 106.348C319.791 130.808 325.528 165.539 313.949 195.497C312.817 198.43 311.357 202.013 309.736 204.679C309.337 205.335 308.627 206.782 307.847 206.795C293.83 200.155 278.962 195.785 264.037 191.657C263.411 191.325 263.079 191.131 263.257 190.391C263.608 188.941 267.195 184.045 268.204 182.247C269.443 180.041 270.461 177.663 271.55 175.38V175.376Z" fill="#F5F5F5"/>
<path d="M292.928 104.332L283.553 99.4768L283.212 98.8138C284.056 93.4529 278.422 92.0734 274.497 90.4494C263.702 85.9825 239.094 79.2789 227.94 81.3851C222.93 82.3327 218.82 85.1655 213.957 86.4915C206.98 88.3934 199.159 87.9447 192.109 86.4212C188.431 85.6276 185.396 84.3853 181.963 82.9421C180.352 83.3506 180.49 87.188 181.103 88.3834C181.716 89.5788 184.221 90.3556 182.389 91.762C180.865 92.9339 177.897 90.9014 176.742 89.7295C171.852 84.757 172.753 74.0587 177.924 69.5316C178.359 69.4545 180.627 72.4179 181.424 72.9939C182.308 73.6334 183.3 74.1089 184.341 74.4303C203.6 80.3739 217.202 47.3011 240.182 58.1167C244.741 60.263 245.444 62.6203 248.392 65.9822C251.5 69.5282 253.543 67.7971 257.264 67.5024C266.043 66.8093 273.164 70.6131 277.243 78.3246C278.265 80.2533 279.37 84.4288 280.532 85.7515C281.453 86.7996 284.756 87.9179 286.39 89.2707C291.14 93.2018 292.533 98.345 292.928 104.329V104.332Z" fill="#F5F5F5"/>
<path d="M127.804 245.299C128.866 246.029 127.003 252.324 126.528 253.566C122.629 263.722 113.76 268.494 103.022 266.729L111.958 264.114C117.123 261.88 121.939 257.916 118.483 251.879C122.582 248.229 123.738 242.081 122.281 236.928C121.862 235.441 119.832 232.595 119.755 232.056C119.631 231.188 121.035 227.85 121.286 226.561C123.996 212.765 113.747 206.721 101.826 204.471C95.5695 196.103 95.6399 182.776 104.201 175.996C107.58 173.317 113.422 172.021 114.075 177.831C114.926 185.395 110.565 191.452 113.06 199.606C115.358 207.116 121.119 209.916 125.406 215.725C130.607 222.78 133.063 233.308 128.209 241.184C127.359 242.566 123.336 246.277 127.804 245.299Z" fill="#F5F5F5"/>
<path d="M116.406 229.223C115.87 229.675 111.901 227.217 110.95 226.825C101.357 222.874 89.7519 224.197 79.888 226.387C76.9539 221.387 77.2989 215.092 82.9125 212.31C95.1913 206.222 121.112 210.98 116.406 229.223Z" fill="#F5F5F5"/>
<path d="M89.8925 230.335C98.7516 229.554 119.97 230.549 117.679 244.05C117.525 244.961 116.048 248.359 114.973 248.262C106.495 243.692 95.4123 241.981 85.9201 243.775C84.7947 243.99 82.3932 245.158 81.5994 244.81C78.5348 242.258 77.0141 235.31 80.6047 232.766C82.5172 231.409 87.501 230.542 89.8925 230.331V230.335Z" fill="#F5F5F5"/>
<path d="M92.3038 260.708C92.1498 261.291 92.545 261.378 92.8029 261.713C93.4192 262.52 94.5982 262.781 94.645 263.719C89.3999 263.97 78.1025 255.137 84.8247 250.382C90.3143 246.501 106.746 249.33 112.3 252.94C118.603 257.039 111.111 260.062 107.044 260.879C102.158 261.857 97.1604 261.884 92.3072 260.708H92.3038Z" fill="#F5F5F5"/>
<path d="M211.21 212.487C219.751 214.905 229.558 213.8 237.841 210.82C246.124 207.84 253.118 202.151 259.435 196.08C256.973 214.898 231.913 224.465 216 216.569C215.414 216.278 210.494 213.214 211.21 212.487Z" fill="#F5F5F5"/>
<path d="M293.267 321.647C293.752 320.92 293.762 319.189 294.024 318.714C294.114 318.546 294.693 318.453 294.894 318.098C296.777 314.779 298.649 311.411 300.803 308.26C307.22 315.201 316.059 319.183 325.421 320.311C325.273 321.838 324.975 321.627 323.746 321.647H319.392C318.611 321.647 317.828 321.647 317.047 321.647C316.937 321.647 316.823 321.647 316.712 321.647C315.711 321.654 314.699 321.614 313.698 321.647C313.329 321.66 312.854 321.547 312.693 321.982C312.278 322.002 311.752 322.025 311.353 321.982C311.32 321.824 311.169 321.66 311.018 321.647C306.389 321.202 300.937 321.818 296.281 321.982C296.234 321.48 295.323 321.48 295.276 321.982C294.72 321.962 294.158 321.995 293.602 321.982L293.267 321.647Z" fill="#FBF8D4"/>
<path d="M274.845 109.355C276.764 109.472 278.519 109.305 280.043 108.022C280.777 107.406 281.44 105.698 282.375 105.678L292.275 111.253C292.289 115.513 291.569 119.715 290.249 123.753C288.685 122.504 285.145 121.523 283.868 120.257C283.021 119.414 282.944 118.104 282.395 117.043C280.857 114.076 278.221 112.941 275.18 112.034L274.845 109.355Z" fill="#F5F5F5"/>
<path d="M135.508 233.583C137.886 241.756 137.889 250.72 134.131 258.488C131.364 264.208 124.977 270.694 118.094 269.411C117.93 268.628 118.198 268.872 118.526 268.661C119.444 268.072 120.536 267.72 121.551 267.007C127.503 262.815 131.947 254.453 132.178 247.161C132.225 245.721 131.669 244.057 131.897 242.875C132.068 241.98 133.14 240.537 133.511 239.452C134.128 237.661 134.429 235.92 134.848 234.085C134.965 233.566 134.623 233.502 135.508 233.583Z" fill="#F5F5F5"/>
<path d="M273.405 117.461C279.795 115.546 282.217 127.748 273.073 125.692C269.999 124.999 270.652 118.288 273.405 117.461Z" fill="#F5F5F5"/>
<path d="M274.423 95.6964C279.065 94.7823 280.787 101.57 276.828 103.803C271.378 106.877 268.18 96.9286 274.423 95.6964Z" fill="#F5F5F5"/>
<path d="M281.209 128.776C281.695 128.351 282.231 127.092 283.048 127.098L287.529 130.015L286.9 132.462C285.064 131.856 283.855 131.438 281.879 131.458L281.209 128.779V128.776Z" fill="#F5F5F5"/>
<path d="M176.374 97.3003L179.395 98.479C178.886 100.16 177.532 101.55 177.375 103.331C176.816 103.616 176.374 102.755 176.374 102.494V97.3037V97.3003Z" fill="#F5F5F5"/>
<path d="M280.204 321.647C279.866 322.196 278.513 322.186 278.194 321.647H280.204Z" fill="#235C57"/>
<path d="M263.457 321.647C263.236 322.176 262.004 322.176 261.783 321.647H263.457Z" fill="#235C57"/>
<path d="M204.508 321.647C204.287 322.176 203.055 322.176 202.833 321.647H204.508Z" fill="#235C57"/>
<path d="M266.137 321.647C265.725 322.106 265.222 322.112 264.797 321.647H266.137Z" fill="#235C57"/>
<path d="M216.566 321.647C216.144 322.116 215.635 322.106 215.226 321.647H216.566Z" fill="#235C57"/>
<path d="M220.585 321.647C220.173 322.106 219.671 322.116 219.246 321.647H220.585Z" fill="#235C57"/>
<path d="M209.197 321.647C208.862 322.052 208.527 322.052 208.192 321.647H209.197Z" fill="#235C57"/>
<path d="M218.576 321.647C218.237 322.052 217.906 322.056 217.571 321.647H218.576Z" fill="#235C57"/>
<path d="M213.217 321.647C212.882 322.052 212.547 322.052 212.212 321.647H213.217Z" fill="#235C57"/>
<path d="M249.055 321.647C248.72 322.052 248.385 322.049 248.05 321.647H249.055Z" fill="#235C57"/>
<path d="M313.698 321.647C313.537 322.086 313.058 321.965 312.693 321.982C312.854 321.547 313.33 321.66 313.698 321.647Z" fill="#235C57"/>
<path d="M296.281 321.982C295.95 321.995 295.608 321.992 295.276 321.982C295.323 321.48 296.234 321.48 296.281 321.982Z" fill="#235C57"/>
<path d="M258.768 321.647C258.433 322.052 258.098 322.052 257.763 321.647H258.768Z" fill="#235C57"/>
<path d="M183.407 321.647C182.891 322.273 182.734 321.781 182.402 321.647H183.407Z" fill="#235C57"/>
<path d="M277.19 321.647C276.858 322.052 276.52 322.049 276.185 321.647H277.19Z" fill="#235C57"/>
<path d="M228.958 321.647L228.553 321.875L228.289 321.647H228.958Z" fill="#235C57"/>
<path d="M232.308 321.647L231.903 321.875L231.638 321.647H232.308Z" fill="#235C57"/>
<path d="M221.925 321.647L221.657 321.878L221.255 321.647H221.925Z" fill="#235C57"/>
<path d="M197.14 321.647L196.734 321.875L196.47 321.647H197.14Z" fill="#235C57"/>
<path d="M195.465 321.647L195.197 321.875L194.795 321.647H195.465Z" fill="#235C57"/>
<path d="M193.455 321.647L193.187 321.875L192.785 321.647H193.455Z" fill="#235C57"/>
<path d="M284.224 321.647C283.952 321.995 283.976 322.096 283.554 321.647H284.224Z" fill="#235C57"/>
<path d="M185.082 321.647L184.677 321.875L184.412 321.647H185.082Z" fill="#235C57"/>
<path d="M203.168 296.199C203.175 295.974 203.162 295.753 203.168 295.529L203.396 295.797L203.168 296.199Z" fill="#235C57"/>
<path d="M274.175 321.647L273.907 321.875L273.505 321.647H274.175Z" fill="#235C57"/>
<path d="M311.353 321.982C311.199 321.965 311.055 321.804 311.019 321.647C311.169 321.66 311.32 321.824 311.353 321.982Z" fill="#235C57"/>
<path d="M323.411 321.647H323.746C323.699 321.647 323.569 321.861 323.411 321.647Z" fill="#235C57"/>
<path d="M203.168 303.23V302.896C203.403 303.08 203.235 303.103 203.168 303.23Z" fill="#235C57"/>
<path d="M247.966 166.53C246.248 168.401 244.962 165.806 244.483 165.639C242.838 165.066 241.09 169.342 240.152 170.601C229.19 185.358 201.839 187.97 191.934 170.976C191.603 170.411 191.275 168.897 191.033 168.696C190.742 168.452 189.426 168.375 188.799 168.083C183.755 165.716 187.048 156.521 190.615 156.605C193.184 156.665 191.914 159.25 192.145 160.027C192.387 160.844 196.691 161.865 197.736 162.167C208.383 165.214 221.597 165.13 232.15 161.604C233.283 161.226 237.714 159.444 238.33 158.741C239.77 157.097 235.627 156.739 236.381 154.13C236.729 152.932 239.157 153.086 240.186 153.213C242.785 153.538 246.131 156.149 247.316 158.47C248.16 160.121 249.283 165.093 247.963 166.53H247.966ZM237.998 163.603C226.145 168.12 214.643 169.413 202.1 167.179C199.996 166.804 197.558 165.853 195.612 165.622C195.113 165.562 195.029 165.572 195.12 166.114C195.374 167.631 196.161 168.699 197.123 169.801C204.95 178.798 223.596 177.124 232.743 170.903C235.162 169.259 237.784 166.64 237.995 163.6L237.998 163.603Z" fill="#092C2E"/>
<path d="M211.779 122.816C213.072 122.424 214.211 123.01 214.492 124.332C215.199 127.674 210.122 137.257 208.132 140.264C207.027 141.932 203.644 144.674 204.823 146.703C207.11 150.638 216.204 146.965 215.551 152.349C215.129 155.845 210.266 156.873 207.392 156.528C202.803 155.979 197.039 150.618 197.833 145.702C198.315 142.705 204.263 136.42 206.119 133.229C207.723 130.473 208.732 126.763 210.252 124.302C210.52 123.87 211.321 122.953 211.783 122.812L211.779 122.816Z" fill="#092C2E"/>
<path d="M236.562 121.483C242.008 120.224 243.19 127.148 242.199 131.133C239.891 140.395 230.335 137.552 232.734 127.028C233.139 125.253 234.606 121.935 236.562 121.483Z" fill="#092C2E"/>
<path d="M251.319 114.967C247.156 116.47 247.005 110.939 243.026 109.187C240.253 107.969 236.83 108.816 234.659 107.841C232.492 106.867 232.891 103.595 235.47 102.641C242.751 99.9423 253.751 106.646 251.319 114.97V114.967Z" fill="#092C2E"/>
<path d="M194.015 119.845C200.064 119.745 198.536 136.414 191.972 135.459C186.727 134.696 187.54 119.953 194.015 119.845Z" fill="#092C2E"/>
<path d="M204.076 185.757C205.724 185.562 206.772 186.774 208.454 187.28C210.855 188 213.813 188.251 216.301 187.953C217.751 187.779 221.057 186.302 221.741 186.363C223.656 186.533 222.976 189.212 222.099 190.397C218.626 195.082 212.114 195.584 207.298 192.792C205.121 191.529 201.457 187.997 204.076 185.76V185.757Z" fill="#092C2E"/>
<path d="M193.372 100.736C195.729 100.428 201.638 101.164 201.845 104.171C202.164 108.729 196.594 106.371 193.706 106.763C192.949 106.867 191.834 107.208 191.141 107.547C189.791 108.2 185.497 112.924 184.75 109.181C183.896 104.905 189.697 101.221 193.372 100.739V100.736Z" fill="#092C2E"/>
<path d="M281.808 143.918C286.588 143.429 287.362 150.209 283.383 149.905C282.589 149.844 282.056 149.081 281.447 149.235C280.512 149.473 277.829 153.732 276.312 154.515C273.415 156.012 272.42 154.12 272.859 151.395C273.371 148.224 278.747 144.226 281.812 143.914L281.808 143.918Z" fill="#092C2E"/>
<path d="M237.999 163.603C237.784 166.64 235.162 169.262 232.747 170.906C223.6 177.128 204.954 178.802 197.126 169.804C196.168 168.703 195.378 167.635 195.123 166.118C195.033 165.575 195.116 165.565 195.616 165.626C197.562 165.857 200 166.808 202.103 167.183C214.643 169.416 226.148 168.127 238.002 163.606L237.999 163.603Z" fill="#F5F5F5"/>
</g>
<path d="M24 292L41.8397 388.149H135.333L134.342 405H320.006L318.355 388.149H415.812L432 292H24Z" fill="#AC3420" stroke="#AC3420" stroke-width="6" stroke-linejoin="round"/>
<path d="M20.6631 283.984L38.8236 381.848H133.998L132.989 399H321.992L320.311 381.848H419.521L436 283.984H20.6631Z" fill="#F5F5F5"/>
<path d="M320.311 381.848H419.521L436 283.984H20.6631L38.8236 381.848H133.998" stroke="#092C2E" stroke-width="6" stroke-linejoin="round"/>
<path d="M193.524 269.186L198.232 299.117H258.094L262.803 269.186H193.524Z" fill="#F5F5F5"/>
<path d="M198.232 299.117L193.524 269.186H262.803L258.094 299.117" stroke="#092C2E" stroke-width="6" stroke-linejoin="round"/>
<path d="M136.016 374.113L132.989 399H323.674L320.311 374.113" stroke="#092C2E" stroke-width="6" stroke-linejoin="round"/>
<path d="M211.57 283.316C212.53 283.431 213.361 283.517 214.062 283.574C214.764 283.617 215.344 283.653 215.803 283.682C216.333 283.71 216.777 283.717 217.135 283.703C217.507 283.689 218.016 283.653 218.66 283.596C219.204 283.553 219.921 283.495 220.809 283.424C221.697 283.338 222.807 283.223 224.139 283.08C224.153 283.41 224.16 283.732 224.16 284.047C224.174 284.348 224.189 284.613 224.203 284.842C224.217 285.114 224.225 285.365 224.225 285.594C224.225 285.837 224.21 286.145 224.182 286.518C224.153 286.833 224.103 287.234 224.031 287.721C223.974 288.193 223.881 288.759 223.752 289.418C223.551 288.645 223.358 288.021 223.172 287.549C222.986 287.062 222.814 286.675 222.656 286.389C222.484 286.059 222.312 285.809 222.141 285.637C221.954 285.508 221.732 285.4 221.475 285.314C221.245 285.243 220.952 285.186 220.594 285.143C220.25 285.1 219.842 285.107 219.369 285.164C219.298 287.055 219.247 288.587 219.219 289.762C219.19 290.936 219.169 291.853 219.154 292.512C219.14 293.299 219.133 293.865 219.133 294.209C219.147 294.696 219.226 295.176 219.369 295.648C219.484 296.049 219.67 296.465 219.928 296.895C220.186 297.324 220.558 297.704 221.045 298.033H218.424C218.18 298.033 217.88 298.048 217.521 298.076C217.221 298.105 216.834 298.133 216.361 298.162C215.903 298.191 215.366 298.241 214.75 298.312C214.965 297.94 215.137 297.604 215.266 297.303C215.395 297.002 215.495 296.744 215.566 296.529C215.652 296.271 215.717 296.042 215.76 295.842C215.774 295.555 215.81 294.975 215.867 294.102C215.882 293.743 215.896 293.299 215.91 292.77C215.939 292.24 215.967 291.609 215.996 290.879C216.039 290.148 216.075 289.311 216.104 288.365C216.146 287.406 216.189 286.324 216.232 285.121C215.975 285.049 215.731 285.057 215.502 285.143C215.273 285.214 215.072 285.307 214.9 285.422C214.7 285.565 214.507 285.737 214.32 285.938C214.134 286.181 213.926 286.496 213.697 286.883C213.497 287.212 213.268 287.649 213.01 288.193C212.752 288.723 212.458 289.382 212.129 290.17C212.057 289.339 212.007 288.659 211.979 288.129C211.95 287.585 211.928 287.162 211.914 286.861C211.9 286.503 211.893 286.238 211.893 286.066C211.893 285.909 211.878 285.701 211.85 285.443C211.821 285.229 211.785 284.949 211.742 284.605C211.699 284.247 211.642 283.818 211.57 283.316ZM224.676 282.715C225.005 282.772 225.306 282.815 225.578 282.844C225.85 282.858 226.079 282.872 226.266 282.887C226.48 282.901 226.667 282.908 226.824 282.908C227.039 282.894 227.29 282.872 227.576 282.844C227.82 282.815 228.113 282.779 228.457 282.736C228.815 282.693 229.223 282.636 229.682 282.564C229.467 282.679 229.288 282.794 229.145 282.908C229.001 283.008 228.887 283.116 228.801 283.23C228.701 283.359 228.622 283.481 228.564 283.596C228.493 283.782 228.414 284.169 228.328 284.756C228.242 285.257 228.135 286.002 228.006 286.99C227.891 287.979 227.741 289.318 227.555 291.008C228.07 290.492 228.557 290.105 229.016 289.848C229.488 289.576 229.904 289.382 230.262 289.268C230.677 289.139 231.064 289.074 231.422 289.074C231.866 289.117 232.317 289.26 232.775 289.504C233.248 289.733 233.685 290.005 234.086 290.32C234.501 290.635 234.859 290.972 235.16 291.33C235.475 291.688 235.697 292.003 235.826 292.275C235.912 292.462 235.955 292.705 235.955 293.006C235.955 293.292 235.926 293.607 235.869 293.951C235.812 294.295 235.733 294.646 235.633 295.004C235.533 295.362 235.432 295.699 235.332 296.014C235.246 296.329 235.167 296.608 235.096 296.852C235.024 297.081 234.981 297.245 234.967 297.346C234.938 297.561 234.952 297.768 235.01 297.969C235.053 298.141 235.139 298.327 235.268 298.527C235.396 298.714 235.59 298.871 235.848 299C235.647 298.971 235.432 298.95 235.203 298.936C234.988 298.907 234.781 298.885 234.58 298.871C234.351 298.857 234.122 298.85 233.893 298.85H233.119C232.876 298.85 232.596 298.857 232.281 298.871C231.966 298.871 231.622 298.878 231.25 298.893C231.451 298.821 231.622 298.728 231.766 298.613C231.909 298.484 232.031 298.363 232.131 298.248C232.245 298.119 232.346 297.983 232.432 297.84C232.489 297.725 232.561 297.51 232.646 297.195C232.732 296.866 232.811 296.493 232.883 296.078C232.954 295.648 233.005 295.197 233.033 294.725C233.076 294.252 233.083 293.801 233.055 293.371C233.04 292.927 232.976 292.533 232.861 292.189C232.761 291.846 232.604 291.595 232.389 291.438C231.744 290.951 231.157 290.714 230.627 290.729C230.111 290.729 229.617 290.936 229.145 291.352C228.973 291.509 228.808 291.667 228.65 291.824C228.507 291.967 228.35 292.139 228.178 292.34C228.006 292.526 227.848 292.719 227.705 292.92C227.705 293.135 227.712 293.371 227.727 293.629C227.741 293.887 227.755 294.137 227.77 294.381C227.784 294.653 227.805 294.925 227.834 295.197C227.863 295.613 227.906 296.021 227.963 296.422C228.006 296.766 228.063 297.145 228.135 297.561C228.206 297.962 228.299 298.327 228.414 298.656C228.228 298.628 228.035 298.62 227.834 298.635C227.633 298.635 227.44 298.635 227.254 298.635C227.039 298.649 226.831 298.656 226.631 298.656C226.445 298.671 226.251 298.692 226.051 298.721C225.879 298.749 225.693 298.778 225.492 298.807C225.292 298.821 225.098 298.85 224.912 298.893C225.084 298.563 225.227 298.241 225.342 297.926C225.456 297.596 225.549 297.31 225.621 297.066C225.707 296.78 225.779 296.501 225.836 296.229C225.879 296.014 225.908 295.605 225.922 295.004C225.951 294.388 225.972 293.686 225.986 292.898C226.001 292.096 226.008 291.251 226.008 290.363C226.008 289.475 226.001 288.63 225.986 287.828C225.972 287.026 225.943 286.324 225.9 285.723C225.872 285.121 225.836 284.706 225.793 284.477C225.736 284.247 225.657 284.018 225.557 283.789C225.471 283.589 225.356 283.395 225.213 283.209C225.07 283.008 224.891 282.844 224.676 282.715ZM242.615 295.541C243.016 295.541 243.389 295.498 243.732 295.412C244.019 295.34 244.291 295.226 244.549 295.068C244.821 294.896 245 294.646 245.086 294.316C245.372 294.374 245.616 294.424 245.816 294.467C246.017 294.495 246.189 294.524 246.332 294.553C246.49 294.596 246.626 294.624 246.74 294.639C246.855 294.667 246.991 294.696 247.148 294.725C247.292 294.753 247.464 294.789 247.664 294.832C247.879 294.861 248.13 294.904 248.416 294.961C248.201 294.932 247.979 294.954 247.75 295.025C247.535 295.097 247.327 295.176 247.127 295.262C246.898 295.362 246.683 295.484 246.482 295.627C246.354 295.713 246.203 295.842 246.031 296.014C245.874 296.186 245.645 296.35 245.344 296.508C245.043 296.665 244.642 296.801 244.141 296.916C243.654 297.016 243.023 297.052 242.25 297.023C241.319 296.995 240.538 296.83 239.908 296.529C239.278 296.214 238.77 295.835 238.383 295.391C237.996 294.932 237.717 294.438 237.545 293.908C237.373 293.378 237.28 292.884 237.266 292.426C237.251 291.967 237.387 291.488 237.674 290.986C237.96 290.485 238.361 290.027 238.877 289.611C239.407 289.196 240.044 288.859 240.789 288.602C241.534 288.329 242.35 288.193 243.238 288.193C243.754 288.193 244.227 288.258 244.656 288.387C245.1 288.501 245.501 288.659 245.859 288.859C246.232 289.06 246.554 289.289 246.826 289.547C247.098 289.79 247.327 290.041 247.514 290.299C247.7 290.571 247.857 290.857 247.986 291.158C248.101 291.416 248.194 291.71 248.266 292.039C248.337 292.368 248.359 292.705 248.33 293.049C247.242 293.077 246.361 293.099 245.688 293.113C245.029 293.128 244.513 293.135 244.141 293.135H243.174H242.443C242.186 293.135 241.849 293.142 241.434 293.156C241.018 293.171 240.51 293.192 239.908 293.221C239.98 293.794 240.159 294.238 240.445 294.553C240.746 294.854 241.061 295.083 241.391 295.24C241.763 295.412 242.171 295.512 242.615 295.541ZM240.682 291.674C241.14 291.702 241.52 291.724 241.82 291.738C242.135 291.753 242.393 291.767 242.594 291.781C242.809 291.796 242.98 291.803 243.109 291.803H243.646C244.005 291.803 244.671 291.781 245.645 291.738C245.602 291.108 245.465 290.628 245.236 290.299C245.021 289.969 244.792 289.726 244.549 289.568C244.262 289.396 243.947 289.296 243.604 289.268C242.673 289.282 241.978 289.475 241.52 289.848C241.076 290.22 240.796 290.829 240.682 291.674Z" fill="black"/>
<path d="M167.188 378.5C167.344 378.552 167.469 378.646 167.562 378.781C167.656 378.906 167.703 379.047 167.703 379.203C167.714 379.359 167.672 379.516 167.578 379.672C167.495 379.818 167.359 379.943 167.172 380.047C166.87 380.203 166.604 380.245 166.375 380.172C166.146 380.089 165.984 379.964 165.891 379.797C165.839 379.714 165.797 379.599 165.766 379.453C165.745 379.307 165.734 379.156 165.734 379C165.745 378.833 165.766 378.672 165.797 378.516C165.828 378.359 165.875 378.229 165.938 378.125C165.99 378.052 166.052 377.974 166.125 377.891C166.188 377.818 166.26 377.745 166.344 377.672C166.438 377.599 166.542 377.531 166.656 377.469L167.203 377.5C167.13 377.583 167.062 377.661 167 377.734C166.948 377.797 166.901 377.854 166.859 377.906C166.818 377.958 166.776 378.005 166.734 378.047C166.661 378.12 166.604 378.193 166.562 378.266C166.521 378.328 166.484 378.396 166.453 378.469C166.432 378.542 166.432 378.615 166.453 378.688C166.589 378.542 166.745 378.469 166.922 378.469C167.005 378.469 167.094 378.479 167.188 378.5ZM165.031 378.578C165.177 378.661 165.281 378.776 165.344 378.922C165.417 379.057 165.443 379.203 165.422 379.359C165.401 379.516 165.333 379.661 165.219 379.797C165.115 379.932 164.958 380.036 164.75 380.109C164.427 380.214 164.161 380.208 163.953 380.094C163.745 379.969 163.604 379.818 163.531 379.641C163.5 379.547 163.484 379.427 163.484 379.281C163.484 379.135 163.5 378.984 163.531 378.828C163.562 378.672 163.604 378.521 163.656 378.375C163.708 378.229 163.776 378.109 163.859 378.016C163.922 377.943 163.995 377.875 164.078 377.812C164.151 377.76 164.234 377.703 164.328 377.641C164.432 377.578 164.547 377.521 164.672 377.469L165.219 377.609C165.135 377.682 165.057 377.745 164.984 377.797C164.922 377.849 164.865 377.896 164.812 377.938C164.76 377.979 164.708 378.021 164.656 378.062C164.583 378.125 164.521 378.188 164.469 378.25C164.417 378.302 164.37 378.365 164.328 378.438C164.286 378.5 164.271 378.568 164.281 378.641C164.365 378.578 164.448 378.542 164.531 378.531C164.625 378.51 164.708 378.505 164.781 378.516C164.865 378.526 164.948 378.547 165.031 378.578ZM170.908 377.594C171.605 377.677 172.21 377.74 172.72 377.781C173.23 377.812 173.652 377.839 173.986 377.859C174.371 377.88 174.694 377.885 174.954 377.875C175.225 377.865 175.595 377.839 176.064 377.797C176.46 377.766 176.98 377.724 177.626 377.672C178.272 377.609 179.079 377.526 180.048 377.422C180.059 377.661 180.064 377.896 180.064 378.125C180.074 378.344 180.085 378.536 180.095 378.703C180.105 378.901 180.111 379.083 180.111 379.25C180.111 379.427 180.1 379.651 180.079 379.922C180.059 380.151 180.022 380.443 179.97 380.797C179.928 381.141 179.861 381.552 179.767 382.031C179.621 381.469 179.48 381.016 179.345 380.672C179.21 380.318 179.085 380.036 178.97 379.828C178.845 379.589 178.72 379.406 178.595 379.281C178.46 379.188 178.298 379.109 178.111 379.047C177.944 378.995 177.73 378.953 177.47 378.922C177.22 378.891 176.923 378.896 176.579 378.938C176.527 380.312 176.491 381.427 176.47 382.281C176.449 383.135 176.434 383.802 176.423 384.281C176.413 384.854 176.408 385.266 176.408 385.516C176.418 385.87 176.475 386.219 176.579 386.562C176.663 386.854 176.798 387.156 176.986 387.469C177.173 387.781 177.444 388.057 177.798 388.297H175.892C175.715 388.297 175.496 388.307 175.236 388.328C175.017 388.349 174.736 388.37 174.392 388.391C174.059 388.411 173.668 388.448 173.22 388.5C173.376 388.229 173.501 387.984 173.595 387.766C173.689 387.547 173.762 387.359 173.814 387.203C173.876 387.016 173.923 386.849 173.954 386.703C173.965 386.495 173.991 386.073 174.033 385.438C174.043 385.177 174.053 384.854 174.064 384.469C174.085 384.083 174.105 383.625 174.126 383.094C174.158 382.562 174.184 381.953 174.204 381.266C174.236 380.568 174.267 379.781 174.298 378.906C174.111 378.854 173.934 378.859 173.767 378.922C173.6 378.974 173.454 379.042 173.329 379.125C173.184 379.229 173.043 379.354 172.908 379.5C172.772 379.677 172.621 379.906 172.454 380.188C172.309 380.427 172.142 380.745 171.954 381.141C171.767 381.526 171.553 382.005 171.314 382.578C171.262 381.974 171.225 381.479 171.204 381.094C171.184 380.698 171.168 380.391 171.158 380.172C171.147 379.911 171.142 379.719 171.142 379.594C171.142 379.479 171.131 379.328 171.111 379.141C171.09 378.984 171.064 378.781 171.033 378.531C171.001 378.271 170.96 377.958 170.908 377.594ZM188.221 377.219C188.784 377.24 189.351 377.344 189.924 377.531C190.508 377.708 191.044 378 191.534 378.406C192.023 378.802 192.44 379.318 192.784 379.953C193.128 380.578 193.341 381.344 193.424 382.25C193.497 382.99 193.404 383.724 193.143 384.453C192.893 385.172 192.544 385.833 192.096 386.438C191.648 387.042 191.133 387.557 190.549 387.984C189.966 388.401 189.383 388.677 188.799 388.812C188.445 388.896 188.055 388.906 187.628 388.844C187.211 388.771 186.784 388.641 186.346 388.453C185.919 388.255 185.497 388.005 185.081 387.703C184.674 387.401 184.305 387.057 183.971 386.672C183.638 386.276 183.357 385.849 183.128 385.391C182.909 384.932 182.773 384.453 182.721 383.953C182.669 383.536 182.664 383.078 182.706 382.578C182.758 382.068 182.857 381.562 183.003 381.062C183.159 380.552 183.372 380.062 183.643 379.594C183.924 379.115 184.279 378.698 184.706 378.344C185.133 377.979 185.633 377.698 186.206 377.5C186.789 377.292 187.461 377.198 188.221 377.219ZM185.424 383.547C185.279 384.661 185.383 385.557 185.737 386.234C186.101 386.911 186.648 387.323 187.378 387.469C187.732 387.542 188.07 387.469 188.393 387.25C188.726 387.021 189.029 386.693 189.299 386.266C189.57 385.839 189.805 385.339 190.003 384.766C190.2 384.193 190.346 383.594 190.44 382.969C190.534 382.344 190.539 381.781 190.456 381.281C190.383 380.771 190.253 380.339 190.065 379.984C189.878 379.62 189.648 379.339 189.378 379.141C189.117 378.943 188.846 378.833 188.565 378.812C188.075 378.781 187.648 378.911 187.284 379.203C186.919 379.484 186.612 379.854 186.362 380.312C186.112 380.771 185.909 381.286 185.753 381.859C185.607 382.432 185.497 382.995 185.424 383.547ZM204.005 377.859C204.37 377.911 204.687 377.953 204.958 377.984C205.229 378.016 205.453 378.042 205.63 378.062C205.838 378.083 206.015 378.099 206.161 378.109C206.328 378.13 206.531 378.12 206.771 378.078C207.021 378.036 207.286 377.995 207.568 377.953C207.849 377.901 208.14 377.859 208.443 377.828C208.745 377.797 209.036 377.797 209.318 377.828C209.505 377.849 209.745 377.891 210.036 377.953C210.328 378.016 210.635 378.115 210.958 378.25C211.291 378.385 211.625 378.562 211.958 378.781C212.291 379 212.594 379.276 212.864 379.609C213.135 379.943 213.359 380.339 213.536 380.797C213.713 381.255 213.812 381.792 213.833 382.406C213.864 383.323 213.781 384.156 213.583 384.906C213.385 385.656 213.078 386.297 212.661 386.828C212.255 387.359 211.739 387.776 211.114 388.078C210.489 388.38 209.76 388.547 208.927 388.578C208.291 388.63 207.666 388.677 207.052 388.719C206.791 388.74 206.515 388.755 206.224 388.766C205.943 388.776 205.661 388.786 205.38 388.797C205.099 388.797 204.828 388.792 204.568 388.781C204.307 388.771 204.068 388.755 203.849 388.734C204.088 388.62 204.281 388.505 204.427 388.391C204.583 388.276 204.703 388.177 204.786 388.094C204.88 387.99 204.948 387.896 204.989 387.812C205.01 387.698 205.041 387.474 205.083 387.141C205.114 386.859 205.156 386.458 205.208 385.938C205.26 385.417 205.323 384.708 205.396 383.812L205.489 382.703C205.541 382.016 205.562 381.453 205.552 381.016C205.552 380.578 205.541 380.234 205.521 379.984C205.489 379.693 205.448 379.479 205.396 379.344C205.354 379.229 205.276 379.094 205.161 378.938C205.057 378.812 204.911 378.661 204.724 378.484C204.547 378.297 204.307 378.089 204.005 377.859ZM207.302 383.609C207.323 384.536 207.37 385.25 207.443 385.75C207.526 386.24 207.614 386.604 207.708 386.844C207.823 387.115 207.948 387.276 208.083 387.328C208.281 387.328 208.505 387.245 208.755 387.078C209.005 386.901 209.25 386.635 209.489 386.281C209.739 385.927 209.963 385.484 210.161 384.953C210.37 384.422 210.521 383.802 210.614 383.094C210.708 382.385 210.682 381.76 210.536 381.219C210.39 380.677 210.198 380.224 209.958 379.859C209.719 379.484 209.474 379.203 209.224 379.016C208.974 378.818 208.786 378.719 208.661 378.719C208.515 378.719 208.385 378.76 208.271 378.844C208.156 378.917 207.995 379.089 207.786 379.359C207.682 379.505 207.588 379.714 207.505 379.984C207.432 380.224 207.37 380.542 207.318 380.938C207.265 381.333 207.25 381.844 207.271 382.469L207.302 383.609ZM222.897 377.219C223.459 377.24 224.027 377.344 224.6 377.531C225.183 377.708 225.72 378 226.209 378.406C226.699 378.802 227.116 379.318 227.459 379.953C227.803 380.578 228.017 381.344 228.1 382.25C228.173 382.99 228.079 383.724 227.819 384.453C227.569 385.172 227.22 385.833 226.772 386.438C226.324 387.042 225.808 387.557 225.225 387.984C224.642 388.401 224.058 388.677 223.475 388.812C223.121 388.896 222.73 388.906 222.303 388.844C221.886 388.771 221.459 388.641 221.022 388.453C220.595 388.255 220.173 388.005 219.756 387.703C219.35 387.401 218.98 387.057 218.647 386.672C218.314 386.276 218.032 385.849 217.803 385.391C217.584 384.932 217.449 384.453 217.397 383.953C217.345 383.536 217.34 383.078 217.381 382.578C217.433 382.068 217.532 381.562 217.678 381.062C217.834 380.552 218.048 380.062 218.319 379.594C218.6 379.115 218.954 378.698 219.381 378.344C219.808 377.979 220.308 377.698 220.881 377.5C221.465 377.292 222.136 377.198 222.897 377.219ZM220.1 383.547C219.954 384.661 220.058 385.557 220.412 386.234C220.777 386.911 221.324 387.323 222.053 387.469C222.407 387.542 222.746 387.469 223.069 387.25C223.402 387.021 223.704 386.693 223.975 386.266C224.246 385.839 224.48 385.339 224.678 384.766C224.876 384.193 225.022 383.594 225.116 382.969C225.209 382.344 225.215 381.781 225.131 381.281C225.058 380.771 224.928 380.339 224.741 379.984C224.553 379.62 224.324 379.339 224.053 379.141C223.793 378.943 223.522 378.833 223.241 378.812C222.751 378.781 222.324 378.911 221.959 379.203C221.595 379.484 221.287 379.854 221.037 380.312C220.787 380.771 220.584 381.286 220.428 381.859C220.282 382.432 220.173 382.995 220.1 383.547ZM232.164 379.172C232.007 379.12 231.882 379.031 231.789 378.906C231.695 378.771 231.643 378.625 231.632 378.469C231.632 378.312 231.674 378.161 231.757 378.016C231.851 377.859 231.992 377.729 232.179 377.625C232.481 377.458 232.742 377.417 232.961 377.5C233.19 377.583 233.356 377.708 233.461 377.875C233.513 377.958 233.549 378.073 233.57 378.219C233.601 378.354 233.612 378.505 233.601 378.672C233.601 378.828 233.586 378.984 233.554 379.141C233.523 379.297 233.476 379.427 233.414 379.531C233.362 379.615 233.299 379.698 233.226 379.781C233.164 379.854 233.086 379.927 232.992 380C232.909 380.073 232.81 380.141 232.695 380.203L232.132 380.156C232.205 380.073 232.273 380 232.336 379.938C232.398 379.865 232.45 379.802 232.492 379.75C232.534 379.698 232.575 379.651 232.617 379.609C232.679 379.536 232.731 379.464 232.773 379.391C232.815 379.328 232.851 379.266 232.882 379.203C232.914 379.13 232.919 379.057 232.898 378.984C232.815 379.068 232.731 379.125 232.648 379.156C232.565 379.188 232.487 379.203 232.414 379.203C232.33 379.214 232.247 379.203 232.164 379.172ZM234.32 379.078C234.174 379.005 234.065 378.901 233.992 378.766C233.929 378.62 233.909 378.469 233.929 378.312C233.95 378.156 234.013 378.01 234.117 377.875C234.221 377.74 234.377 377.635 234.586 377.562C234.909 377.448 235.174 377.453 235.382 377.578C235.591 377.703 235.737 377.854 235.82 378.031C235.851 378.125 235.867 378.245 235.867 378.391C235.867 378.536 235.851 378.688 235.82 378.844C235.789 379 235.742 379.151 235.679 379.297C235.627 379.443 235.565 379.562 235.492 379.656C235.429 379.729 235.356 379.797 235.273 379.859C235.2 379.911 235.112 379.969 235.007 380.031C234.914 380.094 234.804 380.146 234.679 380.188L234.132 380.062C234.216 379.99 234.289 379.927 234.351 379.875C234.424 379.812 234.487 379.76 234.539 379.719C234.591 379.677 234.643 379.641 234.695 379.609C234.768 379.547 234.83 379.484 234.882 379.422C234.935 379.37 234.976 379.312 235.007 379.25C235.049 379.177 235.07 379.099 235.07 379.016C234.987 379.089 234.898 379.135 234.804 379.156C234.721 379.167 234.643 379.167 234.57 379.156C234.487 379.146 234.403 379.12 234.32 379.078ZM249.76 378.422C250.281 378.453 250.718 378.479 251.073 378.5C251.437 378.51 251.739 378.521 251.979 378.531C252.25 378.542 252.479 378.542 252.666 378.531C252.854 378.521 253.109 378.495 253.432 378.453C253.703 378.422 254.062 378.375 254.51 378.312C254.968 378.24 255.536 378.146 256.213 378.031C255.974 378.271 255.786 378.49 255.651 378.688C255.526 378.875 255.427 379.036 255.354 379.172C255.27 379.339 255.213 379.479 255.182 379.594C255.161 379.698 255.182 379.958 255.244 380.375C255.307 380.792 255.395 381.286 255.51 381.859C255.625 382.422 255.75 383.026 255.885 383.672C256.02 384.307 256.156 384.906 256.291 385.469C256.427 386.021 256.546 386.495 256.651 386.891C256.765 387.276 256.849 387.505 256.901 387.578C257.057 387.797 257.156 387.943 257.198 388.016C257.239 388.078 257.312 388.135 257.416 388.188C257.458 388.208 257.526 388.24 257.619 388.281C257.703 388.323 257.812 388.375 257.948 388.438C258.093 388.5 258.276 388.573 258.494 388.656C258.088 388.677 257.739 388.693 257.448 388.703C257.156 388.703 256.916 388.708 256.729 388.719C256.51 388.729 256.323 388.74 256.166 388.75C256.01 388.75 255.823 388.76 255.604 388.781C255.416 388.802 255.171 388.823 254.869 388.844C254.578 388.865 254.234 388.885 253.838 388.906C254.046 388.76 254.213 388.63 254.338 388.516C254.474 388.391 254.578 388.286 254.651 388.203C254.734 388.099 254.791 388.005 254.823 387.922C254.843 387.828 254.859 387.688 254.869 387.5C254.88 387.333 254.88 387.115 254.869 386.844C254.859 386.562 254.833 386.198 254.791 385.75L250.682 386.172C250.578 386.349 250.5 386.505 250.448 386.641C250.395 386.766 250.359 386.875 250.338 386.969C250.307 387.083 250.296 387.177 250.307 387.25C250.328 387.333 250.364 387.432 250.416 387.547C250.468 387.651 250.541 387.776 250.635 387.922C250.739 388.057 250.89 388.219 251.088 388.406C250.828 388.396 250.562 388.391 250.291 388.391C250.02 388.391 249.77 388.396 249.541 388.406C249.27 388.417 249.005 388.427 248.744 388.438C248.484 388.448 248.187 388.464 247.854 388.484C247.573 388.505 247.244 388.531 246.869 388.562C246.484 388.583 246.073 388.615 245.635 388.656C245.906 388.531 246.135 388.406 246.323 388.281C246.51 388.146 246.666 388.021 246.791 387.906C246.937 387.781 247.062 387.661 247.166 387.547C247.239 387.443 247.385 387.203 247.604 386.828C247.823 386.443 248.067 385.99 248.338 385.469C248.619 384.948 248.911 384.391 249.213 383.797C249.526 383.203 249.807 382.646 250.057 382.125C250.307 381.594 250.51 381.135 250.666 380.75C250.823 380.365 250.901 380.115 250.901 380C250.88 379.865 250.828 379.714 250.744 379.547C250.671 379.401 250.557 379.234 250.401 379.047C250.255 378.859 250.041 378.651 249.76 378.422ZM254.604 384.594C254.541 384.229 254.484 383.917 254.432 383.656C254.38 383.385 254.338 383.161 254.307 382.984C254.265 382.776 254.234 382.594 254.213 382.438C254.182 382.292 254.145 382.104 254.104 381.875C254.062 381.677 254.01 381.432 253.948 381.141C253.895 380.839 253.828 380.479 253.744 380.062C253.151 381.25 252.687 382.172 252.354 382.828C252.031 383.474 251.796 383.948 251.651 384.25C251.474 384.604 251.375 384.812 251.354 384.875L254.604 384.594ZM259.839 377.812C260.235 377.906 260.589 377.979 260.902 378.031C261.225 378.073 261.496 378.104 261.714 378.125C261.975 378.156 262.204 378.167 262.402 378.156C262.652 378.146 262.964 378.109 263.339 378.047C263.714 377.984 264.11 377.922 264.527 377.859C264.944 377.797 265.355 377.745 265.761 377.703C266.168 377.661 266.522 377.656 266.824 377.688C267.126 377.719 267.444 377.792 267.777 377.906C268.11 378.01 268.423 378.156 268.714 378.344C269.006 378.521 269.256 378.74 269.464 379C269.683 379.26 269.819 379.562 269.871 379.906C269.923 380.24 269.891 380.599 269.777 380.984C269.662 381.359 269.48 381.729 269.23 382.094C268.98 382.448 268.668 382.776 268.293 383.078C267.918 383.38 267.501 383.625 267.043 383.812C266.678 383.948 266.282 384.052 265.855 384.125C265.49 384.188 265.063 384.229 264.574 384.25C264.095 384.26 263.584 384.208 263.043 384.094C262.97 384.396 262.928 384.677 262.918 384.938C262.918 385.188 262.928 385.411 262.949 385.609C262.98 385.839 263.022 386.047 263.074 386.234C263.136 386.422 263.214 386.641 263.308 386.891C263.391 387.099 263.485 387.354 263.589 387.656C263.704 387.948 263.839 388.276 263.996 388.641C263.808 388.641 263.626 388.646 263.449 388.656C263.272 388.656 263.11 388.661 262.964 388.672C262.798 388.682 262.641 388.693 262.496 388.703C262.329 388.714 262.141 388.734 261.933 388.766C261.756 388.786 261.532 388.818 261.261 388.859C261.001 388.901 260.704 388.953 260.371 389.016C260.589 388.703 260.761 388.417 260.886 388.156C261.022 387.885 261.121 387.651 261.183 387.453C261.256 387.224 261.303 387.016 261.324 386.828C261.334 386.672 261.334 386.396 261.324 386C261.324 385.604 261.319 385.146 261.308 384.625C261.298 384.104 261.282 383.557 261.261 382.984C261.24 382.411 261.214 381.875 261.183 381.375C261.152 380.865 261.115 380.427 261.074 380.062C261.043 379.698 261.011 379.458 260.98 379.344C260.938 379.208 260.865 379.062 260.761 378.906C260.678 378.771 260.558 378.615 260.402 378.438C260.256 378.25 260.069 378.042 259.839 377.812ZM263.074 380.891C263.063 380.995 263.058 381.104 263.058 381.219C263.058 381.438 263.074 381.719 263.105 382.062C263.178 382.24 263.266 382.385 263.371 382.5C263.485 382.615 263.605 382.703 263.73 382.766C263.865 382.828 264.001 382.87 264.136 382.891C264.272 382.911 264.407 382.922 264.543 382.922C264.855 382.911 265.183 382.839 265.527 382.703C265.985 382.505 266.308 382.224 266.496 381.859C266.683 381.495 266.782 381.12 266.793 380.734C266.803 380.349 266.735 379.995 266.589 379.672C266.454 379.349 266.287 379.13 266.089 379.016C265.923 378.943 265.709 378.911 265.449 378.922C265.22 378.932 264.933 378.99 264.589 379.094C264.246 379.198 263.824 379.385 263.324 379.656C263.272 379.844 263.23 380.01 263.199 380.156C263.168 380.302 263.141 380.432 263.121 380.547C263.1 380.672 263.084 380.786 263.074 380.891ZM271.887 377.812C272.283 377.906 272.637 377.979 272.95 378.031C273.273 378.073 273.544 378.104 273.762 378.125C274.023 378.156 274.252 378.167 274.45 378.156C274.7 378.146 275.012 378.109 275.387 378.047C275.762 377.984 276.158 377.922 276.575 377.859C276.992 377.797 277.403 377.745 277.809 377.703C278.216 377.661 278.57 377.656 278.872 377.688C279.174 377.719 279.492 377.792 279.825 377.906C280.158 378.01 280.471 378.156 280.762 378.344C281.054 378.521 281.304 378.74 281.512 379C281.731 379.26 281.867 379.562 281.919 379.906C281.971 380.24 281.94 380.599 281.825 380.984C281.71 381.359 281.528 381.729 281.278 382.094C281.028 382.448 280.716 382.776 280.341 383.078C279.966 383.38 279.549 383.625 279.091 383.812C278.726 383.948 278.33 384.052 277.903 384.125C277.539 384.188 277.111 384.229 276.622 384.25C276.143 384.26 275.632 384.208 275.091 384.094C275.018 384.396 274.976 384.677 274.966 384.938C274.966 385.188 274.976 385.411 274.997 385.609C275.028 385.839 275.07 386.047 275.122 386.234C275.184 386.422 275.262 386.641 275.356 386.891C275.44 387.099 275.533 387.354 275.637 387.656C275.752 387.948 275.887 388.276 276.044 388.641C275.856 388.641 275.674 388.646 275.497 388.656C275.32 388.656 275.158 388.661 275.012 388.672C274.846 388.682 274.69 388.693 274.544 388.703C274.377 388.714 274.19 388.734 273.981 388.766C273.804 388.786 273.58 388.818 273.309 388.859C273.049 388.901 272.752 388.953 272.419 389.016C272.637 388.703 272.809 388.417 272.934 388.156C273.07 387.885 273.169 387.651 273.231 387.453C273.304 387.224 273.351 387.016 273.372 386.828C273.382 386.672 273.382 386.396 273.372 386C273.372 385.604 273.367 385.146 273.356 384.625C273.346 384.104 273.33 383.557 273.309 382.984C273.289 382.411 273.262 381.875 273.231 381.375C273.2 380.865 273.164 380.427 273.122 380.062C273.091 379.698 273.059 379.458 273.028 379.344C272.986 379.208 272.914 379.062 272.809 378.906C272.726 378.771 272.606 378.615 272.45 378.438C272.304 378.25 272.117 378.042 271.887 377.812ZM275.122 380.891C275.111 380.995 275.106 381.104 275.106 381.219C275.106 381.438 275.122 381.719 275.153 382.062C275.226 382.24 275.315 382.385 275.419 382.5C275.533 382.615 275.653 382.703 275.778 382.766C275.914 382.828 276.049 382.87 276.184 382.891C276.32 382.911 276.455 382.922 276.591 382.922C276.903 382.911 277.231 382.839 277.575 382.703C278.033 382.505 278.356 382.224 278.544 381.859C278.731 381.495 278.83 381.12 278.841 380.734C278.851 380.349 278.783 379.995 278.637 379.672C278.502 379.349 278.335 379.13 278.137 379.016C277.971 378.943 277.757 378.911 277.497 378.922C277.268 378.932 276.981 378.99 276.637 379.094C276.294 379.198 275.872 379.385 275.372 379.656C275.32 379.844 275.278 380.01 275.247 380.156C275.216 380.302 275.19 380.432 275.169 380.547C275.148 380.672 275.132 380.786 275.122 380.891Z" fill="black"/>
<path d="M48.0234 316.355C50.2044 316.616 52.0924 316.811 53.6875 316.941C55.2826 317.039 56.6009 317.12 57.6426 317.186C58.847 317.251 59.8561 317.267 60.6699 317.234C61.5163 317.202 62.6719 317.12 64.1367 316.99C65.3737 316.893 67.0013 316.762 69.0195 316.6C71.0378 316.404 73.5605 316.144 76.5879 315.818C76.6204 316.567 76.6367 317.299 76.6367 318.016C76.6693 318.699 76.7018 319.301 76.7344 319.822C76.7669 320.441 76.7832 321.01 76.7832 321.531C76.7832 322.085 76.7507 322.785 76.6855 323.631C76.6204 324.347 76.5065 325.258 76.3438 326.365C76.2135 327.439 76.002 328.725 75.709 330.223C75.2533 328.465 74.8138 327.049 74.3906 325.975C73.9674 324.868 73.5768 323.989 73.2188 323.338C72.8281 322.589 72.4375 322.02 72.0469 321.629C71.6237 321.336 71.1191 321.092 70.5332 320.896C70.0124 320.734 69.3451 320.604 68.5312 320.506C67.75 320.408 66.8223 320.424 65.748 320.555C65.5853 324.852 65.4714 328.335 65.4062 331.004C65.3411 333.673 65.2923 335.757 65.2598 337.254C65.2272 339.044 65.2109 340.33 65.2109 341.111C65.2435 342.218 65.4225 343.309 65.748 344.383C66.0085 345.294 66.4316 346.238 67.0176 347.215C67.6035 348.191 68.4499 349.054 69.5566 349.803H63.5996C63.0462 349.803 62.3626 349.835 61.5488 349.9C60.8652 349.965 59.9863 350.031 58.9121 350.096C57.8704 350.161 56.6497 350.275 55.25 350.438C55.7383 349.591 56.1289 348.826 56.4219 348.143C56.7148 347.459 56.9427 346.873 57.1055 346.385C57.3008 345.799 57.4473 345.278 57.5449 344.822C57.5775 344.171 57.6589 342.853 57.7891 340.867C57.8216 340.053 57.8542 339.044 57.8867 337.84C57.9518 336.635 58.0169 335.203 58.082 333.543C58.1797 331.883 58.2611 329.979 58.3262 327.83C58.4238 325.649 58.5215 323.191 58.6191 320.457C58.0332 320.294 57.4798 320.311 56.959 320.506C56.4382 320.669 55.9824 320.88 55.5918 321.141C55.1361 321.466 54.6966 321.857 54.2734 322.312C53.8503 322.866 53.3783 323.582 52.8574 324.461C52.4017 325.21 51.8809 326.202 51.2949 327.439C50.709 328.644 50.0417 330.141 49.293 331.932C49.1302 330.044 49.0163 328.497 48.9512 327.293C48.8861 326.056 48.8372 325.096 48.8047 324.412C48.7721 323.598 48.7559 322.996 48.7559 322.605C48.7559 322.247 48.7233 321.775 48.6582 321.189C48.5931 320.701 48.5117 320.066 48.4141 319.285C48.3164 318.471 48.1862 317.495 48.0234 316.355ZM82.7266 318.943C84.3542 319.041 85.7214 319.122 86.8281 319.188C87.9674 319.22 88.9115 319.253 89.6602 319.285C90.5065 319.318 91.2227 319.318 91.8086 319.285C92.3945 319.253 93.1921 319.171 94.2012 319.041C95.0475 318.943 96.1706 318.797 97.5703 318.602C99.0026 318.374 100.777 318.081 102.893 317.723C102.144 318.471 101.558 319.155 101.135 319.773C100.744 320.359 100.435 320.864 100.207 321.287C99.9466 321.808 99.7676 322.247 99.6699 322.605C99.6048 322.931 99.6699 323.745 99.8652 325.047C100.061 326.349 100.337 327.895 100.695 329.686C101.053 331.443 101.444 333.331 101.867 335.35C102.29 337.335 102.714 339.207 103.137 340.965C103.56 342.69 103.934 344.171 104.26 345.408C104.618 346.613 104.878 347.329 105.041 347.557C105.529 348.24 105.839 348.696 105.969 348.924C106.099 349.119 106.327 349.298 106.652 349.461C106.783 349.526 106.994 349.624 107.287 349.754C107.548 349.884 107.889 350.047 108.312 350.242C108.768 350.438 109.338 350.665 110.021 350.926C108.752 350.991 107.661 351.04 106.75 351.072C105.839 351.072 105.09 351.089 104.504 351.121C103.82 351.154 103.234 351.186 102.746 351.219C102.258 351.219 101.672 351.251 100.988 351.316C100.402 351.382 99.6374 351.447 98.6934 351.512C97.7819 351.577 96.7077 351.642 95.4707 351.707C96.1217 351.251 96.6426 350.844 97.0332 350.486C97.4564 350.096 97.7819 349.77 98.0098 349.51C98.2702 349.184 98.4492 348.891 98.5469 348.631C98.612 348.338 98.6608 347.898 98.6934 347.312C98.7259 346.792 98.7259 346.108 98.6934 345.262C98.6608 344.383 98.5794 343.243 98.4492 341.844L85.6074 343.162C85.2819 343.715 85.0378 344.204 84.875 344.627C84.7122 345.018 84.5983 345.359 84.5332 345.652C84.4355 346.01 84.403 346.303 84.4355 346.531C84.5007 346.792 84.6146 347.101 84.7773 347.459C84.9401 347.785 85.168 348.175 85.4609 348.631C85.7865 349.054 86.2585 349.559 86.877 350.145C86.0632 350.112 85.2331 350.096 84.3867 350.096C83.5404 350.096 82.7591 350.112 82.043 350.145C81.1966 350.177 80.3665 350.21 79.5527 350.242C78.7389 350.275 77.8112 350.324 76.7695 350.389C75.8906 350.454 74.8652 350.535 73.6934 350.633C72.4889 350.698 71.2031 350.796 69.8359 350.926C70.6823 350.535 71.3984 350.145 71.9844 349.754C72.5703 349.331 73.0586 348.94 73.4492 348.582C73.9049 348.191 74.2956 347.817 74.6211 347.459C74.849 347.133 75.3047 346.385 75.9883 345.213C76.6719 344.008 77.4368 342.592 78.2832 340.965C79.1621 339.337 80.0736 337.596 81.0176 335.74C81.9941 333.885 82.873 332.143 83.6543 330.516C84.4355 328.855 85.0703 327.423 85.5586 326.219C86.0469 325.014 86.291 324.233 86.291 323.875C86.2259 323.452 86.0632 322.98 85.8027 322.459C85.5749 322.003 85.2168 321.482 84.7285 320.896C84.2728 320.311 83.6055 319.66 82.7266 318.943ZM97.8633 338.23C97.668 337.091 97.4889 336.115 97.3262 335.301C97.1634 334.454 97.0332 333.755 96.9355 333.201C96.8053 332.55 96.7077 331.98 96.6426 331.492C96.5449 331.036 96.431 330.451 96.3008 329.734C96.1706 329.116 96.0078 328.351 95.8125 327.439C95.6497 326.495 95.4382 325.372 95.1777 324.07C93.3223 327.781 91.8737 330.662 90.832 332.713C89.8229 334.731 89.0905 336.212 88.6348 337.156C88.0814 338.263 87.7721 338.914 87.707 339.109L97.8633 338.23ZM140.623 316.258C140.167 317.299 139.76 318.211 139.402 318.992C139.044 319.773 138.735 320.441 138.475 320.994C138.182 321.613 137.938 322.166 137.742 322.654C137.579 323.012 137.368 323.501 137.107 324.119C136.847 324.673 136.521 325.405 136.131 326.316C135.773 327.195 135.301 328.335 134.715 329.734C134.422 328.53 134.064 327.472 133.641 326.561C133.217 325.649 132.762 324.852 132.273 324.168C131.785 323.484 131.264 322.931 130.711 322.508C130.19 322.052 129.669 321.678 129.148 321.385C127.944 320.734 126.674 320.376 125.34 320.311C123.582 320.408 122.199 320.701 121.189 321.189C120.213 321.645 119.497 322.182 119.041 322.801C118.585 323.387 118.341 324.005 118.309 324.656C118.276 325.275 118.357 325.796 118.553 326.219C118.715 326.609 119.285 327.065 120.262 327.586C121.271 328.107 122.475 328.709 123.875 329.393C125.307 330.044 126.837 330.792 128.465 331.639C130.092 332.452 131.59 333.364 132.957 334.373C134.357 335.35 135.529 336.424 136.473 337.596C137.449 338.735 137.986 339.956 138.084 341.258C138.182 342.918 138.165 344.415 138.035 345.75C137.905 347.085 137.449 348.224 136.668 349.168C135.887 350.112 134.666 350.861 133.006 351.414C131.378 351.967 129.116 352.309 126.219 352.439C123.224 352.57 120.766 352.407 118.846 351.951C116.925 351.495 115.363 350.877 114.158 350.096C112.986 349.314 112.107 348.452 111.521 347.508C110.968 346.564 110.561 345.669 110.301 344.822C110.04 343.943 109.861 343.195 109.764 342.576C109.666 341.925 109.503 341.535 109.275 341.404C109.015 341.242 108.755 341.095 108.494 340.965C108.266 340.835 108.022 340.721 107.762 340.623C107.501 340.493 107.241 340.379 106.98 340.281L121.189 337.986C120.376 338.637 119.741 339.24 119.285 339.793C118.862 340.346 118.536 340.835 118.309 341.258C118.048 341.746 117.869 342.202 117.771 342.625C117.706 343.081 117.853 343.65 118.211 344.334C118.569 345.018 119.057 345.685 119.676 346.336C120.327 346.954 121.076 347.475 121.922 347.898C122.768 348.322 123.647 348.501 124.559 348.436C125.698 348.338 126.626 348.061 127.342 347.605C128.058 347.117 128.595 346.515 128.953 345.799C129.344 345.083 129.572 344.301 129.637 343.455C129.702 342.609 129.62 341.779 129.393 340.965C129.197 340.118 128.872 339.337 128.416 338.621C127.96 337.872 127.423 337.254 126.805 336.766C126.251 336.375 125.389 336.001 124.217 335.643C123.077 335.285 121.792 334.894 120.359 334.471C118.96 334.048 117.511 333.559 116.014 333.006C114.549 332.452 113.214 331.769 112.01 330.955C110.838 330.141 109.894 329.181 109.178 328.074C108.494 326.967 108.234 325.633 108.396 324.07C108.527 322.736 108.95 321.629 109.666 320.75C110.415 319.839 111.342 319.122 112.449 318.602C113.589 318.048 114.842 317.641 116.209 317.381C117.609 317.12 119.025 316.974 120.457 316.941C121.922 316.876 123.354 316.893 124.754 316.99C126.186 317.088 127.472 317.202 128.611 317.332C129.751 317.462 130.711 317.592 131.492 317.723C132.306 317.82 132.811 317.885 133.006 317.918C133.852 317.983 134.699 317.967 135.545 317.869C136.294 317.804 137.107 317.658 137.986 317.43C138.898 317.169 139.777 316.779 140.623 316.258ZM142.514 317.137C143.62 317.299 144.597 317.413 145.443 317.479C146.322 317.544 147.055 317.609 147.641 317.674C148.324 317.739 148.91 317.771 149.398 317.771H151.303C152.572 317.771 154.672 317.723 157.602 317.625C156.885 317.853 156.283 318.178 155.795 318.602C155.339 319.025 154.965 319.464 154.672 319.92C154.314 320.441 154.053 320.978 153.891 321.531C153.695 322.215 153.516 323.126 153.354 324.266C153.191 325.275 153.028 326.593 152.865 328.221C152.735 329.848 152.605 331.883 152.475 334.324C153.874 332.729 155.095 331.313 156.137 330.076C157.211 328.839 158.139 327.749 158.92 326.805C159.701 325.861 160.352 325.047 160.873 324.363C161.426 323.68 161.882 323.094 162.24 322.605C163.087 321.499 163.575 320.75 163.705 320.359C163.738 320.132 163.721 319.855 163.656 319.529C163.591 319.269 163.493 318.96 163.363 318.602C163.233 318.211 163.038 317.788 162.777 317.332C164.079 317.397 165.186 317.446 166.098 317.479C167.042 317.511 167.823 317.544 168.441 317.576C169.158 317.609 169.743 317.625 170.199 317.625H172.25C172.999 317.625 173.975 317.625 175.18 317.625C176.384 317.592 177.898 317.56 179.721 317.527C178.516 317.82 177.377 318.211 176.303 318.699C175.229 319.188 174.268 319.66 173.422 320.115C172.445 320.669 171.534 321.238 170.688 321.824C169.841 322.475 168.897 323.24 167.855 324.119C166.977 324.868 165.951 325.796 164.779 326.902C163.607 327.977 162.338 329.23 160.971 330.662C162.436 333.527 163.705 335.887 164.779 337.742C165.886 339.565 166.814 341.03 167.562 342.137C168.409 343.439 169.125 344.432 169.711 345.115C170.297 345.734 170.98 346.368 171.762 347.02C172.413 347.573 173.227 348.191 174.203 348.875C175.18 349.526 176.303 350.161 177.572 350.779L163.656 351.463C163.852 351.202 163.965 350.893 163.998 350.535C164.063 350.145 164.096 349.786 164.096 349.461C164.096 349.103 164.063 348.712 163.998 348.289C163.868 347.768 163.526 346.922 162.973 345.75C162.517 344.741 161.817 343.325 160.873 341.502C159.929 339.646 158.627 337.205 156.967 334.178L152.816 338.523C152.654 339.565 152.572 340.509 152.572 341.355C152.572 342.202 152.605 342.902 152.67 343.455C152.768 344.139 152.898 344.725 153.061 345.213C153.256 345.701 153.533 346.255 153.891 346.873C154.184 347.426 154.574 348.077 155.062 348.826C155.551 349.575 156.169 350.405 156.918 351.316C156.169 351.121 155.421 350.991 154.672 350.926C153.923 350.828 153.24 350.763 152.621 350.73C151.905 350.698 151.221 350.714 150.57 350.779C149.887 350.844 149.089 350.942 148.178 351.072C147.396 351.202 146.436 351.365 145.297 351.561C144.158 351.756 142.855 352 141.391 352.293C142.107 351.87 142.676 351.414 143.1 350.926C143.523 350.438 143.865 349.965 144.125 349.51C144.418 348.989 144.613 348.484 144.711 347.996C144.776 347.573 144.825 346.661 144.857 345.262C144.923 343.862 144.955 342.234 144.955 340.379C144.988 338.491 144.988 336.505 144.955 334.422C144.923 332.339 144.89 330.385 144.857 328.562C144.825 326.74 144.776 325.193 144.711 323.924C144.678 322.622 144.646 321.824 144.613 321.531C144.516 321.076 144.385 320.587 144.223 320.066C144.06 319.611 143.832 319.139 143.539 318.65C143.279 318.13 142.937 317.625 142.514 317.137ZM175.703 334.08C176.973 334.113 178.128 334.129 179.17 334.129C180.244 334.129 181.172 334.129 181.953 334.129C182.865 334.129 183.695 334.113 184.443 334.08C185.225 334.08 186.217 334.048 187.422 333.982C188.464 333.95 189.766 333.901 191.328 333.836C192.923 333.771 194.86 333.689 197.139 333.592L196.895 338.572C195.072 338.442 193.542 338.361 192.305 338.328C191.1 338.263 190.124 338.214 189.375 338.182C188.496 338.149 187.78 338.149 187.227 338.182C186.673 338.214 185.892 338.263 184.883 338.328C184.036 338.393 182.881 338.475 181.416 338.572C179.984 338.637 178.161 338.751 175.947 338.914L175.703 334.08ZM217.682 315.184C219.439 315.249 221.214 315.574 223.004 316.16C224.827 316.714 226.503 317.625 228.033 318.895C229.563 320.132 230.865 321.743 231.939 323.729C233.014 325.682 233.681 328.074 233.941 330.906C234.169 333.217 233.876 335.512 233.062 337.791C232.281 340.037 231.191 342.104 229.791 343.992C228.391 345.88 226.78 347.492 224.957 348.826C223.134 350.128 221.311 350.991 219.488 351.414C218.382 351.674 217.161 351.707 215.826 351.512C214.524 351.284 213.189 350.877 211.822 350.291C210.488 349.673 209.169 348.891 207.867 347.947C206.598 347.003 205.442 345.929 204.4 344.725C203.359 343.488 202.48 342.153 201.764 340.721C201.08 339.288 200.657 337.791 200.494 336.229C200.331 334.926 200.315 333.494 200.445 331.932C200.608 330.337 200.917 328.758 201.373 327.195C201.861 325.6 202.529 324.07 203.375 322.605C204.254 321.108 205.361 319.806 206.695 318.699C208.03 317.56 209.592 316.681 211.383 316.062C213.206 315.411 215.305 315.118 217.682 315.184ZM208.941 334.959C208.486 338.442 208.811 341.242 209.918 343.357C211.057 345.473 212.766 346.759 215.045 347.215C216.152 347.443 217.21 347.215 218.219 346.531C219.26 345.815 220.204 344.79 221.051 343.455C221.897 342.12 222.63 340.558 223.248 338.768C223.867 336.977 224.322 335.105 224.615 333.152C224.908 331.199 224.924 329.441 224.664 327.879C224.436 326.284 224.029 324.933 223.443 323.826C222.857 322.687 222.141 321.808 221.295 321.189C220.481 320.571 219.635 320.229 218.756 320.164C217.226 320.066 215.891 320.473 214.752 321.385C213.613 322.264 212.652 323.419 211.871 324.852C211.09 326.284 210.455 327.895 209.967 329.686C209.511 331.476 209.169 333.234 208.941 334.959ZM237.248 334.08C238.518 334.113 239.673 334.129 240.715 334.129C241.789 334.129 242.717 334.129 243.498 334.129C244.41 334.129 245.24 334.113 245.988 334.08C246.77 334.08 247.762 334.048 248.967 333.982C250.008 333.95 251.311 333.901 252.873 333.836C254.468 333.771 256.405 333.689 258.684 333.592L258.439 338.572C256.617 338.442 255.087 338.361 253.85 338.328C252.645 338.263 251.669 338.214 250.92 338.182C250.041 338.149 249.325 338.149 248.771 338.182C248.218 338.214 247.437 338.263 246.428 338.328C245.581 338.393 244.426 338.475 242.961 338.572C241.529 338.637 239.706 338.751 237.492 338.914L237.248 334.08ZM260.672 316.99C261.714 317.023 262.625 317.039 263.406 317.039C264.188 317.007 264.822 316.99 265.311 316.99H266.727C267.085 316.958 267.524 316.941 268.045 316.941C268.501 316.941 269.054 316.941 269.705 316.941C270.356 316.941 271.105 316.958 271.951 316.99C272.212 317.902 272.505 318.797 272.83 319.676C273.188 320.522 273.497 321.287 273.758 321.971C274.083 322.785 274.409 323.549 274.734 324.266C275.06 324.982 275.451 325.844 275.906 326.854C276.297 327.7 276.769 328.742 277.322 329.979C277.876 331.183 278.527 332.566 279.275 334.129C279.633 333.12 279.959 332.192 280.252 331.346C280.577 330.499 280.854 329.767 281.082 329.148C281.342 328.432 281.554 327.781 281.717 327.195C281.88 326.609 282.059 325.893 282.254 325.047C282.417 324.331 282.596 323.468 282.791 322.459C283.019 321.45 283.247 320.278 283.475 318.943C284.419 318.943 285.265 318.943 286.014 318.943C286.762 318.943 287.413 318.927 287.967 318.895C288.585 318.895 289.139 318.878 289.627 318.846C290.148 318.846 290.848 318.813 291.727 318.748C292.475 318.683 293.468 318.634 294.705 318.602C295.975 318.536 297.537 318.455 299.393 318.357C298.709 318.846 298.156 319.334 297.732 319.822C297.342 320.278 297.033 320.685 296.805 321.043C296.544 321.466 296.382 321.873 296.316 322.264C296.251 322.589 296.186 323.338 296.121 324.51C296.089 325.682 296.04 327.081 295.975 328.709C295.942 330.304 295.91 332.013 295.877 333.836C295.877 335.659 295.893 337.384 295.926 339.012C295.958 340.639 296.007 342.055 296.072 343.26C296.17 344.432 296.3 345.18 296.463 345.506C296.691 345.896 297 346.352 297.391 346.873C297.749 347.329 298.204 347.85 298.758 348.436C299.344 349.021 300.109 349.673 301.053 350.389C299.555 350.454 298.302 350.503 297.293 350.535C296.316 350.568 295.503 350.6 294.852 350.633C294.103 350.665 293.501 350.682 293.045 350.682C292.557 350.682 291.889 350.698 291.043 350.73C290.294 350.763 289.301 350.812 288.064 350.877C286.827 350.91 285.232 350.975 283.279 351.072C283.735 350.551 284.158 350.031 284.549 349.51C284.939 348.989 285.265 348.517 285.525 348.094C285.851 347.605 286.128 347.133 286.355 346.678C286.583 346.059 286.762 344.936 286.893 343.309C287.023 341.909 287.12 339.907 287.186 337.303C287.251 334.666 287.251 331.134 287.186 326.707C286.567 327.716 286.014 328.725 285.525 329.734C285.07 330.711 284.663 331.606 284.305 332.42C283.914 333.364 283.556 334.275 283.23 335.154C282.905 336.066 282.563 337.075 282.205 338.182C281.88 339.126 281.489 340.249 281.033 341.551C280.61 342.853 280.122 344.285 279.568 345.848L277.713 345.945C277.452 344.643 277.192 343.471 276.932 342.43C276.671 341.355 276.411 340.444 276.15 339.695C275.857 338.816 275.564 338.035 275.271 337.352C274.946 336.668 274.588 335.903 274.197 335.057C273.839 334.34 273.4 333.494 272.879 332.518C272.391 331.541 271.821 330.451 271.17 329.246C270.844 332.566 270.649 335.268 270.584 337.352C270.519 339.402 270.519 340.997 270.584 342.137C270.649 343.504 270.747 344.497 270.877 345.115C271.072 345.669 271.382 346.287 271.805 346.971C272.163 347.557 272.651 348.257 273.27 349.07C273.921 349.852 274.751 350.73 275.76 351.707C275.044 351.707 274.295 351.707 273.514 351.707C272.732 351.707 272.016 351.723 271.365 351.756C270.584 351.788 269.819 351.805 269.07 351.805C268.289 351.837 267.378 351.886 266.336 351.951C265.424 352.016 264.334 352.081 263.064 352.146C261.795 352.212 260.33 352.326 258.67 352.488C259.386 352.033 259.972 351.593 260.428 351.17C260.883 350.714 261.242 350.307 261.502 349.949C261.827 349.526 262.072 349.103 262.234 348.68C262.332 348.419 262.413 347.85 262.479 346.971C262.576 346.092 262.658 345.018 262.723 343.748C262.82 342.479 262.885 341.062 262.918 339.5C262.983 337.938 263.032 336.359 263.064 334.764C263.13 333.136 263.178 331.557 263.211 330.027C263.243 328.465 263.26 327.065 263.26 325.828C263.292 324.559 263.309 323.501 263.309 322.654C263.309 321.808 263.309 321.271 263.309 321.043C263.211 320.555 263.064 320.066 262.869 319.578C262.706 319.155 262.446 318.715 262.088 318.26C261.73 317.804 261.258 317.381 260.672 316.99ZM309.73 318.943C311.358 319.041 312.725 319.122 313.832 319.188C314.971 319.22 315.915 319.253 316.664 319.285C317.51 319.318 318.227 319.318 318.812 319.285C319.398 319.253 320.196 319.171 321.205 319.041C322.051 318.943 323.174 318.797 324.574 318.602C326.007 318.374 327.781 318.081 329.896 317.723C329.148 318.471 328.562 319.155 328.139 319.773C327.748 320.359 327.439 320.864 327.211 321.287C326.951 321.808 326.771 322.247 326.674 322.605C326.609 322.931 326.674 323.745 326.869 325.047C327.064 326.349 327.341 327.895 327.699 329.686C328.057 331.443 328.448 333.331 328.871 335.35C329.294 337.335 329.717 339.207 330.141 340.965C330.564 342.69 330.938 344.171 331.264 345.408C331.622 346.613 331.882 347.329 332.045 347.557C332.533 348.24 332.842 348.696 332.973 348.924C333.103 349.119 333.331 349.298 333.656 349.461C333.786 349.526 333.998 349.624 334.291 349.754C334.551 349.884 334.893 350.047 335.316 350.242C335.772 350.438 336.342 350.665 337.025 350.926C335.756 350.991 334.665 351.04 333.754 351.072C332.842 351.072 332.094 351.089 331.508 351.121C330.824 351.154 330.238 351.186 329.75 351.219C329.262 351.219 328.676 351.251 327.992 351.316C327.406 351.382 326.641 351.447 325.697 351.512C324.786 351.577 323.712 351.642 322.475 351.707C323.126 351.251 323.646 350.844 324.037 350.486C324.46 350.096 324.786 349.77 325.014 349.51C325.274 349.184 325.453 348.891 325.551 348.631C325.616 348.338 325.665 347.898 325.697 347.312C325.73 346.792 325.73 346.108 325.697 345.262C325.665 344.383 325.583 343.243 325.453 341.844L312.611 343.162C312.286 343.715 312.042 344.204 311.879 344.627C311.716 345.018 311.602 345.359 311.537 345.652C311.439 346.01 311.407 346.303 311.439 346.531C311.505 346.792 311.618 347.101 311.781 347.459C311.944 347.785 312.172 348.175 312.465 348.631C312.79 349.054 313.262 349.559 313.881 350.145C313.067 350.112 312.237 350.096 311.391 350.096C310.544 350.096 309.763 350.112 309.047 350.145C308.201 350.177 307.37 350.21 306.557 350.242C305.743 350.275 304.815 350.324 303.773 350.389C302.895 350.454 301.869 350.535 300.697 350.633C299.493 350.698 298.207 350.796 296.84 350.926C297.686 350.535 298.402 350.145 298.988 349.754C299.574 349.331 300.062 348.94 300.453 348.582C300.909 348.191 301.299 347.817 301.625 347.459C301.853 347.133 302.309 346.385 302.992 345.213C303.676 344.008 304.441 342.592 305.287 340.965C306.166 339.337 307.077 337.596 308.021 335.74C308.998 333.885 309.877 332.143 310.658 330.516C311.439 328.855 312.074 327.423 312.562 326.219C313.051 325.014 313.295 324.233 313.295 323.875C313.23 323.452 313.067 322.98 312.807 322.459C312.579 322.003 312.221 321.482 311.732 320.896C311.277 320.311 310.609 319.66 309.73 318.943ZM324.867 338.23C324.672 337.091 324.493 336.115 324.33 335.301C324.167 334.454 324.037 333.755 323.939 333.201C323.809 332.55 323.712 331.98 323.646 331.492C323.549 331.036 323.435 330.451 323.305 329.734C323.174 329.116 323.012 328.351 322.816 327.439C322.654 326.495 322.442 325.372 322.182 324.07C320.326 327.781 318.878 330.662 317.836 332.713C316.827 334.731 316.094 336.212 315.639 337.156C315.085 338.263 314.776 338.914 314.711 339.109L324.867 338.23ZM334.521 316.355C336.702 316.616 338.59 316.811 340.186 316.941C341.781 317.039 343.099 317.12 344.141 317.186C345.345 317.251 346.354 317.267 347.168 317.234C348.014 317.202 349.17 317.12 350.635 316.99C351.872 316.893 353.499 316.762 355.518 316.6C357.536 316.404 360.059 316.144 363.086 315.818C363.118 316.567 363.135 317.299 363.135 318.016C363.167 318.699 363.2 319.301 363.232 319.822C363.265 320.441 363.281 321.01 363.281 321.531C363.281 322.085 363.249 322.785 363.184 323.631C363.118 324.347 363.005 325.258 362.842 326.365C362.712 327.439 362.5 328.725 362.207 330.223C361.751 328.465 361.312 327.049 360.889 325.975C360.465 324.868 360.075 323.989 359.717 323.338C359.326 322.589 358.936 322.02 358.545 321.629C358.122 321.336 357.617 321.092 357.031 320.896C356.51 320.734 355.843 320.604 355.029 320.506C354.248 320.408 353.32 320.424 352.246 320.555C352.083 324.852 351.969 328.335 351.904 331.004C351.839 333.673 351.79 335.757 351.758 337.254C351.725 339.044 351.709 340.33 351.709 341.111C351.742 342.218 351.921 343.309 352.246 344.383C352.507 345.294 352.93 346.238 353.516 347.215C354.102 348.191 354.948 349.054 356.055 349.803H350.098C349.544 349.803 348.861 349.835 348.047 349.9C347.363 349.965 346.484 350.031 345.41 350.096C344.368 350.161 343.148 350.275 341.748 350.438C342.236 349.591 342.627 348.826 342.92 348.143C343.213 347.459 343.441 346.873 343.604 346.385C343.799 345.799 343.945 345.278 344.043 344.822C344.076 344.171 344.157 342.853 344.287 340.867C344.32 340.053 344.352 339.044 344.385 337.84C344.45 336.635 344.515 335.203 344.58 333.543C344.678 331.883 344.759 329.979 344.824 327.83C344.922 325.649 345.02 323.191 345.117 320.457C344.531 320.294 343.978 320.311 343.457 320.506C342.936 320.669 342.48 320.88 342.09 321.141C341.634 321.466 341.195 321.857 340.771 322.312C340.348 322.866 339.876 323.582 339.355 324.461C338.9 325.21 338.379 326.202 337.793 327.439C337.207 328.644 336.54 330.141 335.791 331.932C335.628 330.044 335.514 328.497 335.449 327.293C335.384 326.056 335.335 325.096 335.303 324.412C335.27 323.598 335.254 322.996 335.254 322.605C335.254 322.247 335.221 321.775 335.156 321.189C335.091 320.701 335.01 320.066 334.912 319.285C334.814 318.471 334.684 317.495 334.521 316.355ZM363.805 318.357C364.911 318.488 365.839 318.585 366.588 318.65C367.369 318.683 368.004 318.732 368.492 318.797C369.078 318.862 369.534 318.895 369.859 318.895C370.217 318.927 370.755 318.911 371.471 318.846C372.089 318.781 372.919 318.699 373.961 318.602C375.035 318.504 376.402 318.357 378.062 318.162C377.314 318.813 376.712 319.448 376.256 320.066C375.833 320.652 375.507 321.173 375.279 321.629C374.986 322.182 374.807 322.703 374.742 323.191C374.612 323.973 374.498 325.047 374.4 326.414C374.335 327.749 374.27 329.214 374.205 330.809C374.14 332.404 374.107 334.048 374.107 335.74C374.107 337.433 374.124 339.044 374.156 340.574C374.221 342.072 374.319 343.406 374.449 344.578C374.612 345.75 374.807 346.596 375.035 347.117C375.361 347.703 375.702 348.289 376.061 348.875C376.386 349.363 376.777 349.868 377.232 350.389C377.688 350.91 378.209 351.333 378.795 351.658C376.874 351.561 375.344 351.512 374.205 351.512H372.447C371.926 351.512 371.259 351.544 370.445 351.609C369.762 351.674 368.899 351.74 367.857 351.805C366.816 351.87 365.562 351.967 364.098 352.098C364.846 351.284 365.432 350.503 365.855 349.754C366.279 349.005 366.62 348.354 366.881 347.801C367.174 347.15 367.369 346.531 367.467 345.945C367.597 345.099 367.695 344.057 367.76 342.82C367.857 341.551 367.923 340.2 367.955 338.768C367.988 337.303 367.988 335.822 367.955 334.324C367.955 332.794 367.923 331.329 367.857 329.93C367.792 328.53 367.695 327.26 367.564 326.121C367.467 324.982 367.337 324.07 367.174 323.387C367.076 322.964 366.881 322.492 366.588 321.971C366.327 321.515 365.969 320.994 365.514 320.408C365.09 319.79 364.521 319.106 363.805 318.357ZM395.334 315.916C396.473 315.916 397.499 316.111 398.41 316.502C399.354 316.86 400.217 317.267 400.998 317.723C401.812 318.178 402.577 318.602 403.293 318.992C404.009 319.35 404.742 319.529 405.49 319.529C406.076 319.497 406.743 319.415 407.492 319.285C408.143 319.155 408.892 318.96 409.738 318.699C410.617 318.406 411.594 317.983 412.668 317.43C411.594 318.471 410.715 319.35 410.031 320.066C409.38 320.75 408.876 321.32 408.518 321.775C408.094 322.296 407.785 322.703 407.59 322.996C407.395 323.354 407.102 323.891 406.711 324.607C406.353 325.258 405.865 326.137 405.246 327.244C404.628 328.318 403.846 329.734 402.902 331.492C402.902 329.246 402.674 327.505 402.219 326.268C401.796 325.031 401.324 324.087 400.803 323.436C400.184 322.687 399.484 322.215 398.703 322.02C397.987 321.922 397.271 322.052 396.555 322.41C395.839 322.736 395.122 323.224 394.406 323.875C393.723 324.526 393.055 325.307 392.404 326.219C391.786 327.098 391.216 328.025 390.695 329.002C390.207 329.979 389.8 330.971 389.475 331.98C389.149 332.957 388.938 333.868 388.84 334.715C388.742 335.464 388.726 336.342 388.791 337.352C388.856 338.328 389.003 339.337 389.23 340.379C389.458 341.388 389.751 342.381 390.109 343.357C390.467 344.334 390.907 345.213 391.428 345.994C391.981 346.743 392.6 347.361 393.283 347.85C393.967 348.305 394.748 348.517 395.627 348.484C396.604 348.419 397.564 348.126 398.508 347.605C399.322 347.182 400.152 346.531 400.998 345.652C401.844 344.741 402.577 343.455 403.195 341.795L410.422 343.113C408.339 345.652 406.304 347.557 404.318 348.826C402.365 350.096 400.607 350.991 399.045 351.512C397.222 352.098 395.497 352.374 393.869 352.342C391.818 352.114 389.898 351.495 388.107 350.486C386.317 349.477 384.771 348.257 383.469 346.824C382.199 345.359 381.206 343.764 380.49 342.039C379.774 340.314 379.465 338.621 379.562 336.961C379.628 335.854 379.855 334.568 380.246 333.104C380.637 331.606 381.158 330.076 381.809 328.514C382.492 326.951 383.306 325.421 384.25 323.924C385.194 322.426 386.236 321.092 387.375 319.92C388.514 318.715 389.751 317.755 391.086 317.039C392.453 316.29 393.869 315.916 395.334 315.916Z" fill="black"/>
</g>
<defs>
<clipPath id="clip0_54_395">
<rect width="456" height="456" fill="white"/>
</clipPath>
<clipPath id="clip1_54_395">
<rect width="311" height="276" fill="white" transform="translate(72 50)"/>
</clipPath>
</defs>
</svg>
