<svg width="44" height="44" viewBox="0 0 44 44" fill="none" xmlns="http://www.w3.org/2000/svg">
<g clip-path="url(#clip0_14_584)">
<path d="M28.9616 21.2998L29.0306 21.3816C31.6949 22.5709 35.082 24.8311 36.5234 27.4552C37.3672 28.9921 36.9638 29.9738 36.2972 31.4611C35.6596 32.8826 34.826 34.304 33.9392 35.5786C33.1985 34.4207 32.1609 33.4363 30.806 33.1009C30.7894 32.9902 31.0739 32.39 31.1416 32.2349C31.5416 31.3208 32.0331 30.3532 32.6052 29.5376C32.7082 29.3908 33.1683 28.8805 33.187 28.7875C33.2164 28.6428 33.1337 28.5783 32.9979 28.5619C32.6891 28.5244 32.221 28.8943 31.9449 29.0278C31.3563 28.6816 30.7612 28.3397 30.1424 28.0503C29.9021 27.9379 28.6533 27.3807 28.4884 27.3975C28.4139 27.4049 28.356 27.4733 28.3278 27.5392C28.1715 27.9039 28.7874 28.1537 28.9983 28.3462C29.0639 28.4547 28.8726 29.5579 28.836 29.7749C28.6021 31.1563 28.255 32.5265 27.9445 33.8902C25.9979 34.8018 23.8252 35.0489 21.6934 34.9774L21.6917 32.3701C21.6938 32.2685 21.7351 32.1742 21.7377 32.0722C21.7849 30.2938 21.8458 28.5038 22.0345 26.7314C22.0891 26.2173 22.1777 25.7005 22.2437 25.1877C22.6121 25.0542 22.9967 24.9866 23.3652 24.8471C25.1567 24.1697 26.7446 22.4848 26.9329 20.5088L28.9621 21.2998H28.9616Z" fill="white"/>
<path d="M27.358 12.112L26.5257 12.5396C26.383 12.6541 26.5006 12.8897 26.6356 12.9517C26.8009 13.027 27.41 12.6795 27.6451 12.6386C28.1873 12.5447 28.8258 12.9827 28.9971 13.4908C29.351 14.5415 28.4587 16.3026 27.2929 16.3328C27.0778 16.3384 26.8107 16.1244 26.6522 16.2423C26.5675 16.3056 25.9963 17.5354 25.8596 17.7658C23.329 22.0223 18.63 22.5347 15.8827 18.1366C14.9635 16.6648 14.2079 14.1216 14.8349 12.4337C14.8907 12.2838 15.0104 12.1288 15.0453 12.0005C15.1424 11.6452 15.122 10.9722 15.1833 10.5467C15.26 10.0158 15.3903 9.44656 15.5483 8.935C15.6518 8.60042 16.0637 7.43779 16.3998 7.33876C16.5323 7.3 16.9855 7.49377 17.1699 7.53425C18.5572 7.83696 19.6736 7.22938 20.9961 7.0791C21.8421 6.98308 22.737 7.09805 23.568 7.26685C24.6627 7.48947 25.7441 7.8473 26.6774 8.4721C26.8435 8.65726 26.3801 9.23513 26.2859 9.4556C25.7999 10.5924 26.0891 11.783 27.358 12.112ZM16.2899 9.6076C16.3874 9.76434 16.9229 9.42417 17.092 9.37637C17.2611 9.32857 17.4885 9.29628 17.6683 9.27001C17.848 9.24374 18.0729 9.34494 18.1406 9.09777C18.1785 8.95955 18.0533 8.80582 17.9464 8.7296C17.3761 8.32182 16.2158 8.85706 16.2899 9.6076ZM23.5105 8.98366C23.1885 8.73047 22.262 8.52205 22.0397 8.95309C21.8174 9.38412 22.659 9.3514 22.9406 9.45173C23.0654 9.49608 23.2208 9.58478 23.3346 9.65626C23.4611 9.73592 23.9888 10.2647 23.9863 9.85262C23.9846 9.62052 23.6902 9.1249 23.5109 8.98366H23.5105ZM17.1656 10.7862C16.4956 10.9438 16.4339 12.8126 17.1575 12.8466C17.8587 12.8798 17.9583 11.4743 17.6823 11.0208C17.5575 10.8159 17.4063 10.7298 17.1656 10.7862ZM23.1736 12.1899C23.188 12.1585 23.1127 11.5854 23.0862 11.4997C22.9785 11.1487 22.6382 10.9304 22.3106 11.1642C21.9162 11.4454 21.8131 12.5848 22.1185 12.9517C22.4426 13.3409 22.7774 13.1997 22.9785 12.7867C23.0879 12.5624 23.0543 12.4242 23.099 12.2261C23.1063 12.1934 23.1706 12.196 23.1736 12.1895V12.1899ZM19.8086 11.175C19.7375 11.1005 19.6042 11.1315 19.5441 11.2099C19.3213 11.6009 19.1407 12.0659 18.875 12.4276C18.6901 12.6791 18.4477 12.8479 18.2441 13.0821C17.796 13.5971 17.4455 13.992 17.9272 14.6487C18.2676 15.1133 18.9538 15.2541 19.4875 15.1142C19.6796 15.0638 19.9862 14.8498 19.7656 14.6625C19.5991 14.5212 18.665 14.526 18.6662 14.0277C18.6667 13.8094 19.1978 13.2251 19.3418 12.9861C19.5254 12.6825 20.0727 11.4523 19.8082 11.175H19.8086ZM27.6877 13.3276C27.4803 13.3663 27.0914 13.6747 27.2345 13.893C27.4036 14.1505 27.6566 13.8452 27.9011 13.9528C28.1456 14.0605 28.0233 14.355 28.1652 14.5036C28.405 14.7542 28.5766 14.4411 28.5954 14.2026C28.641 13.6225 28.2789 13.2165 27.6873 13.3276H27.6877ZM16.9782 15.9314C16.8044 15.726 17.2474 15.515 17.0455 15.152C16.8602 14.8196 16.4117 15.1154 16.2422 15.3204C16.0727 15.5254 15.7801 16.2161 16.0454 16.421C16.2503 16.5791 16.4258 16.3181 16.5506 16.3366C16.6068 16.3448 17.0336 16.6622 17.1495 16.7263C18.377 17.4045 19.349 17.4708 20.7278 17.2715C21.069 17.222 21.4012 17.1419 21.736 17.0639C21.8502 17.1513 20.9685 17.7365 20.8863 17.7761C20.0714 18.1641 19.0636 18.1404 18.2348 17.7921C18.1947 17.7753 18.196 17.7077 18.1206 17.6853C17.7594 17.5781 17.707 17.8739 17.8842 18.1374C18.124 18.494 18.9116 18.8376 19.3303 18.8716C20.9753 19.0059 22.2676 17.6689 23.0982 16.3948C23.2179 16.3414 23.7171 16.8986 23.781 16.3543C23.8414 15.8406 23.4002 15.3114 22.9576 15.1185C22.774 15.0384 22.291 14.8958 22.3106 15.2339C22.3276 15.5284 22.7719 15.5719 22.587 15.7932C22.4695 15.934 21.8565 16.2036 21.661 16.2776C20.3934 16.7591 18.9329 16.7905 17.667 16.2897C17.5409 16.2398 17.0447 16.0102 16.9782 15.9319V15.9314Z" fill="white"/>
<path d="M15.9002 20.6379C15.6753 21.4522 15.9572 22.3664 16.3615 23.0777C16.8142 23.8739 17.5596 24.4104 18.3208 24.8824C18.213 25.4684 18.1095 26.0579 18.0354 26.65C17.6989 29.3318 17.6189 32.0153 17.647 34.7187C17.5626 34.8035 15.6467 34.3966 15.3801 34.3186C15.1552 34.2532 14.2973 33.9685 14.2062 33.783C14.0844 33.2008 13.9809 32.6117 13.9038 32.0218C13.7053 30.4975 13.6776 28.9524 13.77 27.4195C13.7798 27.2576 13.7402 27.0022 13.7709 26.867C13.7875 26.7943 13.8131 26.9398 13.8126 26.6892C13.8118 26.2246 13.9425 25.6377 13.9008 25.2213C13.8808 25.0232 13.7615 24.891 13.5754 25.0271C13.3564 25.1873 13.2163 26.669 13.0702 26.9704C12.3329 27.3338 11.6327 27.7644 10.9695 28.2519C10.6432 28.223 10.3527 28.0155 10.0102 28.0973C9.4514 28.2303 10.5358 28.8284 10.676 28.9572C10.949 29.2082 11.1509 29.8072 11.3077 30.1685C11.6224 30.8936 11.898 31.639 12.1936 32.3723C11.0909 32.8851 10.2517 33.6779 9.61752 34.7182C9.52296 34.7182 8.7192 33.311 8.60888 33.1121C7.74081 31.5408 6.43445 28.5391 7.26589 26.7869C8.18039 24.86 11.2591 22.6308 13.135 21.6968C14.0128 21.2597 14.7838 21.0414 15.697 20.7206C15.7349 20.7073 15.7524 20.5824 15.9002 20.6388V20.6379Z" fill="white"/>
<path d="M20.8605 23.4347C20.8924 23.3886 21.8091 23.3262 21.9637 23.3012C22.3965 23.2315 22.8113 23.1208 23.1964 22.9111C24.294 22.3143 25.2358 21.2162 25.4411 19.9481C25.7209 20.0489 26.2759 20.0532 26.2521 20.442C26.1443 22.2178 24.4231 23.8033 22.8335 24.3097C22.6154 24.379 21.7818 24.5228 21.6907 24.6184C21.6617 24.649 21.6417 24.6869 21.6272 24.7265C21.4952 25.8375 21.3094 26.9493 21.2247 28.0658C21.0449 30.4286 21.0343 32.7995 21.0134 35.1721C21.0121 35.3094 20.9223 35.4068 21.0347 35.5346C21.1148 35.6259 21.4854 35.6578 21.6276 35.6673C22.7444 35.7409 24.1356 35.6371 25.2366 35.4365C26.1183 35.2759 26.9485 34.9878 27.7842 34.6752L27.3191 37.3264C27.1436 37.5727 25.3938 37.9598 25.0245 38.0209C22.3683 38.4623 17.8827 38.2931 15.3377 37.375C15.0677 37.2777 14.9706 37.2777 14.8662 36.9905C14.6145 36.3003 14.5804 35.4313 14.3674 34.7178C14.8624 34.8043 15.3228 35.0145 15.8152 35.1269C16.5798 35.3017 17.3635 35.3577 18.1349 35.4933L18.3278 35.2974C18.327 34.465 18.3219 33.6327 18.3308 32.799C18.3551 30.5422 18.4693 28.2971 18.8045 26.0476C18.856 25.7031 19.1082 24.77 19.0724 24.5048C19.0626 24.432 19.0272 24.3618 18.9663 24.3187C18.6341 24.1357 18.1788 23.9652 17.8815 23.7366C17.0198 23.0739 16.4563 21.9874 16.5402 20.8735C16.5559 20.6668 16.5419 20.3499 16.7936 20.4437C16.8379 20.4601 17.2996 20.8128 17.3273 20.8519C17.4044 20.9609 17.4721 21.3239 17.5424 21.4957C17.9126 22.4034 18.6196 22.9572 19.546 23.2164C19.6704 23.2513 20.1317 23.2879 20.1577 23.3753" fill="white"/>
<path d="M29.1044 9.22652C29.0154 9.30575 28.5374 8.78817 28.4429 8.71152C26.2527 6.92839 23.1425 5.84198 20.3202 6.35354C18.8455 6.62094 18.0784 7.12561 16.5399 6.49176C16.3738 6.4233 16.2166 6.3234 16.071 6.25579C16.002 6.76821 15.5913 7.16867 15.0764 6.89481C14.3459 6.50597 14.0963 4.8193 14.8928 4.36458C15.0781 4.51142 15.2936 4.67634 15.5027 4.78399C17.3901 5.75543 18.36 4.17684 19.8883 3.4629C21.6189 2.65466 23.7554 2.83077 24.8117 4.58807C26.021 4.6983 26.7553 4.88647 27.3921 5.98408C27.5727 6.29541 27.6839 6.79103 27.8504 7.02786C27.9863 7.2212 28.3045 7.36632 28.4868 7.59023C28.8539 8.04021 29.0418 8.65339 29.104 9.22652H29.1044Z" fill="white"/>
<path d="M32.9659 37.158C32.626 37.5619 31.9829 37.9133 31.4577 37.98C31.0782 38.0283 30.7174 37.8229 30.7659 38.3568C30.8209 38.9644 31.3589 38.5691 31.4389 38.8395C31.5463 39.2012 31.1438 39.4678 30.8298 39.4983C30.0338 39.5759 29.6943 38.6277 29.5499 37.9934C29.5137 37.8349 29.5375 37.2945 29.2866 37.419C29.1418 37.4909 29.0669 38.0149 29.0605 38.1829C29.0439 38.5936 29.1716 38.9812 29.2747 39.3692C28.7244 39.311 28.3892 38.7052 28.2657 38.2151C27.956 36.9871 28.4297 35.6328 28.6422 34.4228C28.9923 34.378 29.3919 34.3212 29.7241 34.2032C29.9971 34.1063 30.2212 33.9182 30.4878 33.8114C31.4168 34.031 32.2346 34.6269 32.8326 35.3637C33.2611 35.8916 33.4447 36.5896 32.9664 37.158H32.9659Z" fill="white"/>
<path d="M15.6015 39.9957L15.0908 38.0149C15.688 38.2152 16.2979 38.3827 16.9139 38.5183C17.3841 38.6216 18.0149 38.7676 18.48 38.8296C18.759 38.8667 19.2335 38.8154 19.4912 38.877C19.5279 38.8856 19.5044 38.9674 19.5811 38.9661C20.8679 38.9416 22.2062 39.0247 23.5023 38.9192C24.7993 38.8133 26.1385 38.5527 27.3571 38.101L27.9539 39.9096C27.9483 39.9229 27.9603 39.9462 27.9539 39.9526C27.8538 39.9457 27.6787 39.9246 27.6131 39.9957C27.5705 39.9974 27.5279 39.9948 27.4853 39.9957C27.4679 39.9285 27.3286 39.9311 27.315 39.9957C27.2583 39.9966 27.2012 39.9953 27.1446 39.9957L27.1233 39.9535L27.102 39.9957C26.918 39.9974 26.7323 39.9944 26.5483 39.9957L26.4848 39.9531L26.4631 39.9957C26.1939 39.997 25.923 39.9944 25.6538 39.9957L25.5903 39.9531L25.5686 39.9957H25.3982L25.3769 39.9535L25.3556 39.9957C25.299 39.9957 25.2419 39.9957 25.1852 39.9957L25.1639 39.9535L25.1426 39.9957C25.1 39.9957 25.0575 39.9957 25.0149 39.9957C25.0089 39.9311 24.893 39.9311 24.8871 39.9957C24.8159 39.9957 24.7452 39.9957 24.6741 39.9957C24.6681 39.9311 24.5523 39.9311 24.5463 39.9957C24.4752 39.9957 24.4045 39.9957 24.3334 39.9957C24.3274 39.9311 24.2115 39.9311 24.2056 39.9957C24.1489 39.9957 24.0918 39.9957 24.0352 39.9957L24.0139 39.9535L23.9926 39.9957C23.95 39.9957 23.9074 39.9957 23.8648 39.9957C23.8589 39.9311 23.743 39.9311 23.737 39.9957C23.7085 39.9957 23.6804 39.9957 23.6518 39.9957L23.6305 39.9535L23.6092 39.9957H23.4815L23.4602 39.9535L23.4389 39.9957H23.2259C23.2199 39.9311 23.1041 39.9311 23.0981 39.9957C22.9989 39.9957 22.8992 39.9957 22.8 39.9957L22.7787 39.9535L22.7574 39.9957C22.6441 39.9957 22.5299 39.9957 22.4166 39.9957L22.3953 39.9535L22.374 39.9957C22.3029 39.9957 22.2322 39.9957 22.161 39.9957L22.1397 39.9535L22.1184 39.9957H21.4795L21.4161 39.9531L21.3943 39.9957H21.2666L21.2453 39.9535L21.224 39.9957C21.1954 39.9957 21.1673 39.9957 21.1388 39.9957L21.1175 39.9535L21.0962 39.9957H21.011C21.005 39.9311 20.8892 39.9311 20.8832 39.9957H20.7554L20.7341 39.9535L20.7128 39.9957H20.6277L20.6064 39.9535L20.5851 39.9957H19.435L19.4137 39.9535L19.3924 39.9957H19.0943C19.0768 39.9285 18.9375 39.9311 18.9239 39.9957C18.8672 39.9957 18.8102 39.9957 18.7535 39.9957L18.69 39.9531L18.6683 39.9957C18.6117 39.9957 18.5546 39.9957 18.4979 39.9957C18.492 39.9311 18.3761 39.9311 18.3702 39.9957H18.285C18.1989 39.9242 17.9532 39.9221 17.859 39.9957C17.6324 39.9948 17.4041 39.9966 17.1775 39.9957L17.1562 39.9535L17.1349 39.9957C17.0638 39.9957 16.9931 39.9957 16.9219 39.9957L16.9007 39.9535L16.8794 39.9957C16.752 39.9948 16.6234 39.997 16.496 39.9957L16.4325 39.9531L16.4108 39.9957C16.3823 39.9957 16.3542 39.9957 16.3256 39.9957L16.3043 39.9535L16.283 39.9957C16.1144 39.9935 15.9402 40.0065 15.7719 39.9957C15.7544 39.9285 15.6152 39.9311 15.6015 39.9957Z" fill="white"/>
<path d="M13.3343 33.4368C13.5605 34.5223 13.7372 35.619 13.9544 36.7072C14.0435 37.1529 14.2019 37.6244 14.2705 38.067C14.3672 38.6923 14.3225 39.1186 13.6005 39.1961C13.9102 38.5954 13.8867 37.7949 13.4514 37.2596L13.3543 37.3759C13.2844 38.0326 13.0417 39.4269 12.1412 39.2719C11.8733 39.2258 11.4848 38.8055 11.7796 38.6681C12.0743 38.5308 12.2592 38.8154 12.2396 38.1859C12.2315 37.9159 12.191 37.872 11.9619 37.7307C11.455 37.4181 11.1897 37.3828 10.7471 36.8919C9.30614 35.2939 11.0742 33.615 12.5923 33.1336L13.3343 33.4359V33.4368Z" fill="white"/>
<path d="M24.3337 20.8532C24.061 21.5698 23.1862 22.1993 22.4817 22.4469C21.6515 22.7388 20.156 22.7716 19.3403 22.4344C19.1065 22.338 18.4855 21.9375 18.4135 21.6916C18.3943 21.6253 18.4165 21.6219 18.4748 21.6292C18.7602 21.6641 19.1239 21.8441 19.4336 21.9095C20.7434 22.1851 22.1285 21.9926 23.3263 21.4066C23.6747 21.236 23.9707 20.9751 24.3332 20.8532H24.3337Z" fill="white"/>
<path d="M27.9394 10.6195C27.9995 10.6695 28.0817 10.809 28.1665 10.8852C28.3356 11.0376 28.825 11.2977 28.7986 11.5604C28.7815 11.7275 28.6755 11.9057 28.6359 12.0681C28.2384 11.6844 27.8317 11.3348 27.3457 11.0695C27.0773 10.9231 26.7753 10.9519 26.7238 10.579C26.6931 10.3573 26.7413 10.0554 26.8686 9.87329C27.2153 10.1385 27.6029 10.3392 27.9399 10.6195H27.9394Z" fill="white"/>
<path d="M28.4506 9.67263C28.5933 9.79492 28.7798 10.052 28.891 10.198C28.9229 10.2397 28.9885 10.2406 29.0188 10.2944C29.0899 10.4206 29.0264 10.6057 28.9127 10.6901C28.5366 10.1639 27.9578 9.91764 27.4888 9.54689C27.321 9.41469 27.2153 9.31996 27.3163 9.09734C27.6988 9.21705 28.1443 9.40953 28.4506 9.67263Z" fill="white"/>
</g>
<defs>
<clipPath id="clip0_14_584">
<rect width="30" height="37" fill="white" transform="translate(7 3)"/>
</clipPath>
</defs>
</svg>
