<svg width="44" height="44" viewBox="0 0 44 44" fill="none" xmlns="http://www.w3.org/2000/svg">
<g clip-path="url(#clip0_14_584)">
<path d="M36.2644 41.0001H15.0955V40.4008C15.0186 39.0279 14.7585 37.6766 14.6033 36.3148C14.4405 34.8819 14.3858 33.4551 14.4165 32.0102L13.4522 32.6174C11.6103 33.6667 9.00534 34.3767 6.90654 33.9249C6.65731 33.8714 6.31037 33.6999 6.11361 33.6718C5.84628 33.634 5.41567 33.698 5.11985 33.6713C3.81714 33.5533 1.49941 32.6271 1.66135 30.972C1.67537 30.8273 1.81333 30.5673 1.79026 30.4746C1.77126 30.3981 1.54736 30.2312 1.48132 30.1413C1.16062 29.7061 1.01135 29.1298 1.08463 28.5867C1.11539 28.3581 1.33612 27.939 1.33974 27.7919C1.34291 27.6582 1.13846 27.3083 1.09413 27.1239C0.712363 25.5398 1.52067 24.7118 2.94415 24.3504C3.29063 24.2624 3.64345 24.2388 3.9931 24.1734C4.02793 24.1245 3.79317 23.5137 3.76377 23.3887C3.49554 22.2652 3.67782 21.0306 4.40155 20.1187C5.06828 19.2783 6.4524 18.6812 7.18065 19.7679C7.97675 20.9564 6.95042 22.0541 7.29373 23.2947C7.52352 24.125 8.2486 24.5168 8.74073 25.1392C8.83391 25.2568 9.17813 25.8326 9.21522 25.8538C9.41967 25.97 10.7174 25.656 11.0245 25.6002C10.7129 24.9779 10.342 24.3845 10.067 23.7414C9.42465 22.2408 9.12747 20.783 9.07952 19.1464C9.07636 19.0321 9.12204 18.672 9.00805 18.6448L6.63786 18.6619L4.32918 16.082L3.69456 16.0793C3.6249 16.2093 3.56339 16.4075 3.47021 16.5191C2.94279 17.152 1.89475 16.9663 1.57993 16.2097C1.17329 15.2342 2.10734 14.3343 3.04954 14.7119C3.3906 14.8488 3.51453 15.0991 3.67963 15.4066C3.9058 15.4583 4.87378 15.3402 4.98686 15.4573C5.03074 15.503 5.03933 15.6445 5.07597 15.6436L5.14382 15.3665C5.14834 15.5952 5.11984 15.8312 5.16734 16.0571C5.77843 16.727 6.37958 17.4056 7.04586 18.0151L9.07952 18.0409L9.1243 17.5794H7.20191L5.55996 15.8414L5.52649 13.7087L4.63178 12.7442C4.55896 12.7867 4.39929 12.9093 4.32963 12.9231C3.3241 13.1167 2.39547 11.9896 3.01833 11.1025C3.64119 10.2155 5.01129 10.589 5.09361 11.7079C5.11577 12.0089 5.00134 12.1454 4.96832 12.4114C5.29218 12.5654 6.16789 13.3542 6.22217 13.6958C6.23936 13.8027 6.18282 13.8991 6.18236 14.0051C6.18146 14.2799 6.1412 15.4241 6.22714 15.5767L7.48281 16.9248L9.16501 16.9294L9.26 16.3817C8.86602 16.3328 8.4241 16.4116 8.08712 16.171C7.89261 16.0322 6.91242 15.0069 6.79662 14.8124C6.62157 14.5173 6.72787 14.2813 6.71792 14.0074C6.67992 12.9508 6.74868 11.8987 6.72787 10.8361C5.9182 10.335 6.1317 8.93991 7.05219 8.71447C8.43088 8.37654 9.00398 10.2552 7.813 10.8499C7.81165 10.7531 7.76325 10.6083 7.76551 10.4557C7.76913 10.2386 7.83698 10.0496 7.81255 9.81262C7.74425 9.15013 6.90744 9.29305 6.86402 9.86471C6.8414 10.1667 7.13994 10.3737 7.36113 10.5138L7.33535 14.5408L8.52316 15.7275C8.73123 15.6819 9.28171 15.8898 9.38892 15.7068C9.43324 15.6311 9.45676 15.426 9.48662 15.3223C9.54994 15.101 9.59744 14.8728 9.66664 14.6529C10.4682 12.1011 11.9283 9.87716 14.0506 8.28387C13.7801 7.39641 13.8149 6.25354 14.3265 5.45644C14.6115 5.01294 15.1131 4.63306 15.6582 4.72158C15.9888 4.77506 15.94 5.37208 16.4063 5.52606C17.0097 5.72476 17.7629 5.34441 18.2491 5.00557C19.0823 4.42468 19.7061 3.79493 20.6736 3.37356C22.3879 2.62763 24.375 2.98814 25.4845 4.57175C26.571 4.49614 27.7643 4.73817 28.6196 5.45644C29.1416 5.89487 29.4962 6.64726 29.6844 7.29868C30.3136 7.63338 30.8089 8.06673 31.1604 8.69879C31.4336 9.18932 31.4014 9.23957 31.7882 9.67247C32.7105 10.7051 33.5387 11.8914 34.1009 13.1702C34.3868 13.8207 34.5781 14.5099 34.8613 15.1614L35.9157 15.1743L36.7073 14.4136L36.8086 10.8347C35.9184 10.4106 35.9446 9.13814 36.8497 8.74997C38.1158 8.20781 38.9413 10.062 37.8471 10.8038C37.692 10.9089 37.4138 10.9121 37.398 11.1528L37.3713 14.6754L36.2178 15.8049L34.9975 15.7828C35.0255 15.9331 35.0246 16.0963 35.0427 16.2438C35.0712 16.472 35.1589 16.6984 35.1327 16.9358L36.8199 16.9261L38.3017 15.4859C38.4627 14.8119 38.3433 14.1139 38.4098 13.4293C38.716 12.9688 39.1344 12.5953 39.5452 12.232C39.224 11.2515 40.054 10.2132 41.0605 10.6867C42.2903 11.2653 41.5245 13.1873 40.244 12.8789C40.178 12.8632 39.9975 12.6562 39.8835 12.7152C39.6614 12.996 39.0639 13.4187 39.0218 13.7769C38.9666 14.2444 39.1331 15.3854 38.9513 15.7335C38.3239 16.2766 37.8005 16.9308 37.1704 17.4702C37.1383 17.4978 37.1252 17.5393 37.1229 17.5813H35.2232V18.0427C35.9311 18.0201 36.653 18.1077 37.3491 17.9501C37.3278 18.1543 37.6743 17.9897 37.734 17.9501L40.0187 15.6224L40.8302 15.5966C40.9252 14.5164 42.4088 14.2578 42.8761 15.2439C43.4347 16.4236 41.9543 17.4434 41.1487 16.6588C41.089 16.6007 40.9352 16.2637 40.9157 16.2512C40.8736 16.224 40.3616 16.2351 40.2901 16.2678L37.9145 18.6872H35.2684C35.2603 18.8394 35.2797 18.9966 35.2684 19.1483C35.2476 19.4216 35.22 19.7066 35.1779 19.9781H39.2715C39.6818 19.2644 40.6108 19.1022 41.1269 19.7928C41.9475 20.89 40.4937 22.2698 39.4796 21.2874C39.4547 21.263 39.3009 21.0965 39.2941 21.0845C39.2141 20.9435 39.2439 20.6281 38.9974 20.6277L35.1589 20.6208C35.0983 20.6314 35.0992 21.0112 35.0875 21.0845C34.8649 22.4607 34.3551 23.7654 33.6581 24.9571L33.6595 25.0493C34.3077 25.4698 34.9956 25.8252 35.6262 26.2756C37.1523 27.365 38.6165 28.8938 39.5112 30.5682C40.3055 32.054 40.1341 32.6617 39.5415 34.1766C38.6948 36.3411 37.4726 38.4323 36.2635 40.4013M30.836 10.4806C30.7827 9.65679 30.594 8.94913 29.9531 8.40743C29.7324 8.22118 29.2864 8.0672 29.162 7.9229C29.005 7.74079 28.8557 7.1659 28.7178 6.90036C28.1669 5.83863 27.2052 5.31537 26.0197 5.41034C25.5171 5.45091 25.2412 5.68926 24.8214 5.20104C24.4234 4.73817 24.3284 4.41362 23.7128 4.1181C20.6094 2.62901 18.7725 7.18296 16.1716 6.36419C16.0309 6.31993 15.8975 6.25447 15.7776 6.16641C15.6699 6.08712 15.3637 5.67911 15.3049 5.68972C14.6065 6.31302 14.4848 7.78597 15.1452 8.47059C15.3013 8.63241 15.7016 8.91178 15.9079 8.75043C16.1553 8.55634 15.816 8.44708 15.7342 8.28526C15.6523 8.12344 15.6328 7.59235 15.8504 7.5361C16.3145 7.73434 16.7239 7.90538 17.2205 8.0151C18.1722 8.22486 19.2289 8.28664 20.1711 8.02478C20.8278 7.84222 21.3828 7.45173 22.0595 7.32173C23.5658 7.03175 26.8895 7.95471 28.3469 8.56971C28.877 8.7933 29.6378 8.98324 29.5238 9.72133L29.57 9.81262L30.836 10.4811V10.4806ZM28.3939 11.1722C27.999 11.1473 27.3793 10.9052 27.311 10.4548C27.2672 10.1662 27.4237 9.66832 27.1704 9.49175C26.88 9.28936 25.7659 9.05977 25.3715 8.97402C24.1927 8.71677 22.8393 8.53375 21.6334 8.49687C21.1182 8.48119 21.1386 8.5863 20.7279 8.73014C19.6929 9.09389 18.6865 9.09711 17.619 8.8998C17.0201 8.78915 16.8777 8.50839 16.4896 9.20499C15.375 11.2049 14.6024 14.7713 14.7793 17.0497C15.0797 20.926 17.8931 25.3997 22.2445 24.4749C24.2691 24.0447 26.0848 22.1624 26.9089 20.2851C27.0035 20.0703 27.212 19.311 27.3196 19.2059C27.4938 19.0349 28.1668 19.435 28.5767 19.311C29.5944 19.004 31.0762 15.6519 29.66 15.0678C29.3501 14.9401 29.0267 15.0835 28.7395 15.2351C28.5997 15.3089 28.3229 15.5721 28.2713 15.5878C27.8461 15.7187 27.4296 15.1139 27.7145 14.7437C27.9384 14.4528 28.9833 14.2177 29.3438 14.2144C29.6107 14.2121 29.774 14.2693 30.0218 14.3527L30.1069 14.0157L29.5017 13.6142C29.3918 13.6133 29.3189 13.7871 29.2533 13.8452C28.9209 14.1425 28.7974 14.2071 28.327 14.1669C28.0719 14.1453 27.4558 13.9346 27.3739 13.6631C27.3753 13.0642 27.3034 12.3823 27.3522 11.7918C27.4051 11.1528 28.0135 11.41 28.4396 11.5401C28.8657 11.6701 29.2063 11.8213 29.4139 12.2297C29.4881 12.3754 29.4985 12.5561 29.6129 12.6723C29.7848 12.8466 30.2634 12.9817 30.4746 13.1536C30.6524 12.5976 30.7501 12.0191 30.7483 11.4326L29.4112 10.665C29.285 10.6678 29.1954 10.9029 29.0964 10.9878C28.8906 11.1643 28.6536 11.1878 28.3944 11.1712L28.3939 11.1722ZM16.6786 23.7119C16.7705 23.6132 16.2964 23.1771 16.2277 23.0886C13.8425 20.0297 13.5481 16.6505 14.3405 12.9157C14.4039 12.6165 14.692 11.7692 14.6902 11.564C14.6893 11.4391 14.4563 10.9878 14.4043 10.7941C14.3066 10.4331 14.2564 10.0505 14.2817 9.67523C14.298 9.43919 14.393 9.19254 14.3944 8.96019C10.7219 11.8632 9.07907 16.9875 10.142 21.5921C10.4492 22.9222 11.0069 24.2347 11.7347 25.3743C11.8369 25.3992 12.3842 25.1844 12.5285 25.13C13.8932 24.6146 15.2122 23.9074 16.6791 23.7124L16.6786 23.7119ZM28.3369 9.29166C27.4938 9.46086 27.9258 10.831 28.6617 10.4078C29.1963 10.1003 28.9639 9.16581 28.3369 9.29166ZM37.2035 9.3373C36.771 9.40093 36.6471 10.0519 37.0447 10.2155C37.8516 10.547 37.9471 9.22804 37.2035 9.3373ZM15.0955 9.51249V10.2271C15.0955 10.263 15.1552 10.3815 15.2307 10.3423C15.2515 10.0971 15.4347 9.90574 15.5035 9.67431L15.0955 9.51203V9.51249ZM27.9488 20.2621C27.8018 20.5765 27.6643 20.9034 27.497 21.2076C27.3603 21.4552 26.8764 22.1292 26.8289 22.3288C26.8044 22.4312 26.8497 22.4579 26.9343 22.5031C28.9498 23.0711 30.9577 23.6727 32.8507 24.5874C32.9561 24.5855 33.052 24.3864 33.1058 24.296C33.3247 23.929 33.522 23.4357 33.6748 23.0319C35.2385 18.9067 34.4633 14.125 31.6733 10.7577C31.581 11.2169 31.6154 11.6936 31.5552 12.1583C31.4955 12.617 31.3426 13.1462 31.187 13.581C31.0993 13.8263 30.7166 14.5459 30.7012 14.7036C30.6841 14.8811 30.9229 15.2033 30.993 15.4154C31.4707 16.8551 30.5208 19.0897 29.313 19.9228C28.8512 20.2413 28.5084 20.2911 27.9488 20.2616V20.2621ZM3.86599 11.274C3.27842 11.3907 3.45437 12.3141 4.06909 12.2237C4.6838 12.1334 4.46578 11.1556 3.86599 11.274ZM40.4123 11.274C39.9798 11.4045 40.083 12.3763 40.7447 12.1657C41.2577 12.0025 41.0939 11.0684 40.4123 11.274ZM28.1994 12.2883C27.8276 12.4017 27.7394 13.326 28.1546 13.4215C29.3895 13.705 29.0625 12.0246 28.1994 12.2883ZM2.95727 16.0889C3.38833 15.627 2.62707 14.9839 2.24847 15.4818C1.86987 15.9797 2.55108 16.5241 2.95727 16.0889ZM42.2211 15.4278C41.8371 15.0636 41.1518 15.5542 41.5318 16.0608C41.9479 16.6159 42.6757 15.8584 42.2211 15.4278ZM8.53628 29.8891C7.93287 30.0233 8.47567 29.5129 8.59101 29.3225C9.24643 28.2382 8.91488 26.7887 8.21241 25.8174C7.63343 25.0175 6.85543 24.6321 6.54513 23.598C6.2086 22.4754 6.79753 21.6415 6.68219 20.6C6.59398 19.8006 5.80512 19.979 5.34872 20.3474C4.19303 21.2809 4.18307 23.1158 5.02802 24.2679C6.63786 24.5781 8.02198 25.4098 7.65605 27.3092C7.62167 27.4867 7.4326 27.9464 7.44933 28.0658C7.45974 28.14 7.7334 28.5323 7.79039 28.7365C7.98715 29.4456 7.8311 30.2925 7.27745 30.795C7.7447 31.6258 7.0938 32.1716 6.39631 32.4796L5.1895 32.8396C6.63967 33.0826 7.83743 32.4256 8.36394 31.0274C8.42817 30.8563 8.68012 29.9901 8.53628 29.8891ZM39.9428 20.8393C40.2616 21.1943 41.0098 20.7088 40.6316 20.2063C40.2341 19.678 39.5239 20.3727 39.9428 20.8393ZM19.8001 25.3716C19.7033 25.4716 20.3678 25.8939 20.447 25.9335C22.596 27.0206 25.9803 25.7035 26.3128 23.1126C25.4597 23.9484 24.5261 24.7275 23.3966 25.142C22.2671 25.5564 20.954 25.7044 19.8001 25.3716ZM29.6604 40.4008C29.7048 40.3427 29.7437 40.0232 29.7504 39.9163C29.7862 39.3607 29.741 38.7905 29.7957 38.234C27.786 39.1063 25.5813 39.4506 23.3934 39.3423C23.0121 39.3234 21.884 39.2003 21.5764 39.0274C21.3272 38.8873 21.3068 38.4825 21.2901 38.2128C21.2286 37.2405 21.3123 36.2295 21.339 35.2623C21.3978 33.1287 21.4846 30.8268 21.7949 28.7195C21.8239 28.524 21.8754 28.0247 22.0925 27.9625C22.5498 27.9021 23.0185 27.9238 23.474 27.8491C24.8549 27.6236 26.586 26.4527 27.2405 25.1876C27.3961 24.8875 27.7715 23.9931 27.8027 23.6842C27.8127 23.586 27.7987 23.6354 27.7417 23.6146C27.5191 23.5335 27.2749 23.4948 27.0591 23.3878C26.5335 26.046 23.6259 27.578 21.1182 26.9994C20.1457 26.7749 19.1067 26.0631 18.7924 25.0595L17.8538 24.5874C17.7502 26.1152 18.7874 27.2668 20.2086 27.5656C20.0752 28.6393 19.9083 29.7116 19.7988 30.7885C19.6554 32.1988 19.5681 33.6303 19.5229 35.0345C19.5197 35.1267 19.4822 35.2111 19.4794 35.3042C19.455 36.2627 19.6007 37.5877 19.4785 38.4839C19.4718 38.5351 19.4225 38.6711 19.3935 38.7075C19.2967 38.8278 18.5648 38.7978 18.374 38.7859C17.2698 38.7162 16.7329 38.3497 15.774 38.0703C15.698 38.0482 15.6247 38.0413 15.5465 38.0491L15.816 40.3708C15.8273 40.4271 15.8866 40.3911 15.9083 40.3999C15.9531 40.4183 15.9744 40.4861 16.044 40.3999H16.1797L16.2159 40.4312L16.2702 40.3999H17.3105L17.3648 40.4312L17.401 40.3999H17.5819L17.6362 40.4312L17.6724 40.3999H17.8081L17.8443 40.4312L17.8986 40.3999H18.6675C18.6974 40.4727 18.8638 40.4727 18.8937 40.3999H19.3912C19.4365 40.4557 19.4817 40.4557 19.5269 40.3999H19.934C19.9793 40.4557 20.0245 40.4557 20.0697 40.3999H20.3411C20.3963 40.463 20.4651 40.4644 20.5221 40.3999H20.6578C20.703 40.4561 20.7478 40.4557 20.7935 40.3999H20.8839C20.9414 40.4644 21.0092 40.463 21.0649 40.3999H21.1553L21.21 40.4317L21.2458 40.3999H22.1052L22.1414 40.4312L22.1957 40.3999H22.5575L22.5937 40.4312L22.648 40.3999H24.7739C24.8192 40.4552 24.8644 40.4557 24.9096 40.3999H26.0857C26.1309 40.4557 26.1762 40.4557 26.2214 40.3999H26.6285C26.6583 40.4727 26.8248 40.4727 26.8546 40.3999H27.0356C27.093 40.464 27.1609 40.463 27.2165 40.3999H28.2116L28.2659 40.4308L28.3021 40.3999H28.5735C28.6187 40.4552 28.6644 40.4557 28.7092 40.3999H28.8449C28.8879 40.4741 29.0706 40.4755 29.1163 40.3999H29.5686C29.6256 40.4617 29.6224 40.4478 29.6591 40.3999L29.6604 40.4008ZM29.8735 37.253L30.7478 32.1269C30.7469 32.067 30.7135 32.0471 30.6732 32.0153C30.3276 31.7419 29.209 31.534 29.1611 31.0195C29.1502 30.9038 29.1457 30.7646 29.2533 30.6954C29.3714 30.6359 29.5374 30.7092 29.6586 30.7447C30.2014 30.9038 30.8749 31.2201 31.3956 31.4639C31.8244 31.6649 35.0427 33.3896 35.0879 33.6021C35.1467 33.8792 34.2081 33.6824 34.0702 33.8078L32.2835 37.7015C32.8218 38.4378 33.6468 38.9467 34.5112 39.2146C34.7509 39.2888 35.4444 39.4871 35.6579 39.4751C35.8478 39.464 36.3798 38.5166 36.4987 38.3115C37.1058 37.2654 37.7191 36.0511 38.2176 34.946C38.5731 34.1577 39.2706 32.6524 39.1553 31.8069C39.0711 31.1892 37.9453 29.6494 37.5088 29.1515C35.1739 26.4872 31.8597 24.7759 28.5075 23.8479L28.4152 23.8958C27.7521 26.6357 25.409 28.684 22.6082 28.7421C22.0369 31.8466 22.0315 35.0078 22.0622 38.1644C22.0821 38.3175 22.212 38.3193 22.3309 38.3516C23.279 38.6116 25.0684 38.5231 26.064 38.4184C27.3938 38.2787 28.7259 37.9694 29.8735 37.2534V37.253ZM18.7141 36.5282C18.7544 34.7321 18.8521 32.9922 19.0303 31.203C19.0425 31.0813 19.0199 30.9573 19.0312 30.8351L19.3917 28.1866C17.9777 27.5978 16.9735 26.0728 17.1757 24.4956C14.8901 24.6952 12.9325 26.0626 10.7169 26.4642C10.3257 26.5352 9.92402 26.5587 9.5314 26.6163C9.64719 26.9768 9.86657 27.3134 10.0059 27.6771C10.7423 29.6019 10.531 31.6548 9.03429 33.1158C10.977 33.0683 12.7927 32.0951 14.3713 31.0181C14.5269 30.6857 14.4306 30.3086 14.4631 29.9592C14.5066 29.4871 14.6029 28.9786 14.6653 28.5056C14.7286 28.2645 15.1778 28.1529 15.2303 28.4383C15.2574 28.5863 15.2398 28.9163 15.2334 29.0842C15.148 31.3657 15.0186 33.4223 15.2325 35.7201C15.2696 36.1184 15.3691 36.5232 15.4089 36.9233C15.4782 37.099 15.8558 37.27 16.0295 37.3512C16.8406 37.7287 17.8036 37.8938 18.6856 37.9588C18.7421 37.9496 18.7046 37.8836 18.7141 37.8647C18.7232 37.8472 18.7458 37.844 18.7141 37.8186V37.6342C18.7141 37.4351 18.7137 37.2341 18.7141 37.0349V36.9888C18.7141 36.9579 18.7132 36.9275 18.7141 36.8966L18.7449 36.8413L18.7141 36.8044C18.7159 36.7279 18.7123 36.6504 18.7141 36.5739V36.5278V36.5282ZM6.99701 27.6757C7.63253 25.1641 4.13241 24.509 2.47373 25.3471C1.71563 25.7302 1.66904 26.597 2.06528 27.2853C3.39738 26.9842 4.9647 26.8016 6.26016 27.3457C6.38862 27.3996 6.92463 27.7375 6.99701 27.6757ZM3.41638 27.8288C3.09296 27.8578 2.42035 27.9772 2.16207 28.164C1.67718 28.5139 1.88254 29.471 2.29641 29.8222C2.40407 29.8707 2.72794 29.7093 2.87992 29.6798C4.16181 29.4327 5.65857 29.6683 6.80341 30.2976C6.94861 30.3109 7.14808 29.843 7.16889 29.7176C7.47828 27.8588 4.61279 27.7218 3.41638 27.8293V27.8288ZM9.57663 28.276C9.45676 28.2649 9.50335 28.2737 9.48752 28.3451C9.43098 28.5978 9.38982 28.837 9.30704 29.0842C9.25684 29.2335 9.11209 29.4322 9.08902 29.5553C9.05826 29.7181 9.13335 29.9467 9.12702 30.1454C9.09581 31.1495 8.49602 32.3007 7.69178 32.8779C7.55473 32.9761 7.40772 33.0245 7.28333 33.1056C7.239 33.1347 7.20281 33.101 7.22498 33.2089C8.15451 33.3855 9.0171 32.4925 9.39072 31.7051C9.89869 30.6355 9.89778 29.4013 9.57663 28.276ZM3.74205 32.0107C4.39748 32.1725 5.0728 32.1688 5.7323 32.0342C6.28142 31.9222 7.29283 31.5054 6.442 30.9411C5.69204 30.4442 3.47292 30.0546 2.73155 30.5889C1.82373 31.2436 3.34989 32.4597 4.05778 32.4252C4.0519 32.2956 3.89223 32.2597 3.809 32.149C3.77417 32.1029 3.7208 32.0909 3.7416 32.0107H3.74205ZM30.5642 39.2022L33.2682 33.5081L31.5819 32.4708C31.4738 32.4505 31.4639 32.7082 31.4458 32.7931C31.0052 34.8967 30.7044 37.0404 30.4737 39.1786L30.5642 39.2022ZM34.9979 40.4008C35.1639 40.398 35.2042 40.4266 35.2241 40.2169C33.9598 40.0615 32.7661 39.5133 31.8995 38.5576C31.6086 38.9915 31.3558 39.4553 31.1016 39.9121C31.0744 39.961 30.9962 39.9744 30.9839 39.9969C30.9491 40.0624 30.9473 40.3008 30.8817 40.4008L30.927 40.4469C31.002 40.4487 31.078 40.4441 31.1531 40.4469C31.1979 40.4483 31.244 40.4487 31.2888 40.4469C31.9176 40.4243 32.6539 40.3395 33.2791 40.4008C33.284 40.4225 33.3035 40.4446 33.3243 40.4469C33.3781 40.4529 33.4491 40.4497 33.5052 40.4469C33.5545 40.4446 33.6192 40.4612 33.6409 40.4008C33.7762 40.3962 33.9128 40.4017 34.048 40.4008H34.0932C34.1986 40.4008 34.3045 40.4008 34.4099 40.4008H34.9527C34.9739 40.4303 34.9916 40.4008 34.9979 40.4008Z" fill="black"/>
<path d="M29.8735 37.2528C28.7259 37.9683 27.3938 38.2777 26.064 38.4178C25.0684 38.5225 23.279 38.611 22.3309 38.351C22.2124 38.3182 22.0822 38.3169 22.0623 38.1638C22.0315 35.0077 22.0369 31.8465 22.6082 28.7415C25.409 28.6834 27.7521 26.6351 28.4152 23.8953L28.5075 23.8473C31.8597 24.7753 35.1734 26.4866 37.5088 29.1509C37.9453 29.6488 39.0707 31.1886 39.1553 31.8063C39.2706 32.6519 38.5731 34.1571 38.2176 34.9454C37.7191 36.0505 37.1058 37.2648 36.4987 38.3109C36.3798 38.516 35.8478 39.4634 35.6579 39.4745C35.4444 39.4869 34.7514 39.2887 34.5112 39.214C33.6473 38.9462 32.8222 38.4372 32.2835 37.7009L34.0702 33.8072C34.2086 33.6818 35.1467 33.8786 35.0879 33.6016C35.0427 33.3886 31.8244 31.6639 31.3956 31.4633C30.875 31.2195 30.2014 30.9032 29.6586 30.7442C29.5374 30.7087 29.3714 30.6354 29.2534 30.6948C29.1457 30.764 29.1502 30.9032 29.1611 31.0189C29.209 31.5334 30.3281 31.7409 30.6732 32.0147C30.7135 32.0465 30.7469 32.0668 30.7478 32.1263L29.8735 37.2524V37.2528Z" fill="#F5F5F5"/>
<path d="M28.3938 11.172L28.4391 11.5409C28.0134 11.4113 27.4046 11.1536 27.3517 11.7926C27.3028 12.3836 27.3748 13.0654 27.3734 13.6638C27.4553 13.9354 28.0713 14.1456 28.3265 14.1677C28.7969 14.2078 28.9208 14.1428 29.2528 13.8459L29.3433 14.2148C28.9828 14.218 27.9379 14.4536 27.714 14.744C27.429 15.1147 27.8461 15.7195 28.2708 15.5881C28.3224 15.572 28.5992 15.3092 28.739 15.2355C29.0267 15.0838 29.3496 14.9399 29.6595 15.0681C31.0752 15.6522 29.5939 19.0043 28.5761 19.3113C28.1663 19.4349 27.4933 19.0352 27.3191 19.2062C27.2119 19.3113 27.0029 20.0706 26.9084 20.2855C26.0843 22.1627 24.2686 24.0446 22.244 24.4752C17.8926 25.4 15.0791 20.9263 14.7788 17.05C14.6024 14.7712 15.3745 11.2048 16.489 9.20533C16.8771 8.50872 17.0196 8.78949 17.6185 8.90013C18.686 9.09745 19.6924 9.09376 20.7273 8.73048C21.1376 8.58618 21.1177 8.48106 21.6329 8.4972C22.8393 8.53408 24.1922 8.71711 25.3709 8.97435C25.7654 9.06056 26.879 9.28969 27.1698 9.49208C27.4232 9.66865 27.2671 10.1661 27.3105 10.4551C27.3788 10.9056 27.9985 11.1476 28.3934 11.1725L28.3938 11.172ZM17.391 9.98537C16.8948 10.0518 16.1113 10.5589 16.2267 11.1476C16.3276 11.663 16.907 11.0125 17.0897 10.9226C17.1834 10.8765 17.334 10.829 17.4362 10.8147C17.8261 10.7608 18.5783 11.0849 18.5354 10.4579C18.5069 10.0439 17.7094 9.9425 17.391 9.98491V9.98537ZM25.2167 11.9447C25.5451 10.7986 24.0596 9.87611 23.0763 10.2472C22.728 10.3791 22.6742 10.829 22.9668 10.9632C23.2599 11.0978 23.7222 10.9807 24.0967 11.1485C24.6341 11.3896 24.6545 12.1512 25.2167 11.9442V11.9447ZM17.4778 12.6164C16.6035 12.6312 16.494 14.6615 17.2019 14.7661C18.0885 14.8975 18.2947 12.6021 17.4778 12.6164ZM23.2237 12.8418C22.9596 12.9041 22.7615 13.3614 22.7067 13.6053C22.3829 15.0538 23.6734 15.4457 23.985 14.1705C24.1189 13.6219 23.9592 12.669 23.2237 12.8418ZM19.877 13.0253C19.8145 13.0447 19.7064 13.1706 19.6703 13.2305C19.4644 13.5693 19.3287 14.0801 19.1121 14.4596C18.8615 14.8989 18.0582 15.7647 17.993 16.1769C17.8858 16.8536 18.6643 17.5917 19.284 17.6673C19.6721 17.7148 20.3288 17.5728 20.3858 17.092C20.4736 16.3507 19.2455 16.8564 18.937 16.3147C18.7778 16.0353 19.2347 15.6578 19.3839 15.4282C19.6526 15.0137 20.3388 13.6947 20.2429 13.2346C20.2049 13.0521 20.0511 12.9719 19.8765 13.0258L19.877 13.0253ZM29.3342 15.9307C28.9208 15.9736 28.1944 16.524 28.1252 16.9606C28.0659 17.3359 28.2003 17.5959 28.5915 17.3903C28.7964 17.2824 29.1587 16.6955 29.2849 16.6632C29.3673 16.642 29.4392 16.7471 29.5464 16.7554C30.0837 16.7974 29.9793 15.8638 29.3338 15.9311L29.3342 15.9307ZM24.7639 19.0439C24.9417 18.8462 24.7902 18.1616 24.6766 17.9343C24.5165 17.6143 24.0646 17.2547 23.7136 17.2105C23.5747 17.1929 23.2464 17.1717 23.1998 17.3368C23.098 17.6955 23.6575 17.7448 23.463 17.9716C23.3798 18.0684 22.7814 18.3141 22.6285 18.3658C21.2032 18.8508 19.4188 18.8628 17.9808 18.4432C17.8397 18.4022 17.2584 18.2611 17.2259 18.1486C17.1933 18.0362 17.3661 17.6858 17.0192 17.6775C16.5374 17.666 16.0928 18.9319 16.774 19.2579C16.8586 19.2984 17.0359 19.3086 17.0757 19.3422C17.1083 19.3699 17.153 19.5783 17.1974 19.6562C18.5349 21.9959 22.2286 21.6363 23.7091 19.6045C23.8353 19.4312 24.0714 18.8425 24.2939 18.9213C24.3586 18.9444 24.5328 19.3017 24.7644 19.0439H24.7639ZM18.8366 21.6911C18.4824 21.9991 18.9777 22.4855 19.2718 22.6593C19.9222 23.0437 20.8015 22.9746 21.2706 22.3296C21.3896 22.1664 21.4809 21.7976 21.2222 21.7741C21.1304 21.7658 20.6835 21.9691 20.4876 21.9931C20.1515 22.0346 19.7521 22 19.4278 21.9004C19.2003 21.8308 19.0592 21.6639 18.8366 21.6907V21.6911Z" fill="#F5F5F5"/>
<path d="M18.714 37.8651C18.7045 37.884 18.7416 37.9499 18.6855 37.9591C17.8035 37.8941 16.8405 37.7291 16.0294 37.3515C15.8557 37.2704 15.478 37.0998 15.4088 36.9237C15.369 36.5235 15.2695 36.1192 15.2324 35.7204C15.0185 33.4222 15.1478 31.3661 15.2333 29.0845C15.2397 28.9167 15.2573 28.5866 15.2302 28.4386C15.1777 28.1528 14.7285 28.2648 14.6652 28.5059C14.6028 28.9794 14.5064 29.4874 14.463 29.9595C14.4309 30.309 14.5272 30.6865 14.3712 31.0185C12.7926 32.0954 10.9769 33.0686 9.03418 33.1161C10.5309 31.6551 10.7426 29.6018 10.0058 27.6775C9.86646 27.3137 9.64708 26.9772 9.53129 26.6167C9.92391 26.559 10.326 26.5355 10.7168 26.4645C12.9319 26.0625 14.89 24.6951 17.1756 24.496C16.9734 26.0731 17.9776 27.5982 19.3916 28.1869L19.0311 30.8354C19.0198 30.9572 19.0424 31.0816 19.0302 31.2033C18.852 32.9926 18.7538 34.7324 18.714 36.5286C18.714 36.5438 18.714 36.5595 18.714 36.5747C18.7122 36.6512 18.7158 36.7287 18.714 36.8052C18.7131 36.8361 18.7149 36.8665 18.714 36.8974C18.7131 36.9283 18.714 36.9587 18.714 36.9896C18.714 37.0048 18.714 37.0205 18.714 37.0357C18.7135 37.2349 18.714 37.4359 18.714 37.635V37.8655V37.8651Z" fill="#F5F5F5"/>
<path d="M16.6785 23.7118C15.2117 23.9068 13.8927 24.614 12.528 25.1294C12.3837 25.1838 11.8364 25.3982 11.7342 25.3737C11.0064 24.2341 10.4486 22.9216 10.1415 21.5915C9.07854 16.9869 10.7214 11.8626 14.3938 8.9596C14.3925 9.19196 14.297 9.43814 14.2812 9.67464C14.2554 10.0499 14.3061 10.4326 14.4038 10.7935C14.4563 10.9872 14.6888 11.4385 14.6897 11.5634C14.691 11.7691 14.4033 12.6159 14.34 12.9152C13.5475 16.6503 13.842 20.0291 16.2271 23.088C16.2963 23.1765 16.7699 23.6126 16.6781 23.7113L16.6785 23.7118Z" fill="#F04B25"/>
<path d="M15.9097 40.4007C15.888 40.3919 15.8287 40.4279 15.8174 40.3716L15.5479 38.0499C15.6261 38.0421 15.6994 38.049 15.7754 38.0711C16.7343 38.3505 17.2712 38.717 18.3754 38.7866C18.5662 38.7986 19.2981 38.8286 19.3949 38.7083C19.4243 38.6719 19.4732 38.5354 19.4799 38.4847C19.6021 37.5885 19.4564 36.263 19.4808 35.305C19.4831 35.2119 19.5211 35.1275 19.5243 35.0353C19.5695 33.6311 19.6568 32.1991 19.8002 30.7893C19.9096 29.7129 20.0766 28.6401 20.21 27.5664C18.7883 27.2676 17.7516 26.116 17.8552 24.5882L18.7938 25.0602C19.1081 26.0639 20.1471 26.7757 21.1196 27.0002C23.6269 27.5788 26.5349 26.0468 27.0605 23.3886C27.2763 23.4955 27.5205 23.5343 27.7431 23.6154C27.7996 23.6362 27.8136 23.5868 27.8041 23.685C27.7729 23.9939 27.3975 24.8883 27.2419 25.1884C26.5869 26.4535 24.8559 27.6244 23.4754 27.8499C23.0199 27.9241 22.5512 27.9029 22.0939 27.9633C21.8768 28.026 21.8253 28.5248 21.7963 28.7203C21.486 30.8276 21.3992 33.1295 21.3404 35.2631C21.3137 36.2303 21.23 37.2413 21.2915 38.2136C21.3087 38.4833 21.3286 38.8881 21.5778 39.0282C21.8854 39.2011 23.0135 39.3242 23.3948 39.3431C25.5827 39.4514 27.7869 39.1071 29.7971 38.2348C29.7424 38.7908 29.7876 39.3615 29.7519 39.9171C29.7451 40.024 29.7062 40.3435 29.6618 40.4016H15.9111L15.9097 40.4007Z" fill="#F5F5F5"/>
<path d="M27.9489 20.262C28.508 20.2915 28.8513 20.2417 29.3131 19.9231C30.5213 19.09 31.4712 16.8555 30.9931 15.4157C30.9225 15.2036 30.6837 14.8814 30.7013 14.7039C30.7167 14.5462 31.0994 13.8266 31.1871 13.5813C31.3427 13.1461 31.4956 12.6169 31.5553 12.1586C31.6159 11.6939 31.5811 11.2172 31.6734 10.758C34.4638 14.1258 35.2386 18.9075 33.6749 23.0322C33.522 23.4361 33.3248 23.9294 33.1059 24.2963C33.0521 24.3867 32.9562 24.5859 32.8508 24.5877C30.9578 23.6735 28.9499 23.0719 26.9343 22.5034C26.8497 22.4578 26.805 22.4311 26.8289 22.3292C26.8764 22.1295 27.3609 21.4555 27.497 21.208C27.6644 20.9042 27.8019 20.5768 27.9489 20.2624V20.262Z" fill="#F04B25"/>
<path d="M30.8359 10.4805L29.5698 9.81203L29.5237 9.72074C29.6377 8.98265 28.8769 8.79271 28.3467 8.56912C26.8889 7.95412 23.5656 7.03116 22.0594 7.32114C21.3827 7.45161 20.8277 7.84163 20.1709 8.02419C19.2287 8.28605 18.1725 8.22427 17.2204 8.01451C16.7237 7.90525 16.3139 7.73421 15.8503 7.53551C15.6327 7.59176 15.6513 8.12008 15.734 8.28467C15.8168 8.44925 16.1552 8.55621 15.9077 8.74984C15.7019 8.91119 15.3012 8.63135 15.1451 8.47C14.4847 7.78538 14.6064 6.31243 15.3048 5.68913C15.3636 5.67852 15.6698 6.08653 15.7775 6.16582C15.8969 6.25388 16.0308 6.31934 16.1714 6.3636C18.7723 7.18191 20.6092 2.62842 23.7126 4.11751C24.3283 4.41303 24.4233 4.73758 24.8213 5.20045C25.2411 5.68867 25.517 5.45032 26.0195 5.40975C27.2051 5.31432 28.1667 5.83804 28.7177 6.89976C28.8556 7.16531 29.0049 7.7402 29.1618 7.92231C29.2862 8.06661 29.7322 8.22059 29.953 8.40684C30.5944 8.94808 30.7825 9.6562 30.8359 10.48V10.4805Z" fill="#F5F5F5"/>
<path d="M8.53631 29.889C8.67969 29.9895 8.4282 30.8562 8.36397 31.0272C7.83746 32.4255 6.6397 33.0825 5.18953 32.8395L6.39634 32.4794C7.09383 32.1719 7.74428 31.6261 7.27748 30.7949C7.83113 30.2924 7.98718 29.4459 7.79042 28.7364C7.73388 28.5317 7.45977 28.1399 7.44936 28.0656C7.43263 27.9462 7.62215 27.4866 7.65608 27.3091C8.02201 25.4097 6.63789 24.5776 5.02805 24.2678C4.1831 23.1157 4.1926 21.2808 5.34875 20.3472C5.80515 19.9784 6.59401 19.8 6.68221 20.5999C6.79711 21.6413 6.20817 22.4753 6.54516 23.5979C6.85546 24.632 7.63346 25.0174 8.21244 25.8172C8.9149 26.7886 9.24646 28.2381 8.59104 29.3224C8.47615 29.5128 7.9329 30.0236 8.53631 29.889Z" fill="#F5F5F5"/>
<path d="M6.99705 27.6756C6.92467 27.7378 6.38866 27.3995 6.2602 27.3455C4.96474 26.8015 3.39742 26.9836 2.06531 27.2851C1.66908 26.5968 1.71567 25.7301 2.47377 25.347C4.132 24.5089 7.63257 25.164 6.99705 27.6756Z" fill="#F5F5F5"/>
<path d="M3.41645 27.8287C4.61286 27.7213 7.47835 27.8582 7.16896 29.717C7.14815 29.8424 6.94868 30.3103 6.80348 30.297C5.65864 29.6677 4.16188 29.4321 2.87999 29.6792C2.72801 29.7087 2.40369 29.8696 2.29648 29.8217C1.88261 29.4704 1.67725 28.5138 2.16214 28.1634C2.42042 27.9767 3.09349 27.8573 3.41645 27.8282V27.8287Z" fill="#F5F5F5"/>
<path d="M3.74191 32.0106C3.7211 32.0908 3.77448 32.1028 3.8093 32.1489C3.89253 32.26 4.05175 32.296 4.05809 32.425C3.34974 32.4596 1.82404 31.2434 2.73186 30.5888C3.47323 30.0545 5.69235 30.444 6.44231 30.941C7.29359 31.5053 6.28173 31.9216 5.7326 32.0341C5.07266 32.1687 4.39778 32.1724 3.74236 32.0106H3.74191Z" fill="#F5F5F5"/>
<path d="M19.8001 25.3714C20.9536 25.7043 22.278 25.5522 23.3966 25.1418C24.5152 24.7315 25.4597 23.9483 26.3128 23.1124C25.9803 25.7034 22.596 27.0205 20.447 25.9334C20.3678 25.8933 19.7033 25.4715 19.8001 25.3714Z" fill="#F5F5F5"/>
<path d="M30.8816 40.4007C30.9472 40.3006 30.9485 40.0623 30.9838 39.9968C30.996 39.9738 31.0743 39.9609 31.1014 39.912C31.3556 39.4551 31.6085 38.9913 31.8993 38.5575C32.766 39.5132 33.9597 40.0614 35.2239 40.2167C35.204 40.427 35.1638 40.3979 34.9978 40.4007H34.4097C34.3044 40.4007 34.1985 40.4007 34.0931 40.4007C34.0782 40.4007 34.0628 40.4007 34.0479 40.4007C33.9126 40.4016 33.776 40.3961 33.6408 40.4007C33.591 40.4025 33.5268 40.3869 33.5051 40.4468C33.449 40.4495 33.378 40.4528 33.3242 40.4468C33.3196 40.4251 33.2993 40.4025 33.2789 40.4007C32.6538 40.3394 31.9174 40.4242 31.2887 40.4468C31.2824 40.3776 31.1593 40.3776 31.153 40.4468C31.0779 40.444 31.0019 40.4486 30.9268 40.4468L30.8816 40.4007Z" fill="#F5F5F5"/>
<path d="M7.81295 10.8493C7.82969 12.0388 7.75415 13.2236 7.77677 14.413C7.7935 14.4706 8.52673 15.259 8.59322 15.2866C8.82707 15.3834 9.22603 15.288 9.48611 15.3217C9.45626 15.4254 9.43274 15.6306 9.38841 15.7062C9.28121 15.8892 8.73073 15.6813 8.52266 15.7269L7.33484 14.5402L7.36063 10.5132C7.13944 10.3735 6.8409 10.1661 6.86352 9.86412C6.90649 9.29246 7.74329 9.14954 7.81205 9.81203C7.83647 10.049 7.76862 10.238 7.76501 10.4551C7.76229 10.6077 7.81114 10.753 7.8125 10.8493H7.81295Z" fill="#F04B25"/>
<path d="M40.245 12.8778L39.4556 13.7514C39.443 14.4697 39.4493 15.1958 39.3516 15.9085L37.3505 17.949C36.6544 18.1067 35.9325 18.0186 35.2241 18.0417V17.5802H37.1244C37.1266 17.5383 37.1397 17.4968 37.1718 17.4691C37.8019 16.9292 38.3253 16.2755 38.9527 15.7324C39.1345 15.3839 38.968 14.2433 39.0232 13.7759C39.0653 13.4177 39.6628 12.9949 39.8849 12.7141C39.9989 12.6556 40.1798 12.8621 40.2454 12.8778H40.245Z" fill="#F04B25"/>
<path d="M4.33008 12.9239C4.40019 12.9105 4.55986 12.7874 4.63223 12.745L5.52694 13.7095L5.56041 15.8422L7.20236 17.5802H9.12475L9.07997 18.0417L7.04631 18.0159C6.38003 17.4069 5.77888 16.7282 5.16779 16.0579C5.12029 15.832 5.14879 15.596 5.14427 15.3673C5.13432 14.8717 5.15965 14.3743 5.13522 13.8782L4.33008 12.9239Z" fill="#F04B25"/>
<path d="M28.3938 11.172C28.653 11.1882 28.89 11.1651 29.0958 10.9885C29.1949 10.9037 29.2844 10.6686 29.4106 10.6658L30.7477 11.4334C30.7495 12.0198 30.6523 12.5984 30.4741 13.1544C30.2628 12.9825 29.7847 12.8474 29.6124 12.6731C29.4979 12.5569 29.4875 12.3767 29.4133 12.2305C29.2057 11.8221 28.8497 11.6658 28.439 11.5408L28.3938 11.172Z" fill="#F5F5F5"/>
<path d="M9.57662 28.2759C9.89778 29.4012 9.89823 30.6354 9.39072 31.7049C9.01709 32.4923 8.1545 33.3853 7.22497 33.2088C7.20281 33.1009 7.23899 33.1345 7.28332 33.1055C7.40726 33.0244 7.55472 32.976 7.69177 32.8778C8.49556 32.3006 9.0958 31.1494 9.12701 30.1453C9.13334 29.9471 9.05826 29.7179 9.08901 29.5552C9.11208 29.4321 9.25683 29.2334 9.30704 29.084C9.39026 28.8374 9.43097 28.5976 9.48751 28.345C9.50335 28.2736 9.45721 28.2648 9.57662 28.2759Z" fill="#F5F5F5"/>
<path d="M35.2691 19.1477C35.2805 18.996 35.261 18.8388 35.2691 18.6867H37.9153L40.2909 16.2672C40.3619 16.2345 40.8744 16.2234 40.9165 16.2506C40.9359 16.2631 41.0902 16.6001 41.1494 16.6582L40.4257 16.6812C40.0059 17.1989 39.5075 17.6521 39.0452 18.1325C38.7322 18.458 38.3395 19.1043 37.8714 19.1491C37.0477 19.2279 36.1055 19.0868 35.2687 19.1472L35.2691 19.1477Z" fill="#F04B25"/>
<path d="M37.8475 10.8032C37.8597 12.1392 37.8271 13.4739 37.7679 14.8021C37.5182 15.0787 37.2617 15.3692 36.9885 15.6213C36.8021 15.7933 36.3733 16.217 36.1521 16.2442C35.8097 16.2861 35.394 16.2114 35.043 16.2432C35.0249 16.0962 35.0258 15.9325 34.9978 15.7822L36.2182 15.8044L37.3716 14.6749L37.3983 11.1522C37.4141 10.9116 37.6928 10.9083 37.8475 10.8032Z" fill="#F04B25"/>
<path d="M9.07957 19.1477L6.41038 19.079C5.69751 18.2169 4.91001 17.4193 4.23016 16.53L3.4707 16.5199C3.56388 16.4083 3.6254 16.2101 3.69506 16.08L4.32967 16.0828L6.63836 18.6627L9.00855 18.6456C9.12254 18.6728 9.0764 19.0329 9.08002 19.1472L9.07957 19.1477Z" fill="#F04B25"/>
<path d="M35.0884 21.084C35.1001 21.0107 35.0992 20.6308 35.1598 20.6202L38.9983 20.6271C39.2448 20.6271 39.2145 20.9429 39.295 21.084H35.0884Z" fill="#F04B25"/>
<path d="M28.1993 12.2882C29.0623 12.0245 29.3893 13.7044 28.1545 13.4213C27.7392 13.3259 27.8274 12.402 28.1993 12.2882Z" fill="#F5F5F5"/>
<path d="M28.3368 9.29153C28.9637 9.16568 29.1962 10.1002 28.6615 10.4077C27.9256 10.8309 27.4936 9.46119 28.3368 9.29153Z" fill="#F5F5F5"/>
<path d="M3.86599 11.2739C4.46578 11.155 4.65756 12.1365 4.06909 12.2236C3.48061 12.3108 3.27842 11.3906 3.86599 11.2739Z" fill="#F04B25"/>
<path d="M42.2211 15.4277C42.6757 15.8583 41.9479 16.6162 41.5318 16.0607C41.1518 15.5536 41.8371 15.0635 42.2211 15.4277Z" fill="#F04B25"/>
<path d="M2.9573 16.0888C2.55111 16.524 1.8785 15.9689 2.2485 15.4816C2.61851 14.9943 3.38837 15.6269 2.9573 16.0888Z" fill="#F04B25"/>
<path d="M40.4122 11.2739C41.0939 11.0683 41.2576 12.0023 40.7447 12.1655C40.0829 12.3762 39.9798 11.4044 40.4122 11.2739Z" fill="#F04B25"/>
<path d="M37.2034 9.33718C37.9471 9.22791 37.8516 10.5469 37.0447 10.2154C36.6466 10.0518 36.771 9.4008 37.2034 9.33718Z" fill="#F04B25"/>
<path d="M39.9426 20.8392C39.5233 20.3726 40.2335 19.6778 40.6315 20.2062C41.0295 20.7345 40.2615 21.1941 39.9426 20.8392Z" fill="#F04B25"/>
<path d="M29.2534 13.8459C29.319 13.7874 29.3914 13.6141 29.5017 13.615L30.107 14.0165L30.0219 14.3535C29.774 14.2701 29.6108 14.2125 29.3439 14.2152L29.2534 13.8464V13.8459Z" fill="#F5F5F5"/>
<path d="M15.0955 9.51236L15.5035 9.67464C15.4347 9.90607 15.252 10.0974 15.2307 10.3427C15.1552 10.3818 15.0955 10.2634 15.0955 10.2274V9.51282V9.51236Z" fill="#F5F5F5"/>
<path d="M29.1176 40.4007C29.0719 40.4763 28.8892 40.4749 28.8462 40.4007H29.1176Z" fill="#235C57"/>
<path d="M26.856 40.4007C26.8262 40.4735 26.6597 40.4735 26.6299 40.4007H26.856Z" fill="#235C57"/>
<path d="M18.8951 40.4007C18.8653 40.4735 18.6988 40.4735 18.6689 40.4007H18.8951Z" fill="#235C57"/>
<path d="M27.2178 40.4007C27.1622 40.4638 27.0943 40.4648 27.0369 40.4007H27.2178Z" fill="#235C57"/>
<path d="M20.5235 40.4007C20.4665 40.4652 20.3977 40.4638 20.3425 40.4007H20.5235Z" fill="#235C57"/>
<path d="M21.0662 40.4007C21.0105 40.4638 20.9427 40.4652 20.8853 40.4007H21.0662Z" fill="#235C57"/>
<path d="M19.5283 40.4007C19.483 40.4565 19.4378 40.4565 19.3926 40.4007H19.5283Z" fill="#235C57"/>
<path d="M20.7949 40.4007C20.7492 40.4565 20.7044 40.4569 20.6592 40.4007H20.7949Z" fill="#235C57"/>
<path d="M20.071 40.4007C20.0258 40.4565 19.9805 40.4565 19.9353 40.4007H20.071Z" fill="#235C57"/>
<path d="M24.9108 40.4007C24.8656 40.4565 24.8204 40.456 24.7751 40.4007H24.9108Z" fill="#235C57"/>
<path d="M33.6408 40.4007C33.6191 40.4611 33.5544 40.4445 33.5051 40.4468C33.5268 40.3868 33.5911 40.4025 33.6408 40.4007Z" fill="#235C57"/>
<path d="M31.2888 40.4468C31.244 40.4486 31.1979 40.4482 31.1531 40.4468C31.1594 40.3776 31.2824 40.3776 31.2888 40.4468Z" fill="#235C57"/>
<path d="M26.2226 40.4007C26.1774 40.4565 26.1321 40.4565 26.0869 40.4007H26.2226Z" fill="#235C57"/>
<path d="M16.0454 40.4007C15.9757 40.4869 15.9544 40.4191 15.9097 40.4007H16.0454Z" fill="#235C57"/>
<path d="M28.7104 40.4007C28.6656 40.4565 28.6199 40.456 28.5747 40.4007H28.7104Z" fill="#235C57"/>
<path d="M22.1969 40.4007L22.1422 40.432L22.1064 40.4007H22.1969Z" fill="#235C57"/>
<path d="M22.6493 40.4007L22.5946 40.432L22.5588 40.4007H22.6493Z" fill="#235C57"/>
<path d="M21.2472 40.4007L21.211 40.4325L21.1567 40.4007H21.2472Z" fill="#235C57"/>
<path d="M17.8998 40.4007L17.8451 40.432L17.8093 40.4007H17.8998Z" fill="#235C57"/>
<path d="M17.6737 40.4007L17.6375 40.432L17.5833 40.4007H17.6737Z" fill="#235C57"/>
<path d="M17.4022 40.4007L17.366 40.432L17.3118 40.4007H17.4022Z" fill="#235C57"/>
<path d="M29.6603 40.4007C29.6237 40.4486 29.6268 40.4624 29.5698 40.4007H29.6603Z" fill="#235C57"/>
<path d="M16.2714 40.4007L16.2166 40.432L16.1809 40.4007H16.2714Z" fill="#235C57"/>
<path d="M18.7141 36.8969C18.715 36.866 18.7132 36.8356 18.7141 36.8047L18.7449 36.8416L18.7141 36.8969Z" fill="#235C57"/>
<path d="M28.3034 40.4007L28.2672 40.432L28.2129 40.4007H28.3034Z" fill="#235C57"/>
<path d="M33.3243 40.4468C33.3035 40.4445 33.284 40.4223 33.2791 40.4007C33.2994 40.4025 33.3198 40.4251 33.3243 40.4468Z" fill="#235C57"/>
<path d="M34.9526 40.4007H34.9979C34.9915 40.4007 34.9739 40.4302 34.9526 40.4007Z" fill="#235C57"/>
<path d="M18.7141 37.8651V37.819C18.7458 37.8443 18.7232 37.8475 18.7141 37.8651Z" fill="#235C57"/>
<path d="M24.7638 19.0439C24.5318 19.3017 24.3581 18.9444 24.2934 18.9213C24.0713 18.8425 23.8352 19.4312 23.7086 19.6045C22.2281 21.6363 18.5344 21.9959 17.1968 19.6562C17.1521 19.5783 17.1077 19.3699 17.0752 19.3422C17.0358 19.3086 16.8581 19.298 16.7735 19.2579C16.0923 18.9319 16.5369 17.666 17.0186 17.6775C17.3656 17.6858 17.1941 18.0417 17.2253 18.1486C17.2579 18.2611 17.8392 18.4017 17.9803 18.4432C19.4182 18.8628 21.2027 18.8512 22.628 18.3658C22.7808 18.3137 23.3793 18.0684 23.4625 17.9716C23.657 17.7453 23.0975 17.6959 23.1992 17.3368C23.2463 17.1717 23.5742 17.1929 23.7131 17.2105C24.0641 17.2552 24.516 17.6148 24.6761 17.9343C24.7901 18.1616 24.9416 18.8462 24.7634 19.0439H24.7638ZM23.4177 18.641C21.8169 19.2629 20.2636 19.4409 18.5697 19.1334C18.2856 19.0817 17.9563 18.9508 17.6935 18.919C17.6261 18.9107 17.6148 18.9121 17.627 18.9868C17.6614 19.1956 17.7677 19.3427 17.8975 19.4944C18.9546 20.7331 21.4727 20.5026 22.708 19.646C23.0346 19.4197 23.3888 19.0592 23.4173 18.6406L23.4177 18.641Z" fill="black"/>
<path d="M19.8771 13.0253C20.0517 12.9714 20.2055 13.0521 20.2435 13.2342C20.3389 13.6943 19.6532 15.0137 19.3845 15.4277C19.2353 15.6573 18.7784 16.0349 18.9376 16.3142C19.2466 16.8559 20.4746 16.3502 20.3864 17.0915C20.3294 17.5728 19.6727 17.7144 19.2846 17.6669C18.6649 17.5913 17.8864 16.8532 17.9936 16.1764C18.0588 15.7638 18.8621 14.8985 19.1127 14.4591C19.3293 14.0797 19.4655 13.5689 19.6709 13.23C19.707 13.1705 19.8151 13.0442 19.8776 13.0249L19.8771 13.0253Z" fill="black"/>
<path d="M23.2238 12.8418C23.9593 12.6685 24.1189 13.6219 23.985 14.1705C23.6734 15.4457 22.3829 15.0543 22.7068 13.6053C22.7615 13.361 22.9596 12.9041 23.2238 12.8418Z" fill="black"/>
<path d="M25.2167 11.9447C24.6545 12.1517 24.6341 11.3901 24.0968 11.149C23.7222 10.9812 23.26 11.0978 22.9669 10.9637C22.6742 10.8295 22.728 10.3791 23.0763 10.2477C24.0597 9.87611 25.5451 10.7991 25.2167 11.9452V11.9447Z" fill="black"/>
<path d="M17.4778 12.6164C18.2947 12.6026 18.0885 14.8975 17.2019 14.7661C16.4936 14.661 16.6035 12.6312 17.4778 12.6164Z" fill="black"/>
<path d="M18.8367 21.6911C19.0593 21.6644 19.2008 21.8313 19.4279 21.9009C19.7522 22 20.1516 22.0346 20.4877 21.9935C20.6836 21.9696 21.13 21.7663 21.2223 21.7746C21.481 21.7981 21.3892 22.1669 21.2707 22.3301C20.8016 22.9751 19.9223 23.0442 19.2719 22.6597C18.9779 22.4859 18.483 21.9995 18.8367 21.6916V21.6911Z" fill="black"/>
<path d="M17.3911 9.98537C17.7095 9.94296 18.5074 10.0444 18.5355 10.4584C18.5784 11.0858 17.8262 10.7613 17.4363 10.8152C17.3341 10.8295 17.1834 10.8765 17.0898 10.9231C16.9075 11.013 16.3276 11.6635 16.2268 11.1481C16.1114 10.5593 16.8949 10.0522 17.3911 9.98583V9.98537Z" fill="black"/>
<path d="M29.3343 15.9307C29.9798 15.8634 30.0843 16.7969 29.5469 16.755C29.4397 16.7467 29.3678 16.6416 29.2855 16.6628C29.1593 16.6955 28.7969 17.2819 28.592 17.3898C28.2008 17.5959 28.0664 17.3354 28.1257 16.9601C28.1949 16.5235 28.9209 15.9731 29.3348 15.9302L29.3343 15.9307Z" fill="black"/>
<path d="M23.4178 18.641C23.3889 19.0592 23.0347 19.4201 22.7086 19.6465C21.4733 20.5031 18.9552 20.7336 17.8981 19.4948C17.7687 19.3431 17.662 19.1961 17.6276 18.9872C17.6154 18.9126 17.6267 18.9112 17.6941 18.9195C17.9569 18.9513 18.2862 19.0822 18.5702 19.1338C20.2638 19.4413 21.8175 19.2638 23.4183 18.6415L23.4178 18.641Z" fill="#F5F5F5"/>
</g>
<defs>
<clipPath id="clip0_14_584">
<rect width="42" height="38" fill="white" transform="translate(1 3)"/>
</clipPath>
</defs>
</svg>
